<svg xmlns="http://www.w3.org/2000/svg" viewBox="0 0 270.21 99.43"><defs><style>.cls-1{fill:#f5de00;}.cls-2{fill:#ccab00;}.cls-3,.cls-4{fill:#4a1268;}.cls-3{stroke:#fff;stroke-miterlimit:10;stroke-width:0.12px;}.cls-4{font-size:46px;font-family:ArialMT, Arial;letter-spacing:0.01em;}.cls-5{font-size:36px;letter-spacing:0.01em;}</style></defs><g id="Layer_2" data-name="Layer 2"><g id="Layer_1-2" data-name="Layer 1"><g id="Layer_2-2" data-name="Layer 2"><path class="cls-1" d="M270.21,49.69c0,27.23-22.68,49.5-50.4,49.5H50.61C22.89,99.19.21,76.92.21,49.69S22.89.19,50.61.19h169.2C247.53.19,270.21,22.47,270.21,49.69Z"/><path class="cls-2" d="M72.21,99.19c-3,.16-7.34.31-12.55.2-7.28-.16-16-.35-23.2-2.24-5.08-1.32-15.47-5-26-17.36C8,76.68-1.52,63.55.21,45.19a49,49,0,0,1,10.63-26A55.3,55.3,0,0,1,26.26,6.42,48.39,48.39,0,0,1,36.67,2.08,47.24,47.24,0,0,1,46.38.51,251.9,251.9,0,0,1,72.21.19Z"/><polygon class="cls-3" points="24.45 50.04 53.46 27.91 53.46 72.17 24.45 50.04"/><text class="cls-4" transform="translate(109.07 63.32)">Back<tspan class="cls-5" x="103.37" y="0"> </tspan></text></g></g></g></svg>