<svg xmlns="http://www.w3.org/2000/svg" viewBox="0 0 163.99 129.85"><defs><style>.cls-1{fill:#241a34;stroke:#241a48;stroke-miterlimit:10;stroke-width:0.44px;}</style></defs><g id="Layer_2" data-name="Layer 2"><g id="Layer_1-2" data-name="Layer 1"><path class="cls-1" d="M32.54,92.76a1.3,1.3,0,0,0-.32.72c-.17,3.32,17,6.74,25,8.34a232.22,232.22,0,0,0,27.43,4.09c3.67.32,7.09.54,10.25.7,9.55.46,17,.31,18.71.27,19.06-.44,29.85-2.88,32-3.39a51,51,0,0,0,18.14-8q0-7.62-.08-15.24c-3,1.26-5.52,2.2-7.14,2.8-6.8,2.51-13.45,5.45-20.37,7.62a9,9,0,0,0-3.61,1.93,13.78,13.78,0,0,0-2.09,2.48,7.62,7.62,0,0,1-1.2,1.77A4.78,4.78,0,0,1,127.36,98c-2.23.2-5.38.45-9.15.64-10.27.53-17.77.28-27.35-.08-12.15-.44-21-1.18-28.88-1.84-8.81-.74-14.34-1.38-20.37-2.33C37.87,93.77,34.75,93.19,32.54,92.76Z"/><path class="cls-1" d="M159.88,52.67a173.56,173.56,0,0,1-27.06-20.39,173.56,173.56,0,0,1-25.91-30"/><path class="cls-1" d="M143.51,63.44a333.55,333.55,0,0,1-22-32.34c-5.9-9.86-10.87-19.34-15.08-28.21"/><path class="cls-1" d="M130.38,72.68q-2.25-2.27-4.5-4.86a99.72,99.72,0,0,1-11.8-16.9"/><path class="cls-1" d="M106,2.49A113.71,113.71,0,0,1,92.51,15,114.37,114.37,0,0,1,72.13,27.71"/><path class="cls-1" d="M106.68,2c-3.15,5.36-6.81,11-11,16.92-3.69,5.13-7.38,9.8-11,14"/><path class="cls-1" d="M130.14,88.07q-3.34-3-6.68-6l-3.7-3.36"/><path class="cls-1" d="M133.89,85.92,131,95.08"/><path class="cls-1" d="M152.13,79.3c.24,1.17.56,2.42,1,3.74a43.36,43.36,0,0,0,1.46,4.12"/><path class="cls-1" d="M110.56,88.65l.41,12"/><path class="cls-1" d="M98.93,86.39q-.86,6.83-1.72,13.64"/><path class="cls-1" d="M121.13,99.91l-1.31-9.34"/><path class="cls-1" d="M117.12,90.08l.65,10.08"/><path class="cls-1" d="M114.45,89.55l.33,10.48"/><path class="cls-1" d="M114.45,93.9l5.84-.35"/><path class="cls-1" d="M114.58,97.87l6.34-.29"/><path class="cls-1" d="M84.32,99Q86,91.73,87.6,84.48"/><path class="cls-1" d="M89.73,86l-2,13.23"/><path class="cls-1" d="M92.33,86.91q-.83,6.11-1.66,12.2"/><path class="cls-1" d="M91.44,93l-5.58-.81"/><path class="cls-1" d="M91.09,97l-6-1.1"/><path class="cls-1" d="M92,89.68l-5.36-1"/><path class="cls-1" d="M116.43,57.89l-.62-4.66"/><path class="cls-1" d="M114.47,53l.29,5"/><path class="cls-1" d="M113.14,52.7l.13,5.23"/><path class="cls-1" d="M113.12,54.87l2.91-.15"/><path class="cls-1" d="M113.17,56.85l3.16-.12"/><path class="cls-1" d="M93.39,57.15,95,49.85"/><path class="cls-1" d="M95.9,50.17l-.83,7.09"/><path class="cls-1" d="M97.15,50.68l-.59,6.51"/><path class="cls-1" d="M96.8,54.16,94,54"/><path class="cls-1" d="M96.65,56.12,93.59,56"/><path class="cls-1" d="M97,52.61l-2.64-.18"/><path class="cls-1" d="M94.69,35.79a37.94,37.94,0,0,1-8.28.2A37.72,37.72,0,0,1,82,35.33"/><path class="cls-1" d="M77.68,58.71,77,51.55"/><path class="cls-1" d="M68.09,58.78l1-7.82"/><path class="cls-1" d="M63.62,58.58l2.43-7.49"/><path class="cls-1" d="M63.49,50.9l-11,10"/><path class="cls-1" d="M59.55,48.6l-7,6"/><path class="cls-1" d="M57.18,44.59q-3.51,2.73-7,5.45"/><path class="cls-1" d="M23.93,84.56l-3.12,1.88"/><path class="cls-1" d="M10,81.81l3-1.6"/><path class="cls-1" d="M4,76.16.1,78.26"/><line class="cls-1" x1="25.02" y1="80.43" x2="45.93" y2="97.01"/><line class="cls-1" x1="34.98" y1="83.63" x2="47" y2="96.71"/><line class="cls-1" x1="48.34" y1="96.65" x2="38.46" y2="83.53"/><line class="cls-1" x1="79.47" y1="99.9" x2="78.7" y2="83.72"/><line class="cls-1" x1="65.68" y1="81.02" x2="62.9" y2="98.74"/><path class="cls-1" d="M57.8,78.91,52.65,97.43l4.86-17.8"/><path class="cls-1" d="M110,58.54l-.6-7.15"/><path class="cls-1" d="M102.09,58.54l.88-7.25"/><path class="cls-1" d="M108.14,102.66l-3.1.15L105.78.22h1.47Z"/><path class="cls-1" d="M72.81,100.75l-2.21-.15-.29-72.12h1.62Z"/><path class="cls-1" d="M145.74,90.31l-1.93.15c.11-9.52.3-27,.39-36.54v-.75h1.7v.72Z"/><rect class="cls-1" x="143.37" y="53.08" width="3.31" height="0.93" transform="translate(290.06 107.09) rotate(-180)"/><rect class="cls-1" x="143.64" y="56.37" width="2.85" height="0.47" transform="translate(290.12 113.2) rotate(-180)"/><rect class="cls-1" x="69.59" y="28.5" width="3.28" height="0.54" transform="translate(142.46 57.54) rotate(-180)"/><rect class="cls-1" x="69.62" y="31.7" width="2.97" height="0.33" transform="translate(142.21 63.73) rotate(-180)"/><path class="cls-1" d="M149.28,116.67l3.93,13L84,129.21Z"/><path class="cls-1" d="M42.3,97.79a36.7,36.7,0,0,1,4,4.22,39.6,39.6,0,0,1,3.2,4.62A63.31,63.31,0,0,1,53.61,115c1.83,4.21,1.89,4.91,3.12,6.67a16.77,16.77,0,0,0,3.82,4.09,17.29,17.29,0,0,0,8.36,3.11c5.69.79,17.6,1.11,33.14.3h0l26-4.26s4.9-.88,15-3.38c4.48-1.11,8.16-2.12,10.74-5.34a17.1,17.1,0,0,0,2.56-4.52,59.11,59.11,0,0,0,2.77-7.83,61.32,61.32,0,0,0,1.35-6.34,79.18,79.18,0,0,1-8.7,3.71c-3.26,1.16-11,3.68-30.09,4.86-12.62.78-22.22.48-25.91.34-10.17-.41-17.53-1.32-24.29-2.16-12.91-1.61-19.09-3.13-24.35-4.79C45.09,98.8,43.43,98.21,42.3,97.79Z"/><path class="cls-1" d="M32.38,93.34a1.24,1.24,0,0,0-.33.72c-.17,3.32,17,6.74,25,8.34a232.56,232.56,0,0,0,27.43,4.09c3.67.32,7.09.54,10.25.7,9.56.46,17,.31,18.71.27,19.06-.44,29.85-2.89,32-3.39a51.16,51.16,0,0,0,18.15-8q0-7.62-.08-15.25c-3,1.27-5.52,2.21-7.14,2.81-6.81,2.51-13.46,5.45-20.38,7.62a9,9,0,0,0-3.61,1.93,13.47,13.47,0,0,0-2.08,2.48,8,8,0,0,1-1.21,1.77,4.78,4.78,0,0,1-1.92,1.12c-2.23.2-5.37.45-9.15.64-10.27.53-17.77.28-27.35-.08-12.15-.44-21-1.18-28.88-1.84-8.81-.74-14.34-1.38-20.37-2.33C37.7,94.35,34.59,93.77,32.38,93.34Z"/><path class="cls-1" d="M159.75,53l-30,20.64a17.31,17.31,0,0,0-1.38,4,17.12,17.12,0,0,0-.35,4.67,16.76,16.76,0,0,0,1.38,5.6l30.56-9a21.74,21.74,0,0,1-1.27-4.1,27,27,0,0,1-.34-6.28,78.73,78.73,0,0,1,.46-9.8A56.59,56.59,0,0,1,159.75,53Z"/><path class="cls-1" d="M118.25,53.85A24.61,24.61,0,0,1,116.54,44a24.92,24.92,0,0,1,3.52-11.81l-25.43-.11a15.64,15.64,0,0,0-.45,18.28Z"/><path class="cls-1" d="M127.1,57.14h-39a26.67,26.67,0,0,0-.23,29.52L124.49,92a40.88,40.88,0,0,1-2.72-15A41.42,41.42,0,0,1,127.1,57.14Z"/><path class="cls-1" d="M85,57.26,56.82,57a24.2,24.2,0,0,0-3,9.65,24.68,24.68,0,0,0,3.07,14l26.22,4.88A34.74,34.74,0,0,1,85,57.26Z"/><path class="cls-1" d="M83.62,54.19a22.67,22.67,0,0,1,1.93-21.91H59a15.91,15.91,0,0,0-3.18,8.51,16.08,16.08,0,0,0,3,10.22Z"/><path class="cls-1" d="M131.21,4.37,131,17.48a8.21,8.21,0,0,0-5-2.29c-1.41-.08-2.64.42-5.06,1.42-5.11,2.12-5.54,2.86-7.35,3.08-1.53.18-3.79,0-6.78-2.08a11.85,11.85,0,0,0,1.69-5.11,12.46,12.46,0,0,0-1.9-7.68,11.56,11.56,0,0,0,6,1.69c5.51-.11,8-4.74,13.1-4.42A9.76,9.76,0,0,1,131.21,4.37Z"/><path class="cls-1" d="M53.06,59.59,39.17,85l-16.56-.09Z"/><path class="cls-1" d="M52.8,53.38,36.06,78.91,32.27,81.5,11.74,80.38Z"/><path class="cls-1" d="M52.54,47.68,28.9,74.86l-2,2.84L2.85,76.41Z"/><path class="cls-1" d="M127.09,56.68v.65H87.67l.08-.89Z"/><path class="cls-1" d="M85,56.8v.55H56.64V57Z"/><path class="cls-1" d="M159.68,53.18V52L129.35,72.73l.08,1.29Z"/><path class="cls-1" d="M120.12,32l0,.33-25.71.11,0-.39Z"/><path class="cls-1" d="M85.48,32.12v.34l-26.54,0L59,32Z"/><path class="cls-1" d="M83.49,54l0,.41-25-3v-.56Z"/><path class="cls-1" d="M83.11,85.27l-.11.42L56.78,81.25l.15-.61Z"/><path class="cls-1" d="M124.45,92l-.06.7L87.7,87.18l.06-.75Z"/><path class="cls-1" d="M118.2,53.67l-.13.55L94,50.72l.22-.47Z"/><path class="cls-1" d="M150.71,59.82h.67l0-2.42-.67.42Z"/><path class="cls-1" d="M140.35,66.88H141l0-2.42-.67.42Z"/><path class="cls-1" d="M133.64,71.57h.67l0-2.42-.67.42Z"/><rect class="cls-1" x="117.14" y="31.81" width="0.51" height="1.61" transform="translate(234.79 65.24) rotate(-180)"/><rect class="cls-1" x="109.95" y="31.87" width="0.51" height="1.61" transform="translate(220.4 65.36) rotate(-180)"/><rect class="cls-1" x="102.98" y="31.88" width="0.51" height="1.61" transform="translate(206.48 65.37) rotate(-180)"/><rect class="cls-1" x="97.18" y="31.89" width="0.51" height="1.61" transform="translate(194.87 65.4) rotate(-180)"/><rect class="cls-1" x="117.43" y="56.29" width="0.51" height="1.61" transform="translate(235.38 114.2) rotate(-180)"/><rect class="cls-1" x="110.24" y="56.31" width="0.51" height="1.61" transform="translate(220.99 114.23) rotate(-180)"/><rect class="cls-1" x="103.28" y="56.31" width="0.51" height="1.61" transform="translate(207.07 114.24) rotate(-180)"/><rect class="cls-1" x="97.48" y="56.31" width="0.51" height="1.61" transform="translate(195.46 114.23) rotate(-180)"/><rect class="cls-1" x="92.64" y="56.29" width="0.51" height="1.61" transform="translate(185.79 114.19) rotate(-180)"/><rect class="cls-1" x="124" y="56.29" width="0.51" height="1.61" transform="translate(248.52 114.2) rotate(-180)"/><rect class="cls-1" x="75.68" y="56.67" width="0.51" height="1.61" transform="translate(151.88 114.96) rotate(-180)"/><rect class="cls-1" x="68.49" y="56.69" width="0.51" height="1.61" transform="translate(137.49 114.99) rotate(-180)"/><rect class="cls-1" x="63.02" y="56.69" width="0.51" height="1.61" transform="translate(126.54 115) rotate(-180)"/><rect class="cls-1" x="57.87" y="56.71" width="0.51" height="1.61" transform="translate(116.26 115.03) rotate(-180)"/><rect class="cls-1" x="82.25" y="56.67" width="0.51" height="1.61" transform="translate(165.02 114.96) rotate(-180)"/><rect class="cls-1" x="81.44" y="31.77" width="0.51" height="1.61" transform="translate(163.4 65.15) rotate(-180)"/><rect class="cls-1" x="74.25" y="31.83" width="0.51" height="1.61" transform="translate(149.01 65.28) rotate(-180)"/><rect class="cls-1" x="67.29" y="31.83" width="0.51" height="1.61" transform="translate(135.09 65.28) rotate(-180)"/><rect class="cls-1" x="61.49" y="31.85" width="0.51" height="1.61" transform="translate(123.48 65.32) rotate(-180)"/><path class="cls-1" d="M101.16,21.46l11,0-.21.71H101.33Z"/><path class="cls-1" d="M110.06,28.51l-7.13-.06-1.44-5.66h10.23Z"/><path class="cls-1" d="M111.91,22.13l-.19.66H101.49l-.16-.66Z"/><rect class="cls-1" x="127.78" y="109.07" width="5.83" height="6.72" transform="translate(261.38 224.86) rotate(-180)"/><circle class="cls-1" cx="130.7" cy="112.44" r="1.4"/><rect class="cls-1" x="113.56" y="109.15" width="5.83" height="6.72" transform="translate(232.94 225.03) rotate(-180)"/><circle class="cls-1" cx="116.5" cy="112.53" r="1.4"/><rect class="cls-1" x="99.57" y="109.23" width="5.83" height="6.72" transform="translate(204.96 225.19) rotate(-180)"/><circle class="cls-1" cx="102.51" cy="112.61" r="1.4"/><rect class="cls-1" x="85.37" y="109.03" width="5.83" height="6.72" transform="translate(176.56 224.78) rotate(-180)"/><circle class="cls-1" cx="88.32" cy="112.41" r="1.4"/><rect class="cls-1" x="71.21" y="109.15" width="5.83" height="6.72" transform="translate(148.25 225.03) rotate(-180)"/><circle class="cls-1" cx="74.16" cy="112.53" r="1.4"/><path class="cls-1" d="M162.32,82.65l.18,13a66.33,66.33,0,0,1-16.87,7.25c-3.52.93-7.39,1.56-8.07,1.67-3.32.54-6.2.82-8.44,1a23.64,23.64,0,0,1,1.67-8.12,8.6,8.6,0,0,1,1.9-3,8.26,8.26,0,0,1,3.24-1.92c7.42-2.55,14.68-5.54,22.06-8.18C158.94,83.91,160.45,83.36,162.32,82.65Z"/><line class="cls-1" x1="146.21" y1="102.66" x2="146.21" y2="88.52"/><line class="cls-1" x1="137.56" y1="104.61" x2="137.56" y2="92.01"/><path class="cls-1" d="M162.3,85.71A63.75,63.75,0,0,1,147.62,92a63.29,63.29,0,0,1-14.91,2.4"/><path class="cls-1" d="M162.51,89.26a70,70,0,0,1-32.12,9.11"/><path class="cls-1" d="M162.3,93a73.59,73.59,0,0,1-33.05,9"/><path class="cls-1" d="M56.28,111.32,57,110l.76,1.33h-.54a2.92,2.92,0,0,0,.55,1.74,2,2,0,0,0,.93.76,1.44,1.44,0,0,0,1.19,0,1.6,1.6,0,0,0,.45-1.26c0-1.3.08-3,.1-5.09a1,1,0,1,1,.61,0c0,2.55.06,4.42,0,5.1a1.56,1.56,0,0,0,.2.88,1.19,1.19,0,0,0,.53.53,1.37,1.37,0,0,0,1.18-.18,2.28,2.28,0,0,0,1-1.4,2.5,2.5,0,0,0,.11-.88h-.54l.77-1.32.76,1.32h-.54a3.42,3.42,0,0,1-.55,2.08A6.32,6.32,0,0,1,62.52,115c-.64.43-1,.56-1.31,1.08-.13.24-.19.46-.35.48s-.37-.39-.73-.81c-.52-.58-.79-.38-1.67-1.06a3.62,3.62,0,0,1-1.11-1.24,4,4,0,0,1-.31-.89,5.77,5.77,0,0,1-.17-1.22Z"/></g></g></svg>