<svg xmlns="http://www.w3.org/2000/svg" viewBox="0 0 291.67 291.67"><defs><style>.cls-1{fill:#54067f;}.cls-2,.cls-3{fill:#360452;}.cls-2{opacity:0.65;}.cls-4{fill:#fff;}.cls-5{fill:none;stroke:#fff;stroke-miterlimit:10;stroke-width:27px;}</style></defs><g id="Layer_2" data-name="Layer 2"><g id="Layer_1-2" data-name="Layer 1"><circle class="cls-1" cx="145.83" cy="145.83" r="145.83"/><path class="cls-2" d="M290.54,164.62,199.41,74.44A100.79,100.79,0,0,0,95.77,83.89q28.78,29.65,57.55,59.32l-4.83,7.27,8.61,33.6H130.53l27,23.49a18.07,18.07,0,0,1,6.53,9.6,17.54,17.54,0,0,1,.47,5.7,20.65,20.65,0,0,1-4.92,12.8,20.41,20.41,0,0,1-14.56,6.68c-1,0-2.1-.12-2.1-.12a19.43,19.43,0,0,1-5.16-1.29l49.38,44.66c13-4,49.46-17.05,76.46-54A147.44,147.44,0,0,0,290.54,164.62Z"/><path class="cls-3" d="M157.24,207.66a19.47,19.47,0,1,0-19.41,33.28l-5.44-4.74Z"/><circle class="cls-4" cx="145.23" cy="222.67" r="19.48"/><path class="cls-5" d="M103.37,89.67C110.74,71.14,128.53,59,148,59.07c17.79.08,35.7,10.42,43.05,28.52,7.17,17.66,2.54,38.38-11.41,50.84-14.49,12.94-32.66,11.23-35.79,10.89v34.75"/></g></g></svg>