<svg xmlns="http://www.w3.org/2000/svg" viewBox="0 0 273.21 102.43"><defs><style>.cls-1{fill:#54067f;}.cls-11,.cls-2,.cls-7{fill:none;}.cls-10,.cls-11,.cls-12,.cls-2,.cls-3,.cls-7,.cls-8,.cls-9{stroke:#fff;stroke-miterlimit:10;}.cls-2,.cls-3{stroke-width:3px;}.cls-3{fill:#360452;}.cls-4{font-size:42px;font-family:MyriadPro-Regular, Myriad Pro;}.cls-12,.cls-4{fill:#fff;}.cls-5{letter-spacing:0.01em;}.cls-6{letter-spacing:0em;}.cls-10,.cls-11,.cls-7,.cls-8,.cls-9{stroke-width:2.37px;}.cls-8{fill:#d55364;}.cls-9{fill:#009245;}.cls-10{fill:#8e5722;}.cls-11{stroke-linecap:round;}.cls-12{stroke-width:0.26px;}</style></defs><g id="Layer_2" data-name="Layer 2"><g id="Layer_1-2" data-name="Layer 1"><g id="Layer_3" data-name="Layer 3"><path class="cls-1" d="M271.71,51.19c0,27.23-22.68,49.5-50.4,49.5H52.11c-27.72,0-50.4-22.27-50.4-49.5s22.68-49.5,50.4-49.5h169.2C249,1.69,271.71,24,271.71,51.19Z"/><path class="cls-2" d="M271.71,51.19c0,27.23-22.68,49.5-50.4,49.5H52.11c-27.72,0-50.4-22.27-50.4-49.5s22.68-49.5,50.4-49.5h169.2C249,1.69,271.71,24,271.71,51.19Z"/><path class="cls-3" d="M73.71,100.69c-3,.16-7.34.31-12.55.2-7.28-.16-16-.35-23.2-2.24-5.08-1.32-15.47-5-26-17.36C9.52,78.18,0,65.05,1.71,46.69a49,49,0,0,1,10.63-26A55.3,55.3,0,0,1,27.76,7.92,48.39,48.39,0,0,1,38.17,3.58,47.24,47.24,0,0,1,47.88,2a251.9,251.9,0,0,1,25.83-.32Z"/><text class="cls-4" transform="translate(117.5 66.75)"><tspan class="cls-5">H</tspan><tspan x="27.8" y="0">i</tspan><tspan class="cls-6" x="37.63" y="0">n</tspan><tspan x="60.77" y="0">t</tspan></text><path class="cls-7" d="M39.79,32.51V26.93"/><path class="cls-7" d="M31.21,34.43l-3-5.15"/><path class="cls-7" d="M24.57,40.34l-5.15-3.57"/><path class="cls-7" d="M22.53,48.75l-6.64,0"/><path class="cls-7" d="M24.26,57.62l-5.65,2.61"/><path class="cls-8" d="M48.18,34.28l3-5.15"/><path class="cls-7" d="M54.82,40.19,60,36.62"/><path class="cls-9" d="M56.86,48.6l6.64,0"/><path class="cls-10" d="M55.13,57.47l5.64,2.61"/><path class="cls-7" d="M34.56,68.11a14.32,14.32,0,0,0-1.32-6.39c-1.14-2.4-2-2.37-3.65-5.55a17,17,0,0,1-1.9-6,11.2,11.2,0,0,1,0-3.06,11,11,0,0,1,2.48-5.39c3.34-4,8.58-4.09,9.62-4.09.88,0,6.22,0,9.48,4a11.94,11.94,0,0,1,2.4,5.54,12.46,12.46,0,0,1,.08,3,15.76,15.76,0,0,1-2,6.05c-1.67,3.16-2.44,3.13-3.52,5.37a14.94,14.94,0,0,0-1.42,6.55"/><path class="cls-11" d="M35.25,71.2H44"/><path class="cls-11" d="M35.28,75.34H44"/><path class="cls-12" d="M35.58,78c1,1.93,1.88,2.42,2.53,2.49.25,0,.39,0,1.62,0s1.33,0,1.58,0C42,80.44,42.89,80,43.94,78Z"/></g></g></g></svg>