<svg xmlns="http://www.w3.org/2000/svg" viewBox="0 0 273.21 102.43"><defs><style>.cls-1{fill:#f5de00;}.cls-2{fill:none;}.cls-2,.cls-3{stroke:#4a1268;stroke-miterlimit:10;stroke-width:3px;}.cls-3{fill:#ccab00;}.cls-4{font-size:32px;font-family:ArialMT, Arial;letter-spacing:0.01em;}.cls-4,.cls-6{fill:#4a1268;}.cls-5{font-size:36px;letter-spacing:0.01em;}</style></defs><g id="Layer_2" data-name="Layer 2"><g id="Layer_1-2" data-name="Layer 1"><g id="Layer_3" data-name="Layer 3"><path class="cls-1" d="M271.71,51.19c0,27.23-22.68,49.5-50.4,49.5H52.11c-27.72,0-50.4-22.27-50.4-49.5s22.68-49.5,50.4-49.5h169.2C249,1.69,271.71,24,271.71,51.19Z"/><path class="cls-2" d="M271.71,51.19c0,27.23-22.68,49.5-50.4,49.5H52.11c-27.72,0-50.4-22.27-50.4-49.5s22.68-49.5,50.4-49.5h169.2C249,1.69,271.71,24,271.71,51.19Z"/><path class="cls-3" d="M73.71,100.69c-3,.16-7.34.31-12.55.2-7.28-.16-16-.35-23.2-2.24-5.08-1.32-15.47-5-26-17.36C9.52,78.18,0,65.05,1.71,46.69a49,49,0,0,1,10.63-26A55.3,55.3,0,0,1,27.76,7.92,48.39,48.39,0,0,1,38.17,3.58,47.24,47.24,0,0,1,47.88,2a251.9,251.9,0,0,1,25.83-.32Z"/><text class="cls-4" transform="translate(82.91 63.27)">How to play<tspan class="cls-5" x="169.3" y="0"> </tspan></text></g><circle class="cls-6" cx="28.69" cy="41.64" r="5.92"/><path class="cls-6" d="M17.66,67.33c0-2.51-.1-6.62-.12-11.6a5.94,5.94,0,0,1,.38-2.23A4.85,4.85,0,0,1,18.81,52a5.14,5.14,0,0,1,1.28-1A5.58,5.58,0,0,1,22,50.32a7.31,7.31,0,0,1,2.8.06l3.7,5.55,4-5.55a7.65,7.65,0,0,1,2.11-.06,5.41,5.41,0,0,1,1.65.38,5.29,5.29,0,0,1,1.85,1.4,8.81,8.81,0,0,1,1.34,2.3c.37.78.94,1.88,1.72,3.18l6.5.13a4.07,4.07,0,0,1,1.21,1.15,2.35,2.35,0,0,1,.58,1.46,2.27,2.27,0,0,1-.58,1.28,3.57,3.57,0,0,1-1.08.95l-8.61-.06A1.62,1.62,0,0,1,37.49,61l-2.62-4.28L34.75,67.4Z"/><path class="cls-6" d="M48.51,57.41l9.93-7.09.5.08.29.43h0l-10.4,9.28-1.9-1.62Z"/><rect class="cls-6" x="39.73" y="35.69" width="26.77" height="2.29"/><rect class="cls-6" x="47.17" y="40.63" width="19.34" height="2.29"/><rect class="cls-6" x="47.18" y="45.45" width="19.34" height="2.29"/></g></g></svg>