<svg xmlns="http://www.w3.org/2000/svg" viewBox="0 0 270.21 99.43"><defs><style>.cls-1{fill:#54067f;}.cls-2{fill:#360452;}.cls-3{font-size:46px;font-family:ArialMT, Arial;letter-spacing:0.01em;}.cls-10,.cls-3,.cls-5,.cls-6,.cls-7,.cls-8,.cls-9{fill:#fff;}.cls-4{font-size:36px;letter-spacing:0.01em;}.cls-10,.cls-5,.cls-6,.cls-7,.cls-8,.cls-9{stroke:#fff;}.cls-5,.cls-6,.cls-7,.cls-8,.cls-9{stroke-miterlimit:10;}.cls-5{stroke-width:0.26px;}.cls-6,.cls-7{stroke-linecap:round;}.cls-6,.cls-8{stroke-width:5.4px;}.cls-7{stroke-width:11.32px;}.cls-8,.cls-9{stroke-linecap:square;}.cls-9{stroke-width:7.72px;opacity:0.99;}.cls-10{stroke-linejoin:round;stroke-width:0.77px;}</style></defs><g id="Layer_2" data-name="Layer 2"><g id="Layer_1-2" data-name="Layer 1"><g id="Layer_2-2" data-name="Layer 2"><path class="cls-1" d="M270.21,49.69c0,27.23-22.68,49.5-50.4,49.5H50.61C22.89,99.19.21,76.92.21,49.69S22.89.19,50.61.19h169.2C247.53.19,270.21,22.47,270.21,49.69Z"/><path class="cls-2" d="M72.21,99.19c-3,.16-7.34.31-12.55.2-7.28-.16-16-.35-23.2-2.24-5.08-1.32-15.47-5-26-17.36C8,76.68-1.52,63.55.21,45.19a49,49,0,0,1,10.63-26A55.3,55.3,0,0,1,26.26,6.42,48.39,48.39,0,0,1,36.67,2.08,47.24,47.24,0,0,1,46.38.51,251.9,251.9,0,0,1,72.21.19Z"/><text class="cls-3" transform="translate(100.28 63.32)">Leave<tspan class="cls-4" x="126.71" y="0"> </tspan></text><circle class="cls-5" cx="45.23" cy="33.83" r="6.4"/><line class="cls-6" x1="31.43" y1="50.14" x2="32.74" y2="42.12"/><line class="cls-6" x1="55.67" y1="45.31" x2="57.21" y2="36.29"/><line class="cls-6" x1="55.54" y1="46" x2="33.12" y2="42.1"/><line class="cls-7" x1="41.2" y1="57.52" x2="43.3" y2="46.93"/><line class="cls-6" x1="46.37" y1="66.89" x2="38.14" y2="58.59"/><line class="cls-6" x1="46.74" y1="67.38" x2="43.08" y2="60.52"/><line class="cls-6" x1="46.35" y1="75.95" x2="46.69" y2="67.35"/><line class="cls-6" x1="26.8" y1="61.49" x2="33.64" y2="70.15"/><path class="cls-8" d="M36.23,67.25l-1.09,1.21"/><line class="cls-9" x1="12.21" y1="51" x2="17.94" y2="51"/><path class="cls-10" d="M18.07,57.58V43.85L27,50.79Z"/></g></g></g></svg>