<svg xmlns="http://www.w3.org/2000/svg" viewBox="0 0 494.26 480.6"><defs><style>.cls-1{fill:#c4542e;}.cls-2{fill:#ed8e2f;}</style></defs><g id="Layer_2" data-name="Layer 2"><g id="Layer_1-2" data-name="Layer 1"><path class="cls-1" d="M261.22,0c-5.89.2-10,11.88-12,18-12.94,39.32-15.39,77.86-25.57,108.82-9.12,27.74-14.37,43.71-29.67,52.54-26,15-52.06-7.39-131.76-18.36-22.94-3.16-58.73-8.08-62,1-1.77,4.95,6.46,13.06,46,40,73.62,50.16,92.43,54.32,97.69,75,4.26,16.73-6.39,35.82-27.69,74-7.21,12.93-31,52.92-41,90-1.6,6-3.81,15.31,0,18,4.27,3,13.9-3.84,21-9,34.69-25.17,51.43-38.59,61.18-47.42,33-29.91,55.88-50.59,79.82-47.58,18.62,2.34,37.57,25.92,75.48,73.08,11.81,14.69,27.55,25.73,41,38.92,0,0,16.8,16.45,23.89,13.17.23-.11.42-.22.44-.23,4.86-3.09,2.23-15.39.6-22.36-9-38.67-22.31-61.83-30.43-85.58-8.62-25.23-19.81-57.82-4.66-80.76,7.87-11.93,22.14-18.7,50.66-32.24,1-.47.32-.14,38-16,14.19-6,28.57-12.1,45-23,11.69-7.75,17.53-11.62,17-15-1.67-10.77-50.81-14.16-87.85-11.07h0c-51.4,5.9-77.1,8.84-94.14-4.93-11.05-8.93-15.48-23-19-52-4.79-39.45-7.57-99.12-22-127C266.52.92,263-.06,261.22,0Z"/><circle class="cls-2" cx="242.72" cy="259.5" r="16.5"/><circle class="cls-2" cx="248.29" cy="210.04" r="12.56"/><circle class="cls-2" cx="252.88" cy="169.59" r="11.25"/><circle class="cls-2" cx="256.75" cy="131.83" r="9.74"/><circle class="cls-2" cx="257.99" cy="100.13" r="8.11"/><circle class="cls-2" cx="260.58" cy="73" r="6.46"/><circle class="cls-2" cx="261.82" cy="51.52" r="5.26"/><circle class="cls-2" cx="262.8" cy="33.67" r="3.93"/><circle class="cls-2" cx="290.53" cy="250.71" r="12.56"/><circle class="cls-2" cx="330.46" cy="242.79" r="11.25"/><circle class="cls-2" cx="367.61" cy="235" r="9.74"/><circle class="cls-2" cx="398.19" cy="226.55" r="8.11"/><circle class="cls-2" cx="424.82" cy="220.77" r="6.46"/><circle class="cls-2" cx="445.67" cy="215.42" r="5.26"/><circle class="cls-2" cx="462.96" cy="210.93" r="3.93"/><circle class="cls-2" cx="269.68" cy="299.6" r="12.56"/><circle class="cls-2" cx="291.97" cy="331.24" r="11.25"/><circle class="cls-2" cx="308.37" cy="361.38" r="9.74"/><circle class="cls-2" cx="323.36" cy="387.26" r="8.11"/><circle class="cls-2" cx="336.14" cy="410.54" r="6.46"/><circle class="cls-2" cx="349" cy="430.05" r="5.26"/><circle class="cls-2" cx="359.62" cy="449.27" r="3.93"/><circle class="cls-2" cx="206.67" cy="296.36" r="12.56"/><circle class="cls-2" cx="182.12" cy="326.28" r="11.25"/><circle class="cls-2" cx="157.44" cy="350.12" r="9.74"/><circle class="cls-2" cx="137.5" cy="374.47" r="8.11"/><circle class="cls-2" cx="121.46" cy="394.99" r="6.46"/><circle class="cls-2" cx="109.7" cy="412.71" r="5.26"/><circle class="cls-2" cx="98.1" cy="428.53" r="3.93"/><circle class="cls-2" cx="196.62" cy="239.42" r="12.56"/><circle class="cls-2" cx="158.12" cy="222.8" r="11.25"/><circle class="cls-2" cx="124.8" cy="208.27" r="9.74"/><circle class="cls-2" cx="96.43" cy="196.47" r="8.11"/><circle class="cls-2" cx="72.6" cy="187.12" r="6.46"/><circle class="cls-2" cx="52.36" cy="179.27" r="5.26"/><circle class="cls-2" cx="35.86" cy="174.81" r="3.93"/></g></g></svg>