<svg xmlns="http://www.w3.org/2000/svg" xmlns:xlink="http://www.w3.org/1999/xlink" viewBox="0 0 422.1 1281.19"><defs><style>.cls-1{fill:none;}.cls-2{fill:url(#linear-gradient);}.cls-3{fill:#ddebe1;}.cls-4{fill:url(#Skintone_19);}.cls-5{fill:url(#Skintone_19-2);}.cls-6{fill:url(#linear-gradient-2);}.cls-7{clip-path:url(#clip-path);}.cls-8{fill:#db9c94;}.cls-9{fill:#543e36;}.cls-10{fill:#8b0037;}.cls-11{fill:#f0beb4;}.cls-12{fill:url(#Skintone_20);}.cls-13{fill:#cb8c84;}.cls-14{fill:#fff;}.cls-15{fill:url(#Skintone_20-2);}.cls-16{fill:url(#Skintone_3);}.cls-17{clip-path:url(#clip-path-2);}.cls-18{fill:url(#linear-gradient-3);}.cls-19{fill:url(#Skintone_3-2);}.cls-20{fill:url(#Sky_18);}.cls-21{fill:url(#linear-gradient-4);}.cls-22{clip-path:url(#clip-path-3);}.cls-23{fill:url(#Sky_19);}.cls-24{fill:url(#Skintone_3-3);}</style><linearGradient id="linear-gradient" x1="15.44" y1="166.9" x2="282.88" y2="166.9" gradientUnits="userSpaceOnUse"><stop offset="0" stop-color="#eacbc6"/><stop offset="0.23" stop-color="#e7c2bd"/><stop offset="0.57" stop-color="#e0ada6"/><stop offset="1" stop-color="#cb8c84"/></linearGradient><linearGradient id="Skintone_19" x1="211.18" y1="158.14" x2="301.47" y2="158.14" gradientTransform="matrix(-1, 0, 0, 1, 325.15, 0)" gradientUnits="userSpaceOnUse"><stop offset="0" stop-color="#6c5034"/><stop offset="1" stop-color="#2e1000"/></linearGradient><linearGradient id="Skintone_19-2" x1="161.17" y1="145.71" x2="258.97" y2="145.71" gradientTransform="matrix(1, 0, 0, 1, 0, 0)" xlink:href="#Skintone_19"/><linearGradient id="linear-gradient-2" x1="82.97" y1="189.76" x2="82.97" y2="143.76" gradientUnits="userSpaceOnUse"><stop offset="0" stop-color="#004a33"/><stop offset="0.5" stop-color="#006d4f"/><stop offset="0.98" stop-color="#52835f"/></linearGradient><clipPath id="clip-path"><circle class="cls-1" cx="82.97" cy="166.76" r="23"/></clipPath><linearGradient id="Skintone_20" x1="112.52" y1="251.37" x2="162.31" y2="251.37" gradientUnits="userSpaceOnUse"><stop offset="0" stop-color="#956751"/><stop offset="1" stop-color="#3a1e12"/></linearGradient><linearGradient id="Skintone_20-2" x1="109.44" y1="240.08" x2="167.33" y2="240.08" xlink:href="#Skintone_20"/><linearGradient id="Skintone_3" x1="145.97" y1="506.91" x2="250.15" y2="506.91" gradientUnits="userSpaceOnUse"><stop offset="0.01" stop-color="#e2afa7"/><stop offset="0.5" stop-color="#dc9c95"/><stop offset="1" stop-color="#b87f73"/></linearGradient><clipPath id="clip-path-2"><path class="cls-1" d="M130,292.76c-.95,9.67,11.86,12.36,16,30,5,21.23-8.79,37.69-4,41,4.53,3.13,16.34-11.94,39-24a131.48,131.48,0,0,1,37-13,53.15,53.15,0,0,1-8-22c-2.32-19.77,9-29.1,5-36C206,253.33,132.2,270,130,292.76Z"/></clipPath><linearGradient id="linear-gradient-3" x1="11.44" y1="163.9" x2="278.88" y2="163.9" xlink:href="#linear-gradient"/><linearGradient id="Skintone_3-2" x1="86.57" y1="478.79" x2="244.03" y2="478.79" xlink:href="#Skintone_3"/><linearGradient id="Sky_18" x1="3.76" y1="806.19" x2="422.1" y2="806.19" gradientUnits="userSpaceOnUse"><stop offset="0" stop-color="#cb7232"/><stop offset="0.13" stop-color="#ef9150"/><stop offset="0.36" stop-color="#f6cb8a"/><stop offset="0.39" stop-color="#f7d291"/><stop offset="0.54" stop-color="#ddbca6"/><stop offset="0.71" stop-color="#c6a9b5"/><stop offset="0.74" stop-color="#c0a1b0"/><stop offset="0.85" stop-color="#a57f99"/><stop offset="0.94" stop-color="#946a8a"/><stop offset="1" stop-color="#8e6285"/></linearGradient><linearGradient id="linear-gradient-4" x1="201.47" y1="180.76" x2="201.47" y2="131.76" xlink:href="#linear-gradient-2"/><clipPath id="clip-path-3"><circle class="cls-1" cx="201.47" cy="156.26" r="24.5"/></clipPath><linearGradient id="Sky_19" y1="129.38" x2="310.22" y2="129.38" gradientUnits="userSpaceOnUse"><stop offset="0.03" stop-color="#4d285a"/><stop offset="0.29" stop-color="#785e9f"/><stop offset="0.48" stop-color="#ae87bd"/><stop offset="0.65" stop-color="#c7afd4"/><stop offset="0.69" stop-color="#c9acce"/><stop offset="0.74" stop-color="#d0a5be"/><stop offset="0.76" stop-color="#d59fb2"/><stop offset="0.88" stop-color="#e3bcad"/><stop offset="1" stop-color="#f7cf87"/></linearGradient><linearGradient id="Skintone_3-3" x1="129.97" y1="575.76" x2="250.55" y2="575.76" xlink:href="#Skintone_3"/></defs><g id="Layer_2" data-name="Layer 2"><g id="Layer_6" data-name="Layer 6"><path class="cls-2" d="M128,22.76c-47.59,7.54-87.66,39.29-103,72a118,118,0,0,0-8,24c-4.09,20.62.78,30.19,6,65,5.74,38.29,2.3,43.08,10,62,4.27,10.49,9.31,22.51,21,33,6.32,5.66,11.66,8.27,48,20,42.12,13.59,48.29,14.4,56,14,11.74-.61,21.49-4.74,41-13,36.11-15.29,54.21-23,67-42,8.27-12.32,10.36-23.51,14-43,1.45-7.79,5.15-30.27,1-67-4.05-35.81-6.07-53.72-16-71C240.45,34.08,178.93,14.68,128,22.76Z"/><path class="cls-3" d="M238,164.24c.34,8.75-2.26,20.71-11.28,27.29-7.6,5.53-16.4,4.93-26.72,4.23s-17.19-3.57-23-6c-7.42-3.11-15.25-6.5-16-12-.08-.56-.05-3,0-8,0-3,.08-5.31.08-5.52.14-5.12,10.73-35.11,37.92-35.48C218.66,128.49,237.17,143.87,238,164.24Z"/><path class="cls-3" d="M114,183.76c-.77,3-2.45,5.69-6,9s-13.49,12.55-29,13c-5.07.14-15.32.44-24-7-11.3-9.69-10.52-24.41-10.43-25.67,1.15-16.55,16-29,30.43-31.33a32.32,32.32,0,0,1,20,3c10.41,5.49,13.79,15.5,18,28C114.11,176.14,115,179.71,114,183.76Z"/><path class="cls-4" d="M43.07,176.1c6-15.84,20.32-26.16,36-25.91,15.29.25,29.07,10.48,34.88,25.91.12-4-.14-12.74-5.33-20.91-9.23-14.52-26.27-14.9-30.47-15-9.08-.2-19.48,2.79-24.93,8-.58.56-2.95,2.9-6.46,6-3.84,3.4-5.76,5.09-7.39,6-2.13,1.2-7,3.16-15.69,0a43.8,43.8,0,0,0,9.23,10A41.42,41.42,0,0,0,43.07,176.1Z"/><path class="cls-5" d="M238,163.67a41.39,41.39,0,0,0-76.77,0A34.94,34.94,0,0,1,167,142.76c10-14.53,28.45-14.91,33-15,9.83-.2,21.09,2.79,27,8,.63.55,3.19,2.9,7,6,4.16,3.39,6.24,5.09,8,6,2.31,1.19,7.63,3.16,17,0a45.7,45.7,0,0,1-21,15.91Z"/><circle class="cls-6" cx="82.97" cy="166.76" r="23"/><g class="cls-7"><path class="cls-4" d="M43.07,176.1c6-15.84,20.32-26.16,36-25.91,15.29.25,29.07,10.48,34.88,25.91.12-4-.14-12.74-5.33-20.91-9.23-14.52-26.27-14.9-30.47-15-9.08-.2-19.48,2.79-24.93,8-.58.56-2.95,2.9-6.46,6-3.84,3.4-5.76,5.09-7.39,6-2.13,1.2-7,3.16-15.69,0a43.8,43.8,0,0,0,9.23,10A41.42,41.42,0,0,0,43.07,176.1Z"/></g><path class="cls-8" d="M126,188.76c-.85,7.25-3.06,10.44-5,12s-3.81,3.23-5.75,4.8a8.69,8.69,0,0,0-2.25,2.2c-1.75,2.75-.26,6.4,0,7,3.84,1,5.48.79,6,0,.71-1.08-1.07-2.56-1-5,.09-3.07,3-4.66,5-7S126.78,196.41,126,188.76Z"/><path class="cls-8" d="M150,160.76c-1.41-.59.27-7.7,2-15,2.15-9.09,4.2-12.68,5-14,1.89-3.13,3.58-5.93,7-8,2.6-1.58,5.78-2,12-3a89.55,89.55,0,0,1,9-1c14.52.36,17.95,1.22,18,2,.13,2-15.8.45-30,10C156.75,142.66,152.27,161.72,150,160.76Z"/><path class="cls-8" d="M115.51,157.82c1.13-.69-1.39-5.87-4-11.2-3.22-6.62-5.52-9-6.41-9.92-2.1-2.09-4-4-7.23-5-2.48-.77-5.28-.57-10.79-.29-3.28.17-6,.49-7.9.75-12.45,2.73-15.28,4-15.2,4.57.19,1.58,13.67-2.31,27.34,2.64C107,145.05,113.67,159,115.51,157.82Z"/><path class="cls-9" d="M151,127.76c3.33,1.64,8.1-4.9,16-10,15.22-9.84,31.05-7.23,31-8-.09-1.29-44.06-4.85-49,9C147.8,122,148.69,126.63,151,127.76Z"/><path class="cls-9" d="M106.38,129.32c-3,1.93-8.71-1.82-17.26-3.83-16.48-3.87-31.5,1.52-31.57,1-.12-1,42.18-13.24,49.29-4.17C108.53,124.42,108.41,128,106.38,129.32Z"/><path class="cls-10" d="M114,248.76l-2-1a17.06,17.06,0,0,0,1.6-2.52,18.6,18.6,0,0,1,2.06-3.9c.58-.74,3-4.12,9-5.07,7.6-1.22,12.6,1.06,22.81,3,4.21.81,7.67,1.25,9.92,1.5a13.52,13.52,0,0,1-2.09,5.2,9.64,9.64,0,0,1-6,3.83c-8.29,2.18-10,4.84-13.55,5.84a12.5,12.5,0,0,1-3.48.4c-5.41.1-10.61-2-13.28-3.33"/><path class="cls-11" d="M113.49,249.21a26.55,26.55,0,0,0,11,6.47A23.37,23.37,0,0,0,140,254.41c6.15-2.69,7.87-6.35,15.7-9.11a34.23,34.23,0,0,1,5.58-1.46,57.42,57.42,0,0,1-12.44,12.3,32.35,32.35,0,0,1-12.31,6c-3.13.69-6.81,1.49-11.09-.21C118.85,259.35,115,252.41,113.49,249.21Z"/><path class="cls-12" d="M112.52,247.89A30.74,30.74,0,0,0,124,253.07a31.35,31.35,0,0,0,16.2-.93c6.39-2.11,8.17-5,16.32-7.15a45.08,45.08,0,0,1,5.8-1.13,54.87,54.87,0,0,1-12.9,9.69,38.39,38.39,0,0,1-12.8,4.73c-3.27.53-7.1,1.15-11.56-.22C118.16,256,114.13,250.43,112.52,247.89Z"/><path class="cls-13" d="M126.16,263.05c0-.21,2.18,1.17,5.94,1.35,4.61.23,7.86-1.52,8-1.09s-1.72,1.81-4,2.41C130.91,267.07,126.07,263.37,126.16,263.05Z"/><path class="cls-14" d="M116,243.76c.22,2.09,8.36,2.77,11,3,10.51.89,22.91-1.3,23-4,.08-2.27-8.5-5-16-5C124.9,237.7,115.73,241.48,116,243.76Z"/><path class="cls-15" d="M109.52,249.08q-1-1.56,11.26-17.18a11,11,0,0,0,6.91,2.61,11.59,11.59,0,0,0,8-3.57,49.23,49.23,0,0,0,15.76,7.75c8.67,2.38,15.77,1.47,15.86,2.78.07,1-4.3,2.93-9,3.55-10.76,1.44-13.58-5-22.81-2.91a25.81,25.81,0,0,1-8,1.09,23.07,23.07,0,0,1-6.94-1.37,46.77,46.77,0,0,1-7.78,6C110.44,249.3,109.74,249.4,109.52,249.08Z"/><path class="cls-16" d="M182,383.76c-1.2,10.34-4.45,43.09,1,102,1,11.21,2.2,21.36,1,36-1,11.82-3,20.51-9,42-11.16,39.91-15.37,49.89-21,73-4.15,17-6.6,31.08-8,40l37,1a396.17,396.17,0,0,1,17-69c7.5-21.54,11.24-32.3,17-42a94.54,94.54,0,0,0,10-21,87.41,87.41,0,0,0,4-21c1.66-22.15,5.28-20.57,15-105,6-51.85,5.47-60-1-68-11.11-13.79-34.22-20.37-48-12C193.38,341.94,186.14,347.73,182,383.76Z"/><g class="cls-17"><path class="cls-18" d="M124,19.76c-47.59,7.54-87.66,39.29-103,72a118,118,0,0,0-8,24c-4.09,20.62.78,30.19,6,65,5.74,38.29,2.3,43.08,10,62,4.27,10.49,9.31,22.51,21,33,6.32,5.66,11.66,8.27,48,20,42.12,13.59,48.29,14.4,56,14,11.74-.61,21.49-4.74,41-13,36.11-15.29,54.21-23,67-42,8.27-12.32,10.36-23.51,14-43,1.45-7.79,5.15-30.27,1-67-4.05-35.81-6.07-53.72-16-71C236.45,31.08,174.93,11.68,124,19.76Z"/></g><path class="cls-19" d="M232,343.76a26.67,26.67,0,0,0-8.31-4,46.35,46.35,0,0,1-6.69-20c-1.52-16.58,6.59-28.66,9-32-16.06,7.72-30,13.63-41,18s-18.31,6.91-28,7a60.82,60.82,0,0,1-22-4c7.27,6.49,15.41,16.07,18,29a50.44,50.44,0,0,1-.64,21.2,72.06,72.06,0,0,0-9.36,8.8c-5.07,5.75-3.61,6.22-18,32-24.63,44.11-31.44,47.26-36,64-5.17,19-1.45,34,6,64,11.89,47.93,27.31,55.37,32,95,3.67,31-3.45,45.82,0,47C142.27,675,285.91,383.9,232,343.76Z"/><path class="cls-20" d="M141,368.76c-4.7,14-3.39,19.11-1,21,6.45,5.09,30.08-5.81,39-24,4.45-9.07,2.4-14.15,9-22a36.87,36.87,0,0,1,21-12,35.94,35.94,0,0,1,24,4,35.56,35.56,0,0,1,13,13c1.21,2.54,2.52,5.6,2,6-.73.46-3.85-4.07-7-7-8.21-7.64-24.06-11.38-35-5-7.18,4.18-10.14,11.37-13,19a63.9,63.9,0,0,0-4,24c.57,24.1,2.17,90.62,1,123-.83,22.89-1.79,49.72-11,83-3.4,12.29-11.75,27.5-14,51a147.42,147.42,0,0,0,1,36c2.59,6.56,6.32,16.58,10,29,35.88,121-19.94,174.68-4,268,19.72,115.47,132.32,192.25,144,200,47.83,31.73,109.41,53,106,64-.9,2.9-6.45,5.44-33,4-93.47-5.09-113.49-41.46-152-29-34,11-35.16,44.85-89,62-8.75,2.79-23.16,7.24-27,2-8.86-12.11,58.35-49,69-103,11.14-56.52-50.16-78-119-201-26.54-47.39-64.9-129-67-213-.47-19-1.41-56.62,13-101,11.42-35.18,25-59,25-59,10.08-17.7,25.82-39.88,33-63,2.13-6.87,6.1-20.16,3-36-.53-2.73-.7-2.58-1.29-5.44-3.89-18.78,1.18-35.17,2.29-38.56,7.12-21.82,22.45-34,28-38Q124,394.75,141,368.76Z"/><circle class="cls-21" cx="201.47" cy="156.26" r="24.5"/><g class="cls-22"><path class="cls-5" d="M238,163.67a41.39,41.39,0,0,0-76.77,0A34.94,34.94,0,0,1,167,142.76c10-14.53,28.45-14.91,33-15,9.83-.2,21.09,2.79,27,8,.63.55,3.19,2.9,7,6,4.16,3.39,6.24,5.09,8,6,2.31,1.19,7.63,3.16,17,0a45.7,45.7,0,0,1-21,15.91Z"/></g><path class="cls-23" d="M23,158.76a122.89,122.89,0,0,1,57-45c38-14.5,71.17-5.17,81-2q-1.69-31,3-32,5.15-1.1,18,34c5.63-2,29.74-9.69,56,2,6.85,3,30.55,14.85,39,41,5.45,16.87,1.86,31.4-1,43a111.51,111.51,0,0,1-24,46c8.64-.73,17.65-1.71,27-3q9.81-1.37,19-3c.07-3.67.29-9.25,1-16a192.45,192.45,0,0,1,7-35c7.61-26.75,2.85-60.09,2-66-7.65-53.54-50.25-88.79-53-91C204.48-8.88,133.2-7.46,83,18.76c-13.32,7-51.27,29.27-70,74-4.65,11.11-19.15,45.74-10,83,3.43,14,10.43,29.29,11,55a151.77,151.77,0,0,1-2,28,25.94,25.94,0,0,1,11-7c14.25-4.48,26.9,6.05,28,7-2-5.06-5-13-8-23-5.13-16.9-6.33-26.15-11-45C30.1,183.21,27.18,172.16,23,158.76Z"/><path class="cls-24" d="M182.37,384c-1.2,10.34-4.45,43.1,1,102,1,11.21,2.2,21.36,1,36-1,11.82-3,20.52-9,42-11.16,39.91-15.37,49.89-21,73-4.15,17-6.61,31.08-8,40a386.08,386.08,0,0,0-4.4,51.75c-.33,14.51.31,20.56-2,31.59a104.89,104.89,0,0,1-10,27.41,19.85,19.85,0,0,1,8.79,7.12c5.3,8.2.88,17.31,5.21,19.88,3.18,1.88,6-2.78,14-2,5.43.53,6.5,2.91,10,2,4.38-1.15,3.8-5.17,9-8,5-2.71,7.41-.09,12-3,.23-.15,5.69-3.71,6-9,.27-4.68-3.69-7-8-13-3.69-5.16-5.12-9.77-8-19a104,104,0,0,1-4.63-25.52c-.24-4.88-.18-11.14,1.9-24.76A330.61,330.61,0,0,1,183.37,678c12.84-49,9.06-46.2,17-69,7.49-21.53,11.24-32.3,17-42a94.77,94.77,0,0,0,10-21,87.25,87.25,0,0,0,4-21c1.66-22.15,5.27-20.56,15-105,6-51.84,5.47-60-1-68-11.11-13.79-34.22-20.36-48-12C193.78,342.19,186.54,348,182.37,384Z"/></g></g></svg>