<svg xmlns="http://www.w3.org/2000/svg" viewBox="0 0 389.34 303.91"><defs><style>.cls-1{fill:#fbb03b;}.cls-14,.cls-2,.cls-3,.cls-4{fill:none;}.cls-2,.cls-3,.cls-4,.cls-6{stroke:#000;}.cls-11,.cls-12,.cls-13,.cls-14,.cls-2,.cls-3,.cls-4,.cls-6{stroke-miterlimit:10;}.cls-11,.cls-12,.cls-13,.cls-14,.cls-2{stroke-width:1.04px;}.cls-3{stroke-width:0.52px;}.cls-4{stroke-width:0.52px;}.cls-5,.cls-6{fill:#8c6239;}.cls-6{stroke-width:0.13px;}.cls-7{fill:#a67c52;}.cls-8{fill:#754c24;}.cls-9{fill:#1a1a1a;}.cls-10{fill:#603813;}.cls-11{fill:#42210b;}.cls-11,.cls-13,.cls-14{stroke:#fbb03b;}.cls-12{stroke:#a67c52;}.cls-13{fill:#333;}</style></defs><g id="Layer_2" data-name="Layer 2"><g id="Layer_18" data-name="Layer 18"><path class="cls-1" d="M311.27,224.13a3,3,0,0,1,.71,1.73c.2,7.88-40.74,14.9-59.86,18.18a550.11,550.11,0,0,1-65.29,8c-8.72.53-16.84.84-24.34,1-22.68.48-40.24-.35-44.37-.56C73,250.19,47.55,243.7,42.5,242.37a123.45,123.45,0,0,1-22.39-8A120.44,120.44,0,0,1,0,222.24q.59-18.06,1.16-36.12c7.11,3.19,12.94,5.59,16.75,7.11,16,6.38,31.54,13.78,47.81,19.36a20.94,20.94,0,0,1,8.43,4.79,33.15,33.15,0,0,1,4.79,6c1.08,1.83,1.43,2.91,2.74,4.26a11.4,11.4,0,0,0,4.49,2.78c5.27.61,12.71,1.4,21.64,2.11,24.32,1.91,42.11,1.77,64.85,1.55,28.83-.29,49.92-1.47,68.57-2.54,20.93-1.2,34.08-2.35,48.45-4.21C298.58,226.2,306,225,311.27,224.13Z"/><path class="cls-2" d="M11.94,121A410.27,410.27,0,0,0,77.41,74.36,411,411,0,0,0,140.74,4.9"/><path class="cls-2" d="M50.08,147.57a792.16,792.16,0,0,0,54.23-75.28c14.6-23,27-45.16,37.54-65.91"/><path class="cls-2" d="M80.62,170.31q5.46-5.22,11-11.24a237.33,237.33,0,0,0,29-39.32"/><path class="cls-2" d="M142.78,5.47a269.35,269.35,0,0,0,31.29,30.46,270.09,270.09,0,0,0,47.5,31.47"/><path class="cls-2" d="M141.28,4.28c7.14,12.9,15.44,26.61,25.09,40.81,8.42,12.4,16.86,23.7,25.07,33.92"/><path class="cls-2" d="M80.21,206.81Q88.29,200,96.42,193l9-7.74"/><path class="cls-2" d="M71.46,201.47l6.21,21.89"/><path class="cls-2" d="M28.63,184.62c-.65,2.75-1.47,5.7-2.49,8.8-1.17,3.54-2.44,6.77-3.72,9.67"/><path class="cls-2" d="M126.57,209.41l-1.74,28.52"/><path class="cls-2" d="M154.29,204.81l3.21,32.45"/><path class="cls-2" d="M100.8,235.44l3.7-22.05"/><path class="cls-2" d="M110.94,212.39l-2.19,23.85"/><path class="cls-2" d="M117.29,211.3l-1.44,24.84"/><path class="cls-2" d="M117,221.62l-13.81-1.2"/><path class="cls-2" d="M116.46,231l-15-1.1"/><path class="cls-2" d="M188.13,235.59q-3.42-17.29-6.85-34.59"/><path class="cls-2" d="M176.14,204.46q2,15.75,4,31.5"/><path class="cls-2" d="M169.9,206.46q1.59,14.5,3.17,29"/><path class="cls-2" d="M171.64,220.9l13.27-1.55"/><path class="cls-2" d="M172.21,230.33l14.29-2.21"/><path class="cls-2" d="M170.53,213.05l12.77-1.94"/><path class="cls-3" d="M114.62,136.12l1.77-11"/><path class="cls-3" d="M119.59,124.61l-1,11.88"/><path class="cls-3" d="M122.75,124l-.63,12.38"/><path class="cls-3" d="M122.65,129.19l-6.88-.55"/><path class="cls-3" d="M122.41,133.87l-7.48-.49"/><path class="cls-3" d="M169.28,135.85q-1.64-8.72-3.26-17.42"/><path class="cls-3" d="M163.77,119.14,165.3,136"/><path class="cls-3" d="M160.78,120.27q.5,7.74,1,15.47"/><path class="cls-3" d="M161.39,128.54l6.7-.2"/><path class="cls-3" d="M161.63,133.18l7.26-.08"/><path class="cls-4" d="M161.12,124.85l6.27-.25"/><path class="cls-2" d="M167.56,85.12a90,90,0,0,0,19.61,1,89.53,89.53,0,0,0,10.63-1.28"/><path class="cls-2" d="M206.44,140.55l2-16.93"/><path class="cls-2" d="M229.17,141.32q-.91-9.3-1.84-18.6"/><path class="cls-2" d="M239.77,141.14q-2.64-9-5.29-17.91"/><path class="cls-2" d="M240.57,122.92l25.37,24.37"/><path class="cls-2" d="M250.06,117.72l16.28,14.62"/><path class="cls-2" d="M255.92,108.38l16.32,13.37"/><path class="cls-2" d="M332.21,205.24l7.26,4.66"/><path class="cls-2" d="M365.51,199.6l-7.11-4"/><path class="cls-2" d="M380,186.59l9.14,5.23"/><line class="cls-2" x1="329.89" y1="195.38" x2="279.27" y2="233.36"/><line class="cls-2" x1="306.07" y1="202.33" x2="276.74" y2="232.57"/><line class="cls-2" x1="273.56" y1="232.34" x2="297.82" y2="201.88"/><line class="cls-2" x1="199.56" y1="238.07" x2="202.42" y2="199.75"/><line class="cls-2" x1="233.47" y1="194.19" x2="238.91" y2="236.38"/><path class="cls-2" d="M252.27,189.7l11,44.23q-5.18-21.26-10.37-42.51"/><path class="cls-2" d="M129.94,138.08l1.89-16.9"/><path class="cls-2" d="M148.57,138.58q-.81-8.62-1.63-17.25"/><path class="cls-5" d="M131.43,242.79l7.32.55L143.54.09,140.05,0Q135.75,121.4,131.43,242.79Z"/><path class="cls-5" d="M215.3,240.51l5.24-.21,5.29-171L222,69.24Z"/><path class="cls-5" d="M43.08,211.13l4.56.47c.36-22.58,1-64.08,1.39-86.66l0-1.77-4-.1,0,1.71Q44,168,43.08,211.13Z"/><rect class="cls-5" x="43.18" y="122.9" width="7.85" height="2.21" transform="translate(3.35 -1.22) rotate(1.54)"/><rect class="cls-5" x="43.46" y="130.69" width="6.75" height="1.11" transform="translate(3.54 -1.21) rotate(1.54)"/><rect class="cls-5" x="219.74" y="69.33" width="7.77" height="1.28" transform="translate(1.96 -5.98) rotate(1.54)"/><rect class="cls-5" x="220.2" y="76.92" width="7.03" height="0.79" transform="translate(2.16 -5.98) rotate(1.54)"/><path class="cls-6" d="M33,273.37,22.87,303.84l163.36-.12Z"/><path class="cls-7" d="M287.82,235.43a87.53,87.53,0,0,0-9.81,9.74,96.71,96.71,0,0,0-7.88,10.76c-4.05,6.34-6.49,11.53-10.23,19.56-4.6,9.86-4.79,11.52-7.8,15.61a39.32,39.32,0,0,1-9.33,9.45,35.48,35.48,0,0,1-5.9,3.35l-103.55-.42-50.54-9.24s-11.56-2.4-35.28-9c-10.55-2.92-19.22-5.54-25.13-13.35a41.27,41.27,0,0,1-5.79-10.88,141,141,0,0,1-6.06-18.73A144,144,0,0,1,7.73,227.2a186,186,0,0,0,20.39,9.35c7.65,3,25.83,9.42,71,13.43a613.12,613.12,0,0,0,61.39,2.45c24.14-.3,41.64-2,57.71-3.57,30.72-3,45.47-6.18,58-9.8C281.12,237.66,285.1,236.36,287.82,235.43Z"/><path class="cls-8" d="M311.62,225.51a2.91,2.91,0,0,1,.72,1.74c.2,7.87-40.74,14.9-59.86,18.18a554.42,554.42,0,0,1-65.29,7.95c-8.72.52-16.85.83-24.34,1-22.68.48-40.24-.35-44.37-.55-45.15-2.24-70.57-8.73-75.62-10.06a123.59,123.59,0,0,1-22.39-8A119.76,119.76,0,0,1,.36,223.62q.59-18.06,1.16-36.12c7.11,3.2,12.94,5.59,16.74,7.11,16,6.38,31.55,13.78,47.82,19.36a20.94,20.94,0,0,1,8.43,4.79,33.15,33.15,0,0,1,4.79,6c1.08,1.83,1.43,2.92,2.74,4.26a11.56,11.56,0,0,0,4.49,2.79c5.27.61,12.71,1.4,21.64,2.1,24.32,1.91,42.11,1.78,64.84,1.55,28.84-.28,49.93-1.46,68.58-2.53,20.93-1.2,34.08-2.35,48.44-4.22C298.94,227.58,306.36,226.4,311.62,225.51Z"/><path class="cls-9" d="M12.25,121.77l69.89,50.84a41.12,41.12,0,0,1,3,9.52,40.15,40.15,0,0,1,.52,11.09,39.65,39.65,0,0,1-3.64,13.17L10.2,183a51.6,51.6,0,0,0,3.26-9.62c.81-3.5,1.1-6.49,1.22-14.88.16-10.75.23-16.13-.47-23.26C13.66,129.63,12.88,125,12.25,121.77Z"/><path class="cls-9" d="M110.57,126.44a58.07,58.07,0,0,0-2.92-51.53l60.29,1.35a37.13,37.13,0,0,1-.08,43.37Z"/><path class="cls-9" d="M89.37,133.68,182,136.17a63.36,63.36,0,0,1-1.34,70L93.34,216.47a96.92,96.92,0,0,0,7.41-35.35A98.12,98.12,0,0,0,89.37,133.68Z"/><path class="cls-9" d="M189.22,136.63,256,137.88A57.28,57.28,0,0,1,262.36,161a58.43,58.43,0,0,1-8.15,32.91l-62.49,9.9a82.23,82.23,0,0,0-2.5-67.13Z"/><path class="cls-9" d="M192.64,129.45a53.8,53.8,0,0,0-3.18-52.07l63,1.69a37.71,37.71,0,0,1,7,20.39,38.09,38.09,0,0,1-7.65,24Z"/><path class="cls-9" d="M83,8.3l-.27,31.1c2.33-2,6.52-4.95,11.94-5.11,3.32-.1,6.22,1.16,11.89,3.69,12,5.35,12.94,7.14,17.22,7.77,3.61.53,9,.15,16.21-4.49A28.47,28.47,0,0,1,136.3,29a29.45,29.45,0,0,1,5-18.07,27.5,27.5,0,0,1-14.39,3.63c-13-.61-18.66-11.75-30.77-11.32C92.9,3.37,88.36,4.36,83,8.3Z"/><path class="cls-9" d="M264.74,144.19q15.66,30.5,31.31,61l39.27.85Z"/><path class="cls-9" d="M265.75,129.48l38.05,61.6,8.83,6.37,48.74-1.35Z"/><path class="cls-9" d="M266.73,116,321,181.92l4.52,6.88,57.14-1.54Z"/><path class="cls-5" d="M89.42,132.59l0,1.53,93.46,2.51h0l-.13-2.1Z"/><path class="cls-5" d="M189.28,135.54l0,1.32,67.14,1.8,0-.86Z"/><path class="cls-5" d="M12.39,122.21l.08-2.86,70.59,51.14-.28,3Z"/><path class="cls-5" d="M107.54,74.41l0,.79,60.94,1.87-.05-.9Z"/><path class="cls-5" d="M189.64,77l0,.82,62.91,1.76-.11-1.08Z"/><path class="cls-5" d="M193,129l0,1,59.42-5.63,0-1.32Z"/><path class="cls-5" d="M191.86,203.17l.25,1,62.42-8.86-.3-1.46Z"/><path class="cls-5" d="M93.44,216.5l.09,1.66,87.32-10.76-.07-1.79Z"/><path class="cls-5" d="M110.69,126l.27,1.31,57.28-6.77-.47-1.12Z"/><path class="cls-9" d="M20.71,129.44l-1.59-.05.11-5.73,1.56,1Z"/><path class="cls-9" d="M33.23,138.52l-1.59,0,.11-5.73,1.56,1Z"/><path class="cls-9" d="M57.34,155.92l-1.59,0,.11-5.74,1.56,1Z"/><path class="cls-9" d="M73,167.46l-1.58,0,.11-5.73,1.55,1Z"/><rect class="cls-9" x="113.34" y="74.25" width="1.21" height="3.83" transform="translate(2.09 -3.03) rotate(1.54)"/><rect class="cls-9" x="130.39" y="74.85" width="1.21" height="3.83" transform="translate(2.11 -3.49) rotate(1.54)"/><rect class="cls-9" x="146.89" y="75.31" width="1.21" height="3.83" transform="translate(2.13 -3.93) rotate(1.54)"/><rect class="cls-9" x="160.65" y="75.71" width="1.21" height="3.83" transform="matrix(1, 0.03, -0.03, 1, 2.14, -4.3)"/><rect class="cls-9" x="111.08" y="132.26" width="1.21" height="3.83" transform="translate(3.64 -2.95) rotate(1.54)"/><rect class="cls-9" x="128.13" y="132.76" width="1.21" height="3.83" transform="translate(3.66 -3.41) rotate(1.54)"/><rect class="cls-9" x="144.64" y="133.21" width="1.21" height="3.83" transform="translate(3.68 -3.85) rotate(1.54)"/><rect class="cls-9" x="158.39" y="133.57" width="1.21" height="3.83" transform="translate(3.69 -4.22) rotate(1.54)"/><rect class="cls-9" x="169.86" y="133.83" width="1.21" height="3.83" transform="translate(3.71 -4.53) rotate(1.54)"/><rect class="cls-9" x="95.51" y="131.84" width="1.21" height="3.83" transform="translate(3.63 -2.53) rotate(1.54)"/><rect class="cls-9" x="210.03" y="135.83" width="1.21" height="3.83" transform="translate(3.77 -5.61) rotate(1.54)"/><rect class="cls-9" x="227.08" y="136.32" width="1.21" height="3.83" transform="translate(3.79 -6.06) rotate(1.54)"/><rect class="cls-9" x="240.06" y="136.68" width="1.21" height="3.83" transform="translate(3.81 -6.41) rotate(1.54)"/><rect class="cls-9" x="252.25" y="137.04" width="1.21" height="3.83" transform="translate(3.82 -6.74) rotate(1.54)"/><rect class="cls-9" x="194.46" y="135.4" width="1.21" height="3.83" transform="translate(3.76 -5.19) rotate(1.54)"/><rect class="cls-9" x="197.96" y="76.42" width="1.21" height="3.83" transform="translate(2.17 -5.3) rotate(1.54)"/><rect class="cls-9" x="215.01" y="77.02" width="1.21" height="3.83" transform="translate(2.2 -5.76) rotate(1.54)"/><rect class="cls-9" x="231.51" y="77.48" width="1.21" height="3.83" transform="translate(2.22 -6.2) rotate(1.54)"/><rect class="cls-9" x="245.27" y="77.89" width="1.21" height="3.83" transform="translate(2.23 -6.57) rotate(1.54)"/><path class="cls-8" d="M153.15,50.75l-26-.8.45,1.7,25.1.67C152.86,51.8,153,51.27,153.15,50.75Z"/><path class="cls-8" d="M131.6,66.88l16.9.32q1.89-6.66,3.77-13.33L128,53.22Z"/><path class="cls-10" d="M127.61,51.65l.41,1.57,24.25.65c.15-.51.29-1,.44-1.55Z"/><rect class="cls-11" x="70.44" y="256.54" width="13.82" height="15.94" transform="translate(7.13 -1.98) rotate(1.54)"/><circle class="cls-12" cx="77.31" cy="264.55" r="3.32"/><rect class="cls-11" x="104.14" y="257.65" width="13.82" height="15.94" transform="translate(7.17 -2.89) rotate(1.54)"/><circle class="cls-12" cx="110.97" cy="265.65" r="3.32"/><rect class="cls-11" x="137.31" y="258.73" width="13.82" height="15.94" transform="translate(7.21 -3.78) rotate(1.54)"/><circle class="cls-12" cx="144.13" cy="266.73" r="3.32"/><rect class="cls-11" x="170.97" y="259.15" width="13.82" height="15.94" transform="translate(7.24 -4.68) rotate(1.54)"/><circle class="cls-12" cx="177.8" cy="267.15" r="3.32"/><rect class="cls-11" x="204.52" y="260.34" width="13.82" height="15.94" transform="translate(7.28 -5.58) rotate(1.54)"/><circle class="cls-12" cx="211.35" cy="268.34" r="3.32"/><path class="cls-13" d="M4.26,191.9,3,222.61c17.26,10.84,31.28,15.86,39.53,18.27s17.42,4.17,19,4.48c7.84,1.48,14.64,2.34,20,2.85a56,56,0,0,0-3.44-19.36,20.28,20.28,0,0,0-4.31-7.31,19.53,19.53,0,0,0-7.55-4.78c-17.43-6.5-34.45-14.06-51.8-20.8C12.19,195.1,8.64,193.7,4.26,191.9Z"/><line class="cls-14" x1="21.35" y1="232.69" x2="22.24" y2="199.48"/><line class="cls-14" x1="41.18" y1="240.38" x2="42.08" y2="206.85"/><line class="cls-14" x1="61.56" y1="245.54" x2="62.36" y2="215.66"/><path class="cls-14" d="M4.12,199.15A150.5,150.5,0,0,0,73.7,221.67"/><path class="cls-14" d="M3.4,207.57A166.55,166.55,0,0,0,79,231.21"/><path class="cls-14" d="M3.66,216.47A175.16,175.16,0,0,0,81.42,240"/><path class="cls-1" d="M253.82,266.61l-1.73-3.18-1.89,3.08,1.29,0a7,7,0,0,1-1.42,4.1,4.6,4.6,0,0,1-2.25,1.73,3.4,3.4,0,0,1-2.81-.19c-1-.72-1-2.2-1-3,0-3.07,0-7.17.09-12.07a2.35,2.35,0,0,0,1.73-2.2,2.36,2.36,0,1,0-4.72-.12,2.34,2.34,0,0,0,1.55,2.27c-.24,6-.43,10.48-.45,12.07a4,4,0,0,1-.53,2.08,2.77,2.77,0,0,1-1.29,1.22,3.26,3.26,0,0,1-2.79-.49,5.5,5.5,0,0,1-2.41-3.4,6.22,6.22,0,0,1-.19-2.08l1.27,0-1.73-3.18-1.89,3.09,1.27,0a8.19,8.19,0,0,0,1.18,5,15,15,0,0,0,3.67,3.51c1.49,1.08,2.38,1.4,3,2.65.29.57.42,1.1.8,1.16.55.09.9-.9,1.79-1.86,1.25-1.37,1.89-.85,4-2.41a8.68,8.68,0,0,0,2.71-2.87,8.88,8.88,0,0,0,.81-2.09,13.05,13.05,0,0,0,.47-2.9Z"/></g></g></svg>