<svg xmlns="http://www.w3.org/2000/svg" viewBox="0 0 270.21 99.43"><defs><style>.cls-1{fill:#54067f;}.cls-2{fill:#360452;}.cls-3{font-size:30px;font-family:ArialMT, Arial;letter-spacing:0.01em;}.cls-3,.cls-5{fill:#fff;}.cls-4{fill:none;stroke-width:5.63px;}.cls-4,.cls-5{stroke:#fff;stroke-miterlimit:10;}.cls-5{stroke-width:0.06px;}</style></defs><g id="Layer_2" data-name="Layer 2"><g id="Layer_1-2" data-name="Layer 1"><g id="Layer_3" data-name="Layer 3"><path class="cls-1" d="M270.21,49.69c0,27.23-22.68,49.5-50.4,49.5H50.61C22.89,99.19.21,76.92.21,49.69S22.89.19,50.61.19h169.2C247.53.19,270.21,22.47,270.21,49.69Z"/><path class="cls-2" d="M72.21,99.19c-3,.16-7.34.31-12.55.2-7.28-.16-16-.35-23.2-2.24-5.08-1.32-15.47-5-26-17.36C8,76.68-1.52,63.55.21,45.19a49,49,0,0,1,10.63-26A55.3,55.3,0,0,1,26.26,6.42,48.39,48.39,0,0,1,36.67,2.08,47.24,47.24,0,0,1,46.38.51,251.9,251.9,0,0,1,72.21.19Z"/><text class="cls-3" transform="translate(95.21 59.17)">Play again</text><path class="cls-4" d="M38.74,49.39H19.62A20.27,20.27,0,1,0,39.89,29.13"/><polygon class="cls-5" points="48.87 48.99 33.9 60.41 33.9 37.57 48.87 48.99"/></g></g></g></svg>