<svg xmlns="http://www.w3.org/2000/svg" viewBox="0 0 273.21 102.43"><defs><style>.cls-1{fill:#f5de00;}.cls-2{fill:none;}.cls-2,.cls-3{stroke:#4a1268;stroke-miterlimit:10;stroke-width:3px;}.cls-3{fill:#ccab00;}.cls-4{font-size:36px;font-family:ArialMT, Arial;letter-spacing:0.01em;}.cls-4,.cls-5{fill:#4a1268;}</style></defs><g id="Layer_2" data-name="Layer 2"><g id="Layer_1-2" data-name="Layer 1"><g id="Layer_3" data-name="Layer 3"><path class="cls-1" d="M271.71,51.19c0,27.23-22.68,49.5-50.4,49.5H52.11c-27.72,0-50.4-22.27-50.4-49.5s22.68-49.5,50.4-49.5h169.2C249,1.69,271.71,24,271.71,51.19Z"/><path class="cls-2" d="M271.71,51.19c0,27.23-22.68,49.5-50.4,49.5H52.11c-27.72,0-50.4-22.27-50.4-49.5s22.68-49.5,50.4-49.5h169.2C249,1.69,271.71,24,271.71,51.19Z"/><path class="cls-3" d="M73.71,100.69c-3,.16-7.34.31-12.55.2-7.28-.16-16-.35-23.2-2.24-5.08-1.32-15.47-5-26-17.36C9.52,78.18,0,65.05,1.71,46.69a49,49,0,0,1,10.63-26A55.3,55.3,0,0,1,27.76,7.92,48.39,48.39,0,0,1,38.17,3.58,47.24,47.24,0,0,1,47.88,2a251.9,251.9,0,0,1,25.83-.32Z"/><text class="cls-4" transform="translate(82.91 63.27)">Play game </text><polygon class="cls-5" points="60.33 51.8 31.32 29.68 31.32 73.93 60.33 51.8"/></g></g></g></svg>