<svg xmlns="http://www.w3.org/2000/svg" viewBox="0 0 463.31 277.39"><defs><style>.cls-1{fill:#26062c;}</style></defs><g id="Layer_2" data-name="Layer 2"><g id="Layer_1-2" data-name="Layer 1"><g id="Layer_2-2" data-name="Layer 2"><g id="Layer_1-2-2" data-name="Layer 1-2"><path class="cls-1" d="M84.77,238.1c0,.86.06,1.74.08,2.6-10.6-.22-24.47-.49-52.29-.79-12.36-.11-22.42-.17-29.05-.31a4.7,4.7,0,0,0-1.12,1.19c-.55,1-.37,2-.09,3.51.36,3.14.09,2.58.37,4.34a37.81,37.81,0,0,0,1.46,4.79c.93,2.77,1,3.24,1.48,4A9.67,9.67,0,0,0,8.21,260,17.42,17.42,0,0,0,12,262c2.24,1,2.87,1,3.72,2a5.94,5.94,0,0,1,1.38,2.21c.37,1,.18,1.48.09,3.69,0,1.69.08,1.5.09,4.08,0,1.39,0,2.5,0,3.33q173.46,0,346.84.11a81.27,81.27,0,0,1,1.49-9.69,23.09,23.09,0,0,1,1.38-4.61,18.1,18.1,0,0,1,2.13-4.15,9.39,9.39,0,0,1,3.14-3.22c1.1-.74,1.48-.56,3.51-1.48,1.57-.73,1.75-.92,4.05-2.11,2.68-1.38,2.68-1.2,5.26-2.59.52-.28,1.9-1.2,4.58-2.95,1-.65,2-1.38,2-2.31a2.4,2.4,0,0,0-.55-1.37c-.31-.38-.85-.74-2.88-.93s-3.14.18-3.24-.1,1.38-.93,2.86-1.47c3.88-1.57,7-2.76,7.2-2.86,8.95-3.27,4.52-1.75,5-1.93a21.57,21.57,0,0,1,3.41-1.39c.55-.08,1.31-.31,1.48-.63s0-.84-.1-1.39c-.28-.83-.63-1-.54-1.38s.54-.74,2.3-.92c1.29-.49,3.32-1.13,5.73-2,4.05-1.46,6.36-2.49,9.31-3.59,3.74-1.46,4.58-1.65,10.85-4,3.78-1.38,7.65-2.85,15.41-5.71l15.41-5.79c-.09-.37-.28-.65-.37-1-1.67.46-4.06,1.11-7,2-5.81,1.85-10,3.4-12.17,4.33-1.86.78-7.79,2.79-19.66,6.81-15.56,5.35-13.37,4.42-20.94,7.09l-5.45,2c-1.1-2.66-2-4.85-2.68-6.32-2.31-5.44-4.15-9.87-6.73-16-2-4.71-2.39-5.35-2.67-5.9a74.82,74.82,0,0,0-6.72-10.53c-8.2-11.44-7.83-11.81-11.15-15.59-2.12-2.4-1.57-1.48-6.73-7.21-4.61-5-5.35-6-9.49-10.52-4.79-5.18-9.12-9.6-9.5-10.07a98.91,98.91,0,0,1-8.8-9.84.77.77,0,0,1,0-.37,36.56,36.56,0,0,0-.45-7.85c-.1-.46-.46-1.85-.74-3.69a8.41,8.41,0,0,0-.28-1.94c-.36-1.75-.83-1.94-1.65-4.25a14,14,0,0,1-.66-2c-.38-1-.38-1.64-.93-2.19a2.45,2.45,0,0,0-1-.65c-2.21-.65-4.7-1.2-7.28-1.76a90.42,90.42,0,0,0-10-1.48c-.21-2.22-.27-4.43-.45-6.64a28.94,28.94,0,0,1,6.37-1.94,16.07,16.07,0,0,1,5.44-.46,11.11,11.11,0,0,1,5.06,1.9,5.07,5.07,0,0,1,1.57,1.49c.46.83.43,1.75,1.29,2.67a.8.8,0,0,0,.64.37,1,1,0,0,0,.47-.64,79.17,79.17,0,0,0,.39-8.06c0-3,0-4.89-.17-7.29a39.88,39.88,0,0,0-2.75-12.66c-.64-1.39-1.85-3.51-4.24-7.75a12.82,12.82,0,0,0-2.47-3.33,30.17,30.17,0,0,0-2.86-2,29.48,29.48,0,0,0-2.72-1.84c-.65-.27-1.2-.46-1.38-1-.09-.1-.1-.19.27-1.57a4.07,4.07,0,0,0,.25-1.39,3.79,3.79,0,0,1,0-1,1.14,1.14,0,0,1,.56-.64,4.88,4.88,0,0,1,2.59-1c.46-.09,2.31-.13,3,1a6.78,6.78,0,0,1,.46,2.4,7.12,7.12,0,0,1,.09,1.38c.19-.18.56-.37.92-.73a8.4,8.4,0,0,0,2.5-4.43c.19-.65.09-1.2-.08-4.43-.15-2.3-.33-4-.8-7.09-.53-3.6-.72-4.53-1.09-5.35a15.75,15.75,0,0,0-1.75-3.23c-2.12-3.49-2.67-4.05-3.59-5.71a26,26,0,0,1-2.21-5.72c0-4.53.24-9,.33-13.48a.79.79,0,0,0-.83-.36c-.27.09-.45.27-.46.36-.1,3.23-.19,8.21-.38,14.48,0,1,0,1.93-.07,2.75l-96.8,6.47c-.16-.62-.27-.94-.27-.94-2.48-7.85-1.84-9.23-4.05-12.36a21.58,21.58,0,0,0-3.31-3.7c-.55-.46-1.49-1.19-3.51-2.58s-3-2.13-3.68-2.5A16.32,16.32,0,0,0,200,14.22c0-4.36.11-8.78.1-13.11L199,0c.09,4.59.08,9.27.08,13.88l-1-.33c-1.29-.47-3.23-1.11-5.63-2a40.62,40.62,0,0,1-.29,7.06,29.29,29.29,0,0,1-1,5.72c-.73,2.58-1.1,2.67-2.3,6.45-.74,2.31-.55,2.1-1.48,5-.56,1.75-.93,2.77-1.58,4.89-.37,1.2-.64,2.31-.83,2.95a3.36,3.36,0,0,0,1.56.65c.93.09,1.39-.27,2.87-.83a32.3,32.3,0,0,1,3.5-1.1c1.12-.28,2.12-.46,2.68-.65,0,1.94.09,3.87.09,5.72a19.29,19.29,0,0,1-6.64-.47c-1.39-.36-2.87-1-4.06-.27a3.14,3.14,0,0,0-1,1.47,27.44,27.44,0,0,0-1.12,8.3,40.42,40.42,0,0,1-1.2,11.17l0,.25L91.23,95.54c0-2.58,0-5.9-.08-10.62,0-19.82-.06-29.79,0-37.64,0-6.54.12-11.89.21-15.49l-2.22-.28c.16,24,.24,43.35.24,56.73.07,20.39,0,35.79,0,46.12,0,12.82-.11,23.8-.21,32.29-11.28-17.48-22.56-34.82-33.83-52.23-.55.37-1,.75-1.57,1.11,1.93,4.06,4,8.21,5.9,12.28-.56,2.39-1.39,6.08-2.69,10.42-1.39,5-2,6-6.38,18.63-2.23,6.45-3,8.94-4.82,13.37A75.8,75.8,0,0,1,42,178.75c-1.83,3.42-3,5-8.12,11.62-5.63,7.56-4.62,6.36-9.51,12.9-7.76,10.33-7.38,9.23-8.22,10.88a21.72,21.72,0,0,1-4.71,6.18,26.83,26.83,0,0,1-2.77,2.21c2.21.49,5.44,1.05,9.5,1.76,5.17.84,6.47.94,10.89,1.58,8.13,1.21,8.14,1.77,16.05,3,6.92,1.12,6.46.67,12.74,1.77,4.88.83,7.37,1.47,11.15,1.85.65.09,2.68.27,5.44.64l3.24.57a49.41,49.41,0,0,1,6.63,1.75L0,224.3c.18.74.27,1.47.45,2.22Q42.65,232.36,84.77,238.1Zm6.45-43.61s0-1.79,0-6.47l66.7-22.85q-.16.51-.36,1.05c-1,2.86-1.75,4.61-2.86,8.21-.47,1.47-.74,2.67-1,3.41a10.4,10.4,0,0,0,2.67.28c2.41-.21,3.6-1.29,6.28-2.58a33.79,33.79,0,0,1,6.27-2.12c2.4-.64,3.14-.64,6.64-1.38,2.31-.45,3.88-.91,5.63-1.38l5.58-1.4q0,3.42,0,6.86a32.76,32.76,0,0,0-7.11,1c-.09,0-3.78.65-11.26,1.84-3.23.55-7.93,1.19-13.74,1.83a20.46,20.46,0,0,1,2.58,4.61,26.29,26.29,0,0,1,1.47,5.45c.13.71.32,1.8.68,3.35L91.17,215.12C91.24,207.68,91.24,201.23,91.22,194.49Zm104.06-56.76c-.07-.95-.1-1.91-.08-2.87,0-1.19,0-2.3,0-3.41,1.43-.06,3.33-.27,5.54-.36,1.2-.05,5.35-.23,11.35-.05,5.71.14,8.57.23,9.76.7,2.31.82,4.9,1.1,7.1,2.12a2.92,2.92,0,0,0,2.31.28,2.28,2.28,0,0,0,1-.75c1.12-1.37.29-4,0-5.25-.61-2.27-.33-2.3-.45-4.54l63.85-6.09a39.16,39.16,0,0,1-.3,4.11,18.32,18.32,0,0,1-.79,4.52c-.55,1.67-.83,1.84-1.66,4.15a34.52,34.52,0,0,0-1.2,3.69c-.65,2-.75,2.13-1.57,4.52-.74,2.21-1.11,3.28-1.39,4.24a24.21,24.21,0,0,1-1.2,3.85,17,17,0,0,1-1,1.94,12.56,12.56,0,0,0,1.94,0,15.29,15.29,0,0,0,2.76-.53c1.85-.46,2.77-.64,3.23-.73,1.2-.19,1.11-.1,3.32-.28a30.12,30.12,0,0,0,4.34-.55,19.81,19.81,0,0,0,2.4-.54c-.19,1-.48,2-.65,3-.83.09-2.13.18-3.69.27-1.11.08-1.39.17-3.78.35-3.32.28-4.24.37-4.71.37-1.32.08-2.42.17-3.07.18-.61,1.87-1.18,3.61-1.69,5.2l-50.88,3.41c-.08-1-.19-2.09-.32-3.41-.27-2.67-.09-2.39-.45-6.45,0,0-.28-2.82-1-7-.46-2.77-.74-3.69-1.56-4.24a4.65,4.65,0,0,0-3.88-.47C225.24,137.87,214.35,138.05,195.28,137.73ZM91.2,154.26c0-8.62,0-14.72,0-19.51l76.47-26.31a39.93,39.93,0,0,1-.27,4.09,43,43,0,0,1-1.95,9c-.73,2.21-1.1,2.59-3.7,8.94-.78,2-1.34,3.52-1.8,4.53-.09.92-.19,1.76-.28,2.67.48,0,1,.1,1.48.1,1.1-.27,2.76-.55,4.79-1,4.43-.92,6.64-1.38,9-1.84,4.7-.91,5.16-1,8.86-1.74,3-.65,5.35-1.11,7-1.48l.27,5.54c-3.7.36-6.6.74-8.68,1-6.79.92-10,1.56-15.55,1.84a41.68,41.68,0,0,1-5.91.36,25.63,25.63,0,0,1,1.1,8.11,36.11,36.11,0,0,1-1.57,8.12c-.34,1.17-1.14,4.26-2.52,8.34L91.26,185.44C91.27,179.2,91.28,169.33,91.2,154.26ZM192.54,89c0,2.68,0,5.36,0,8.12l-25-.31c.09,2,.27,4.89.27,8.31,0,1.27,0,2.3,0,3.21L91.34,131.77c0-8.13,0-12.42,0-21.09,0-6.57-.07-8.55-.09-14.23l.56,1.74,89.79-30.25c-.32,1.09-1.1,3.42-2.52,7.81-.21.52-1.09,3.2-2.3,6.71-1.57,4.24-2,5.34-2.68,6.36a17.91,17.91,0,0,1-3.51,4.24,3.24,3.24,0,0,0,1.39.83c2.31.92,5-.64,5.71-1.1C180,91.53,184.14,90.05,192.54,89ZM314,38.51c-.09,3.69-.23,9.13-.38,15.77a27,27,0,0,1-1,2.77c-.46,1.2-.92,2.49-1.39,3.7-.26.55-.44,1.29-.26,1.47s.56.09.84,0v.46s-.09,1.11-.1,2a13,13,0,0,1-.73,3.14,12.35,12.35,0,0,0-.19,3.69,4.67,4.67,0,0,1-.05.72l-83.78,4.92c-.08-1-.16-2-.31-3.1a44.9,44.9,0,0,0-1.83-8.58,32.75,32.75,0,0,0-7.6-12.32c-.73-.27-1.93-.55-3.31-1-3.05-.83-5-1.3-7.85-1.94-1.56-.38-3.86-.93-6.63-1.76-.11-2.13-.28-4.34-.36-6.46.64-.18,1.47-.46,2.3-.73a10.66,10.66,0,0,1,3.25-.78,5.7,5.7,0,0,1,2.3.47c1.23.47,1.23,1,2.71,1.94a27.78,27.78,0,0,0,2.85,1.52,12.06,12.06,0,0,1,2.85,1.75c.74.93.79,1.65,1.75,1.94a2.2,2.2,0,0,0,1.39,0c.82-.46.64-2.21.46-3-.27-2-.56-3.66-.84-5L314.2,31C314.12,34.06,314.05,35.88,314,38.51Zm-7.2,72.13c-.65,0-1.66.1-3,.09-2.12.14-3,.24-4.52.23-.73,0-1.94,0-3.33-.1-.08,2-.08,3.69-.18,4.9,0,.39,0,.71-.05,1l-64.06,4.35c-.14-.87-.27-1.88-.47-3.13-.45-2.68-.73-4.89-1.47-7.75a38.85,38.85,0,0,0-2.2-6.83,25,25,0,0,0-1.75-3.51l-9.32-.83c-7.1-.56-14.11-1-20.93-1.41,0-3-.1-5.9-.09-8.86,1-.27,2.4-.63,3.88-1,.91-.19,2.76-.65,5.25-1a33.4,33.4,0,0,1,5.9-.65c1.64.19,3,.83,5.7,2.22a19.18,19.18,0,0,1,5.37,3.22,38,38,0,0,1,3.87,4.15v-.09c.28.09.65-.47,1-1a104.08,104.08,0,0,0,.66-11.25c0-1.2,0-2.38,0-3.59l83.63-7.45c-.14,1.42-.57,3.62-1.27,7.25-.83,4.69-1.3,7.09-1.67,7.93a30.05,30.05,0,0,1-4,7,41,41,0,0,0-3.51,5c-.93,1.59-.75,1.59-1.95,3.72-1.94,3.48-3.23,5.05-2.77,5.61.09.17.55.08,1.47,0a25.81,25.81,0,0,0,3.05-.48c1.76-.37,1.57-.09,2.49-.37,1.12-.28,1.52-.55,2.58-.83a5.9,5.9,0,0,1,1.67-.18A32.46,32.46,0,0,0,306.75,110.64Zm5.12,131.23c-.85,0-4.15-.09-10.56-.2a33.73,33.73,0,0,0,.42-6.35,48.2,48.2,0,0,1,7.2-2.67,64.4,64.4,0,0,1,9.59-2.12c3.14-.46,6.19-.45,12.18-.54,10.24-.17,6.73.65,11.8.66a8,8,0,0,1,4,.92,13.19,13.19,0,0,1,1.85,1.48,3.43,3.43,0,0,0,.64-.37l.19-1.1a40.34,40.34,0,0,0-.29-4.11c-.28-2.67-.65-4.34-1-6.36-1-6-.82-6.09-1.85-11.81-.27-1.67-.63-3.6-1.19-6.18-.92-4.06-1.75-7.2-3.12-11.82-.56-1.8-1.21-3.87-1.84-6.08-7.76.26-13.1.17-16.7,0a37.66,37.66,0,0,0-8.94.18c-.93.09-1.94.27-5.73.92-1.66.27-3,.46-3.88.64l1.52-8.67a24.11,24.11,0,0,1,10.06-2.3,37,37,0,0,1,7.84,1,34,34,0,0,1,7.65,2.22,23.25,23.25,0,0,1,5,2.95,1.89,1.89,0,0,0,1.74-1.93c.1-1.11.2-2.67.2-4.43.09-3.69-.09-6.64-.18-8.31-.45-7.28-.83-11-3.22-13.93a9.41,9.41,0,0,0-2.49-2.3c-1.15-.75-2.77-1.57-6.78-1.86-1.57-.1-1.11,0-8.4.27a59.7,59.7,0,0,1-6.82-.09c-.8-.09-1.54-.11-2-.19.09-1.39.28-2.76.37-4.15a27.32,27.32,0,0,1,5.72-1.19c3.6-.37,5.54-.65,7.94.19a42.32,42.32,0,0,1,6,2.5,3.62,3.62,0,0,0,2.86.36,3,3,0,0,0,1.38-1.2c.18-3,.28-5.74.29-7.77,6.39,8.74,11.45,14.86,15,19a92.16,92.16,0,0,1,14,20.77A65.78,65.78,0,0,1,367.44,191a67.86,67.86,0,0,1,1.74,9.69c.19,2,.36,3.69.36,5,.47.92.92,1.74,1.38,2.66a33.58,33.58,0,0,1,6.55,3.52,55.81,55.81,0,0,1,6.64,5.63c3.5,3.32,6,6,6.72,6.74,1.5,1.83,3.3,4,5.26,6.33-6.08,2.2-14.4,5.27-24,9.06-3.42,1.39-6.28,2.49-8.21,3.32-6-.21-15.4-.4-27.12-.68C324.41,242,322,242,311.87,241.87Zm-62.61-.74c-2.29,0-4-.06-5.06-.08,0-1.69,0-5.41.21-15.19.28-12.36.58-13,.19-16.61-.45-5.25-1.56-9.77-3.67-18.63-1-4.24-2.57-10.06-4.51-16.79-8.57.73-15.49,1.09-20.28,1.18-7.75.23-20.21,1.36-26.11,1.08h-.34c.16-2.53.35-5.08.52-7.64,2-.45,3.89-.85,5.91-1.19,1.11-.17,0,0,13.37-1.73a26.14,26.14,0,0,1,7-.27,36,36,0,0,1,7.39,2.3c2.39.93,4.88,1.49,7.1,2.69a6.22,6.22,0,0,0,3.22.73,2.61,2.61,0,0,0,1.39-.37,2.7,2.7,0,0,0,1-1.93,16.87,16.87,0,0,0,0-5.26c-.08-.46-.17-1.22-.27-2.33l50.29-4.77c-.72,2.24-1.33,4.15-1.77,5.67-.84,2.51-.93,2.85-2.6,8.3-1.48,4.81-2.22,7.13-3,9.62-.65,2.12-1.3,4-1.67,5.17a3.83,3.83,0,0,0,1.57.27,7.31,7.31,0,0,0,2.59-.64,25.08,25.08,0,0,0,2.86-1.38c1-.54,1.47-.54,4.33-1.27,4.15-1,3.87-1,8-2,1.49-.37,2.68-.65,3.51-.83q-.15,3.31-.28,6.64c-.74.09-1.94.18-3.41.28-4.53.26-7.2.35-10,.54-2.31.09-5.75.35-9.88.73-.92,0-1.84.09-2.76.08.09.47.09.93.18,1.4.27.18.46.27.73.45h1.39c.73,0,1.48.08,2.21.09.45.27.92.46,1.38.74a5.13,5.13,0,0,1,.38,1.08c0,1.49,0,4.16,0,5.64,0,11.8,0,11.44,0,13.29.11,7.47.45,7.65.27,12.36,0,1.74-.19,4.69-.57,8.39-.36,2.9-.71,5.54-1.11,7.84a13.47,13.47,0,0,0,4.61.1,35.65,35.65,0,0,0,6.46-2.12,12.79,12.79,0,0,1,4.34-1.1,9.6,9.6,0,0,1,1.85.09l.22,4.51.09,1.27c-5.06-.11-10.11-.28-15.17-.37C268.79,241,265.65,241.32,249.26,241.13Zm-158.43-.34c.08-3.79.16-8.78.24-14.61.05-2.9.08-5.61.11-8.2l68.29-23.47c.52,2.27,1.28,5.48,2.37,10,2.11,8.76,2.85,9.41,2.85,13.28a55.52,55.52,0,0,1-.65,7.84c-.19,1.85-.63,4.8-1.68,10.8a8.89,8.89,0,0,1-.84,2.89,7.23,7.23,0,0,1-1.45,2c-15.34.05-30.94.07-45.5-.06C104.44,241.1,98,241,90.83,240.79Z"/><path class="cls-1" d="M368.38,148.91c-6.42-5.73-10.2-9.51-16.94-13.48-1.2-.74-2.12-1.2-2.77-1.57,1.11,1.29,2.67,3.13,4.71,5.44,10,11.18,12.62,12.09,18.8,19.58,3.5,4.25,7.74,9.32,11,16.8,2.75,6.19,4.14,9.33,4.32,11.92a17.34,17.34,0,0,0,2.3,8,8.85,8.85,0,0,0,2.11,2.49c2,1.47,4.08,1.37,5.64,1.57s4.23,1.94,9.4,5.63c4,2.78,7.56,5.36,11.52,8.4,2.21,1.67,4.06,3.06,5.25,4.07,1.28.74,1.75.74,1.93.55.92-.82-3.13-6.27-10.31-17.16-6-9.17-5.43-8.82-8.2-12.6a143.59,143.59,0,0,0-12.25-14.5q-8.14-8.91-17.15-17C373.09,152.76,374.2,154.05,368.38,148.91Z"/><path class="cls-1" d="M441.87,196.24a61.67,61.67,0,0,0,7.2,4.9c-2.22-4-5.44-10.23-9.4-17.61-4.6-8.58-6.91-12.83-7.83-14.3-4.4-7-9.58-12.74-19.72-23.92-6.64-7.29-10-11-13.45-14.3a258.08,258.08,0,0,0-23.42-19.76c-3.87-3-7.19-5.45-9.59-7.2,2.87,2.76,6.73,6.74,11.34,11.72,6.91,7.48,11.07,12.08,15.67,18.73s7,10,9,15.42c4.69,11.91,7.08,17.91,7.63,22.14a6.6,6.6,0,0,0,1.93,4.16,6.77,6.77,0,0,0,3.88,1.57c2.12.46,4.33,1.66,8.75,4.16,2.32,1.29,4.79,3.45,9.78,7.48C438.28,193.22,438.93,194.05,441.87,196.24Z"/></g></g><path class="cls-1" d="M139.28,228.54c-.47-.52-.44-.92-.9-1.93a14.08,14.08,0,0,0-1.55-2.54c-1.11-1.58-2.07-2.73-2.07-2.73a4.37,4.37,0,0,1-.89-1.46,3.94,3.94,0,0,1-.24-1.37l5.51.05a1.26,1.26,0,0,0,.18-.8,1.18,1.18,0,0,0-.33-.71l-5.36,0a11,11,0,0,0-1-.61,3.59,3.59,0,0,0-1.37-.52,2.4,2.4,0,0,0-1,.14v-1a3.64,3.64,0,0,1-.19-1.36c.05-1,.48-1.3.8-2.68.25-1.08.28-1.58,0-1.84a1.06,1.06,0,0,0-.85-.14,5.53,5.53,0,0,0-2.92,1.55,2.7,2.7,0,0,0-1.22-.23c-.84.05-1,.49-2.12,1-1.45.65-2.21.37-2.63,1.08-.18.3-.12.47-.43,1a5,5,0,0,1-.75.94c-.76.76-1.2.77-1.36,1.27a1.27,1.27,0,0,0,.07.92l1,.68a2.48,2.48,0,0,1,.88.59c.47.49.52,1,.88,2.05.12.34.31.85.59,1.47a2,2,0,0,1-.5.54c-.84.59-1.73.07-2.75.38a3,3,0,0,0-1.54,1.27l-1.26,2-1.54,2.63-1.1,1.82.05.66a11,11,0,0,0-3,5.6l-.22,3.63-.16,3.57-.82,3,.6,1.87,1.22.93h1l.83-1,.22-1.49-.52-1.57-.25-1.29-.06-2.74.72-4.24.66-2.36,2.25-3,.61-.33c.07.59.16,1.4.22,2.36,0,.37.08,1.59,0,3.85,0,.77-.07,1.46-.28,4.23-.11,1.48-.21,2.71-.27,3.57l1.1-.11a30.27,30.27,0,0,1,3.84,0c3.2.15,3.9.64,5.61.16a6.43,6.43,0,0,0,1.33-.52c-.07-1.37-.14-2.46-.18-3.15a21,21,0,0,1-.1-4.47c.2-1.38.41-1.11.61-2.59.42-3.06.43-3.86.43-3.86,0-.46,0-.9.28-1.13s1.14,0,1.79.24a6.35,6.35,0,0,1,1.31.7l.52-.65a28.32,28.32,0,0,0,4.52.56,3,3,0,0,0,1.93-.52,1.07,1.07,0,0,0,.47-.75A.87.87,0,0,0,139.28,228.54Zm-5.67-1.64v-.57l-3.56-1-1.3-.84-2.88-.46.67-1.35a5.9,5.9,0,0,0,1.93.34c.71,0,.92-.14,1-.23.34-.3.31-.79.34-1.3a6.57,6.57,0,0,1,.62-2.32,27.56,27.56,0,0,1,2.83,3.68c.45.7.84,1.38,1.19,2l.5,1.58.29.91Z"/></g></g></svg>