<svg xmlns="http://www.w3.org/2000/svg" viewBox="0 0 304.55 244.19"><defs><style>.cls-1{fill:#1d193a;}</style></defs><g id="Layer_2" data-name="Layer 2"><g id="Layer_1-2" data-name="Layer 1"><g id="Layer_2-2" data-name="Layer 2"><g id="Layer_1-2-2" data-name="Layer 1-2"><path class="cls-1" d="M.11,24.55C.35,23.27.74,23.31,1.54,21a26.64,26.64,0,0,0,.78-2.78,27,27,0,0,0,.45-5.67v-.13c.08-2.33.18-5.51,1.34-7.87.21-.44,2-3.89,5.14-4.49,1.26-.23,2.23.08,6.86,2.49,4.09,2.13,6.14,3.19,9,5,3.69,2.34,5.54,3.51,7,5,2.62,2.67,2.19,3.61,5,7,1.94,2.35,3.71,3.75,7.24,6.56,2.52,2,3.3,2.39,8.76,6.44,1.7,1.26,3.09,2.31,4,3a10.68,10.68,0,0,0,2-1c1.63-1,2.28-2.1,4-4a25.76,25.76,0,0,1,3-3,17.07,17.07,0,0,1,5-3,14.94,14.94,0,0,1,7-1,14.59,14.59,0,0,1,4,1c-.51.7-1.23,1.72-2,3a25.52,25.52,0,0,0-3,6c-.62,2.09-.41,4.06,0,8s.59,5.77,1.52,7.26c.43.69,1.27,1.82,6.48,4.74,3.75,2.1,6.8,3.46,8,4,2.43,1.08,3.09,1.25,10,4l5,2h9a4.09,4.09,0,0,0,0,3,3.74,3.74,0,0,0,.88,1.24c1.42,1.34,3.56,1.51,5.28,1.73,3.42.46,9.44,1.73,10.84,2a4.23,4.23,0,0,0,2,0,5.31,5.31,0,0,0,2.72-2.15A55.49,55.49,0,0,1,143.4,65c.66-.66,2-1.93,4.71-4.47a125.14,125.14,0,0,1,13-11c2.26-1.63,1.33-.79,11.81-7.23,7.83-4.81,10.23-6.43,10.87-5.79s-1.29,3.11-4.68,9c-3.25,5.65-2.08,4.52-8,16-2.31,4.47-3.86,7.31-5.2,11.83-1.23,4.13-1.26,6.24-.78,8.17.44,1.76,1.42,3.3,3.35,6.3s3.4,4.9,4,5.66c3,3.93,4.54,5.29,8.64,10,1.17,1.36,2.92,3.42,5,6a54.76,54.76,0,0,1-8.18-.92,59.61,59.61,0,0,1-12.82-4.08c-4.13-1.83-7.94-3.52-12-7-3.86-3.32-3.57-4.51-8-8-2.67-2.11-5.2-4.06-9-5a19.28,19.28,0,0,0-9,0l-1.27,4.72a11.06,11.06,0,0,1-4.11-1.8,8.35,8.35,0,0,0-3-1.73,6.37,6.37,0,0,0-1.57-.19,42.29,42.29,0,0,0-8,1,47.4,47.4,0,0,1-7,1v2a40.72,40.72,0,0,0-8-1h-2a12.88,12.88,0,0,0-1,2c-.69,1.73-.45,2.2-1,3-1,1.45-2.6,1-3,2s.65,1.52,2,4a33.21,33.21,0,0,1,2,5c.86,2.46,1.28,3.69,1,4-1,1-6-1.6-10-5-1.42-1.2-1.58-1.54-9-10-2.87-3.28-4.36-4.93-7-6-1.33-.54-2.29-.67-6-1-11.3-1-10.37-.56-12-1-5.21-1.43-7.39-4.17-11-3a8.7,8.7,0,0,0-2,1,19,19,0,0,0-6,6c-4.54,6.47-6.81,9.7-8.43,13.5a57.2,57.2,0,0,0-2.57,7.5,74.92,74.92,0,0,0-2,9h-2a33.31,33.31,0,0,1-3-10c-.37-2.79-.25-5.19,0-10a57,57,0,0,1,1-9.39,71.56,71.56,0,0,1,2-7.61c.32-1,.79-2.44,1.71-5.21,1.84-5.47,2.24-6.53,1.72-7.91-.35-.93-1.19-1.72-2.86-3.31-1.15-1-2.35-2-3.59-2.89a44.22,44.22,0,0,1-4.85-4A8.58,8.58,0,0,1,4,56.21a8.37,8.37,0,0,1-.49-3.14,19.16,19.16,0,0,1,.61-4.45c.62-2.87.76-2.52.9-3.71a14.47,14.47,0,0,0-.53-5.59A23,23,0,0,0,2.85,35a32,32,0,0,1-1.47-3,20.58,20.58,0,0,1-.86-3A10.44,10.44,0,0,1,.11,24.55Z"/><path class="cls-1" d="M157.61,154.66c.28-.69,1.25-.9,1.64-1,2.31-.52,4.45-1.73,6.79-2.06,5.16-.75,5-1.46,11.79-2.48a108.34,108.34,0,0,1,18.18-1,123,123,0,0,1,27.07,3.81c4,1,7.24,1.92,9.52,2.64a11.19,11.19,0,0,1,1.23-3.29,14.45,14.45,0,0,1,2.4-3,40.2,40.2,0,0,1,3.93-3.56c.89-.71,2.06-1.59,3.5-2.54.2,2.41.41,4.43.58,5.91a53.92,53.92,0,0,0,1.43,8.58c.34,1.24.68,2.24.9,2.87,3.16-.79,5.85-1.35,8-1.73,2.37-.44,4.24-.7,5.16-.83,1.56-.21,2.68-.33,3-.37.59-.06,1.81-.18,3.31-.28,1.16-.07,2.93-.18,5.12-.14a53.56,53.56,0,0,1,6.07.47,1.5,1.5,0,0,1,.75,1.47,1.47,1.47,0,0,1-.94,1.2,76.26,76.26,0,0,0-14.76,4.83c-2.1,1-3.86,1.88-5.22,2.64.61.56,1.56,1.4,2.77,2.39,2.35,1.93,3.23,2.41,5.09,3.89a55.1,55.1,0,0,1,4.83,4.46,60.59,60.59,0,0,1,4.65,5.22,55.08,55.08,0,0,1,5.28,8.23,83.79,83.79,0,0,1,4.14,9.17c.41,1,.73,1.86.95,2.45.45-.65,1.11-1.57,1.94-2.64a86.79,86.79,0,0,1,6.54-7.29,63.73,63.73,0,0,1,7.16-6.78,41.36,41.36,0,0,1,4.14-2.76,72.45,72.45,0,0,0-4.21,6.09,62.43,62.43,0,0,0-3.39,6.22A54.56,54.56,0,0,0,293,206.69a70,70,0,0,0-1.13,9.68c-.47,5.84-.5,10.51-.51,13,0,2.78.05,4.84.07,5.34.11,3.8.34,7,.56,9.48-.46-1.05-1.14-2.64-1.94-4.58-1.87-4.51-2.83-6.84-3.84-10.05-.25-.8-1.08-3.51-1.88-7.1-.74-3.33-1.2-5.54-1.32-6.22-.29-1.64-.5-3-.65-4.11-.27-.49-.65-1.16-1.17-1.92a22.14,22.14,0,0,0-5-5.4c-2.06-1.49-3.51-2-9.36-4-9.78-3.42-9.56-3.38-10.74-3.71A104.53,104.53,0,0,0,245,194.76c-1.66-.29-5.38-.92-10.2-1.5-3-.35-5.6-.59-7.69-.76-.75.34-1.81.84-3,1.52a32.71,32.71,0,0,0-8,5.86,34,34,0,0,0-4.49,5.93,23.43,23.43,0,0,0-3,5.71s-.13.4-1.14,4.18a1.33,1.33,0,0,1-.55.35.67.67,0,0,1-.66-.15.65.65,0,0,1-.08-.51,3.66,3.66,0,0,0-.5-1.79,30.72,30.72,0,0,1-1-5.21,40.51,40.51,0,0,1-.19-7.55,39.79,39.79,0,0,1,.89-6.23c.34-1.42.71-2.61,1-3.51a41.15,41.15,0,0,1-7.09-1.71,61.1,61.1,0,0,1-7.43-3.23c-2.92-1.38-5.64-2.67-9.5-4.67-2.42-1.25-5.43-2.85-8.87-4.79l-.63-.95.78-.15-.65-.77a.75.75,0,0,0,.83-.22.65.65,0,0,0,.11-.45,1,1,0,0,0-.84-.72l1.42-.16.21-.35-.26-.65.11-.18.79.1.71-.7-.09-1,.77.54.44-.33-.3-.87.9.4a.62.62,0,0,0,0-.33c-.11-.28-.48-.37-.65-.41a38.93,38.93,0,0,0-5.35-.95l-1.92-.15,0,.66-.85-.86h-1.74c-1.21-1.12-2.17-2-2.79-2.54a13.07,13.07,0,0,1-2.25-2.27c-.46-.64-.4-.71-1.12-1.81-.87-1.32-1-1.28-1.63-2.27a20.37,20.37,0,0,1-1.35-2.78C157.55,155.34,157.48,155,157.61,154.66Z"/></g></g></g></g></svg>