<svg xmlns="http://www.w3.org/2000/svg" xmlns:xlink="http://www.w3.org/1999/xlink" viewBox="0 0 304.57 244.19"><defs><style>.cls-1{fill:#999;}.cls-2{fill:url(#linear-gradient);}.cls-3{fill:#1a1a1a;}.cls-4{fill:url(#linear-gradient-2);}.cls-5{fill:url(#linear-gradient-3);}.cls-6{fill:#ff8590;}.cls-7{fill:url(#linear-gradient-4);}.cls-8{fill:url(#linear-gradient-5);}.cls-9{fill:url(#linear-gradient-6);}.cls-10{fill:url(#linear-gradient-7);}.cls-11{fill:url(#linear-gradient-8);}.cls-12{fill:url(#linear-gradient-9);}.cls-13{fill:url(#linear-gradient-10);}.cls-14{fill:url(#linear-gradient-11);}.cls-15{fill:url(#linear-gradient-12);}.cls-16{fill:url(#linear-gradient-13);}.cls-17{fill:url(#linear-gradient-14);}.cls-18{fill:url(#linear-gradient-15);}.cls-19{fill:#ff87a8;}.cls-20{fill:url(#linear-gradient-16);}.cls-21{fill:url(#linear-gradient-17);}.cls-22{fill:url(#linear-gradient-18);}.cls-23{fill:url(#linear-gradient-19);}.cls-24{fill:url(#linear-gradient-20);}.cls-25{fill:gray;}.cls-26{fill:#e6e6e6;opacity:0.64;}</style><linearGradient id="linear-gradient" y1="63.39" x2="141.7" y2="63.39" gradientUnits="userSpaceOnUse"><stop offset="0.15" stop-color="#e6e6e6"/><stop offset="0.33" stop-color="#e2e3e4"/><stop offset="0.51" stop-color="#d7d9dd"/><stop offset="0.69" stop-color="#c3c9d1"/><stop offset="0.86" stop-color="#a8b2c1"/><stop offset="0.95" stop-color="#97a4b7"/></linearGradient><linearGradient id="linear-gradient-2" x1="0.04" y1="36.68" x2="26.12" y2="36.68" gradientUnits="userSpaceOnUse"><stop offset="0" stop-color="#6a0005"/><stop offset="0.73" stop-color="#551700"/></linearGradient><linearGradient id="linear-gradient-3" x1="16.65" y1="25.88" x2="19.81" y2="25.88" gradientTransform="matrix(0.39, 0.24, -0.32, 0.52, 14.3, 9.19)" gradientUnits="userSpaceOnUse"><stop offset="0.08" stop-color="#fff"/><stop offset="0.32" stop-color="#fcfcfd"/><stop offset="0.49" stop-color="#f3f4f7"/><stop offset="0.64" stop-color="#e3e7ec"/><stop offset="0.78" stop-color="#cdd3dc"/><stop offset="0.91" stop-color="#b1bbc9"/><stop offset="1" stop-color="#97a4b7"/></linearGradient><linearGradient id="linear-gradient-4" x1="8.05" y1="24.89" x2="4.55" y2="15.16" gradientUnits="userSpaceOnUse"><stop offset="0" stop-color="#e86f88"/><stop offset="0.4" stop-color="#ff87a8"/><stop offset="0.86" stop-color="#ff87a8"/></linearGradient><linearGradient id="linear-gradient-5" x1="3.01" y1="23.86" x2="6.17" y2="23.86" gradientTransform="matrix(1, 0, 0, 1, 0, 0)" xlink:href="#linear-gradient-3"/><linearGradient id="linear-gradient-6" x1="6.74" y1="24.42" x2="9.9" y2="24.42" gradientTransform="translate(13.96 -1.21) rotate(31.26)" xlink:href="#linear-gradient-3"/><linearGradient id="linear-gradient-7" x1="10.54" y1="24.15" x2="13.71" y2="24.15" xlink:href="#linear-gradient-3"/><linearGradient id="linear-gradient-8" x1="-7.15" y1="32.55" x2="-3.99" y2="32.55" gradientTransform="matrix(0.62, -0.05, 0.06, 0.72, 2.99, 1.53)" xlink:href="#linear-gradient-3"/><linearGradient id="linear-gradient-9" x1="14.14" y1="25.23" x2="17.3" y2="25.23" gradientTransform="matrix(0.54, 0.46, -0.65, 0.76, 22.48, 2.38)" xlink:href="#linear-gradient-3"/><linearGradient id="linear-gradient-10" x1="-4.44" y1="38.98" x2="-1.28" y2="38.98" gradientTransform="matrix(0.46, -0.01, 0.02, 0.61, 1.56, 4.86)" xlink:href="#linear-gradient-3"/><linearGradient id="linear-gradient-11" x1="17.64" y1="26.79" x2="20.8" y2="26.79" gradientTransform="matrix(0.6, 0.51, -0.51, 0.6, 17.96, 5.33)" xlink:href="#linear-gradient-3"/><linearGradient id="linear-gradient-12" x1="21.35" y1="27.88" x2="24.51" y2="27.88" gradientTransform="matrix(0.6, 0.51, -0.51, 0.6, 17.96, 5.33)" xlink:href="#linear-gradient-3"/><linearGradient id="linear-gradient-13" x1="25.43" y1="28.8" x2="28.93" y2="28.8" gradientTransform="matrix(0.59, 0.52, -0.52, 0.59, 18.67, 5.3)" xlink:href="#linear-gradient-3"/><linearGradient id="linear-gradient-14" x1="10.57" y1="24.53" x2="13.73" y2="24.53" gradientTransform="matrix(0.6, 0.51, -0.51, 0.6, 17.96, 5.33)" xlink:href="#linear-gradient-3"/><linearGradient id="linear-gradient-15" x1="-2.5" y1="43.58" x2="0.66" y2="43.58" gradientTransform="matrix(0.34, -0.09, 0.15, 0.59, -4.64, 5.61)" xlink:href="#linear-gradient-3"/><linearGradient id="linear-gradient-16" x1="20.86" y1="28.28" x2="24.02" y2="28.28" gradientTransform="matrix(0.77, 0.16, 0.16, -0.77, -15.63, 68.77)" xlink:href="#linear-gradient-3"/><linearGradient id="linear-gradient-17" x1="55.48" y1="43.09" x2="58.64" y2="43.09" gradientTransform="matrix(-0.31, 0.34, -0.44, -0.41, 40.48, 49.3)" xlink:href="#linear-gradient-3"/><linearGradient id="linear-gradient-18" x1="37.49" y1="36.57" x2="40.65" y2="36.57" gradientTransform="matrix(0.43, 0.17, 0.22, -0.56, -12.63, 64.3)" xlink:href="#linear-gradient-3"/><linearGradient id="linear-gradient-19" x1="32.75" y1="37.43" x2="35.82" y2="37.43" gradientTransform="matrix(0.56, 0.56, 0.56, -0.56, -30.81, 51.87)" xlink:href="#linear-gradient-3"/><linearGradient id="linear-gradient-20" x1="40.28" y1="43.34" x2="41.81" y2="43.34" gradientTransform="matrix(0.56, 0.56, 0.56, -0.56, -30.81, 51.87)" xlink:href="#linear-gradient-3"/></defs><g id="Layer_2" data-name="Layer 2"><g id="Layer_1-2" data-name="Layer 1"><path class="cls-1" d="M.14,24.55C.38,23.27.77,23.31,1.58,21c0,0,.45-1.33.77-2.78a26,26,0,0,0,.45-5.67v-.13c.08-2.33.18-5.51,1.34-7.87.21-.44,2-3.89,5.15-4.49,1.25-.23,2.23.08,6.85,2.49,4.09,2.13,6.15,3.19,9,5,3.69,2.34,5.54,3.51,7,5,2.62,2.67,2.2,3.61,5,7,2,2.35,3.71,3.75,7.24,6.56,2.52,2,3.3,2.39,8.76,6.44,1.7,1.26,3.09,2.31,4,3a11.07,11.07,0,0,0,2-1c1.63-1,2.28-2.1,4-4a25.72,25.72,0,0,1,3-3,17,17,0,0,1,5-3,15,15,0,0,1,7-1,14.17,14.17,0,0,1,4,1c-.51.7-1.22,1.72-2,3a25.69,25.69,0,0,0-3,6c-.61,2.09-.4,4.06,0,8s.59,5.77,1.52,7.26c.43.69,1.28,1.82,6.48,4.74,3.75,2.1,6.8,3.46,8,4,2.43,1.08,3.09,1.25,10,4l5,2h9a4.12,4.12,0,0,0,0,3,3.85,3.85,0,0,0,.89,1.24c1.41,1.34,3.55,1.51,5.27,1.73,3.43.46,9.44,1.73,10.84,2a4.32,4.32,0,0,0,2,0,5.27,5.27,0,0,0,2.72-2.15A57.33,57.33,0,0,1,143.43,65c.66-.66,2-1.93,4.71-4.47a123.9,123.9,0,0,1,13-11c2.27-1.63,1.33-.79,11.81-7.23,7.83-4.81,10.23-6.43,10.87-5.79s-1.29,3.11-4.68,9c-3.24,5.65-2.08,4.52-8,16-2.31,4.47-3.86,7.31-5.2,11.83-1.22,4.13-1.25,6.24-.77,8.17.44,1.76,1.41,3.3,3.34,6.3s3.4,4.9,4,5.66c3,3.93,4.54,5.29,8.64,10,1.18,1.36,2.92,3.42,5,6a55.15,55.15,0,0,1-8.17-.92,59.89,59.89,0,0,1-12.83-4.08c-4.13-1.83-7.94-3.52-12-7-3.86-3.32-3.57-4.51-8-8-2.67-2.11-5.19-4.06-9-5a19.08,19.08,0,0,0-9,0l-1.27,4.72a11.2,11.2,0,0,1-4.1-1.8,8.29,8.29,0,0,0-3.06-1.73,6.26,6.26,0,0,0-1.57-.19,41.92,41.92,0,0,0-8,1,47.79,47.79,0,0,1-7,1v2a40.16,40.16,0,0,0-8-1c-.68,0-1.35,0-2,0a13,13,0,0,0-1,2c-.69,1.73-.44,2.2-1,3-1,1.45-2.6,1-3,2-.34.87.66,1.52,2,4a33.18,33.18,0,0,1,2,5c.86,2.46,1.29,3.69,1,4-1,1-6-1.6-10-5-1.41-1.2-1.57-1.54-9-10-2.87-3.28-4.36-4.93-7-6-1.33-.54-2.28-.67-6-1-11.3-1-10.37-.56-12-1-5.21-1.43-7.39-4.17-11-3a8.65,8.65,0,0,0-2,1,19,19,0,0,0-6,6c-4.54,6.47-6.81,9.7-8.43,13.5a59.62,59.62,0,0,0-2.57,7.5,77.21,77.21,0,0,0-2,9h-2a33.58,33.58,0,0,1-3-10c-.37-2.79-.25-5.19,0-10a59.65,59.65,0,0,1,1-9.39,74.74,74.74,0,0,1,2-7.61c.33-1,.79-2.44,1.72-5.21,1.83-5.47,2.23-6.53,1.71-7.91-.35-.93-1.19-1.72-2.86-3.31a42.84,42.84,0,0,0-3.59-2.89,46.73,46.73,0,0,1-4.85-4A8.58,8.58,0,0,1,4,56.21a8.52,8.52,0,0,1-.49-3.14,18.82,18.82,0,0,1,.62-4.45c.61-2.87.75-2.52.89-3.71a14.44,14.44,0,0,0-.53-5.59A23,23,0,0,0,2.88,35c-.6-1.25-.95-1.72-1.47-3.06A21.1,21.1,0,0,1,.56,29C.11,27-.12,25.88.14,24.55Z"/><path class="cls-1" d="M157.65,154.66c.27-.69,1.24-.9,1.64-1,2.3-.52,4.44-1.73,6.78-2.06,5.17-.75,5-1.46,11.79-2.48a108.11,108.11,0,0,1,18.19-1,122.48,122.48,0,0,1,27.06,3.81c4,1,7.24,1.92,9.52,2.64a11.48,11.48,0,0,1,1.23-3.29,14.32,14.32,0,0,1,2.4-3,39.16,39.16,0,0,1,3.93-3.56c.89-.71,2.06-1.59,3.51-2.54.19,2.41.4,4.43.57,5.91a55.23,55.23,0,0,0,1.44,8.58c.33,1.24.67,2.24.9,2.87,3.15-.79,5.85-1.35,7.95-1.73,2.37-.44,4.24-.7,5.16-.83,1.56-.21,2.68-.33,3-.37.58-.06,1.81-.18,3.3-.28,1.16-.07,2.93-.18,5.12-.14a52,52,0,0,1,6.07.47,1.48,1.48,0,0,1,.75,1.47,1.46,1.46,0,0,1-.94,1.2,75.74,75.74,0,0,0-7.6,2.07,73.89,73.89,0,0,0-7.16,2.76c-2.1,1-3.85,1.88-5.21,2.64.61.56,1.56,1.4,2.76,2.39,2.35,1.93,3.24,2.41,5.09,3.89a56,56,0,0,1,4.84,4.46,60.53,60.53,0,0,1,4.64,5.22,53.87,53.87,0,0,1,5.28,8.23,83.42,83.42,0,0,1,4.15,9.17c.4,1,.72,1.86.94,2.45.45-.65,1.11-1.57,2-2.64a82.32,82.32,0,0,1,6.53-7.29,63.61,63.61,0,0,1,7.16-6.78,41.08,41.08,0,0,1,4.15-2.76,66.55,66.55,0,0,0-4.21,6.09,57.87,57.87,0,0,0-3.39,6.22,55.11,55.11,0,0,0-3.9,11.24,71,71,0,0,0-1.13,9.68c-.47,5.84-.49,10.51-.5,13,0,2.78.05,4.84.06,5.34.11,3.8.34,7,.57,9.48-.47-1.05-1.15-2.64-1.95-4.58-1.86-4.51-2.83-6.84-3.83-10.05-.25-.8-1.09-3.51-1.89-7.1-.74-3.33-1.2-5.54-1.32-6.22-.29-1.64-.5-3-.65-4.11a20.38,20.38,0,0,0-1.17-1.92,22.24,22.24,0,0,0-5-5.4c-2.07-1.49-3.52-2-9.36-4-9.79-3.42-9.57-3.38-10.75-3.71A104.86,104.86,0,0,0,245,194.76c-1.67-.29-5.38-.92-10.21-1.5-3-.35-5.59-.59-7.68-.76-.76.34-1.82.84-3,1.52a30.08,30.08,0,0,0-12.47,11.79,23,23,0,0,0-3,5.71s-.13.4-1.14,4.18a1.33,1.33,0,0,1-.55.35.68.68,0,0,1-.66-.15.65.65,0,0,1-.07-.51,3.71,3.71,0,0,0-.51-1.79,32.23,32.23,0,0,1-1-5.21,40.59,40.59,0,0,1-.2-7.55,39.79,39.79,0,0,1,.9-6.23,35.33,35.33,0,0,1,1-3.51,41.65,41.65,0,0,1-7.08-1.71,62.83,62.83,0,0,1-7.44-3.23c-2.91-1.38-5.63-2.67-9.5-4.67-2.42-1.25-5.43-2.85-8.87-4.79l-.63-.95.79-.15-.65-.77a.74.74,0,0,0,.82-.22.68.68,0,0,0,.12-.45,1,1,0,0,0-.84-.72l1.41-.16.21-.35-.26-.65.11-.18.79.1.71-.7-.09-1,.78.54.43-.33-.3-.87.9.4a.54.54,0,0,0,0-.33c-.11-.28-.48-.37-.65-.41a38.11,38.11,0,0,0-5.34-.95l-1.93-.15,0,.66-.85-.86h-1.73c-1.22-1.12-2.18-2-2.8-2.54a13.74,13.74,0,0,1-2.25-2.27c-.46-.64-.4-.71-1.12-1.81-.87-1.32-1-1.28-1.62-2.27a18.64,18.64,0,0,1-1.35-2.78C157.59,155.34,157.51,155,157.65,154.66Z"/><path class="cls-2" d="M141.42,80.05c-1.25-1.57-6.1,1-10.64,2.2s-5.31-.6-20.36-1.46c-8.22-.48-14.5-.69-22.38-3.49-8.19-2.91-9.71-5.62-10.1-7.34-.51-2.3.61-4.65-.91-6.24-1.21-1.25-3.21-1.13-3.86-1.1-1.41.07-7.24-1.24-18.89-3.85C42.35,56.1,34.85,42.3,31.53,36.2c-4.17-7.66-5-13.6-12.29-22.75-.6-.75-5.44-6.85-6.43-6.23-.6.37.46,3.15,1.47,5.5a15.66,15.66,0,0,0-2.75-.37,15.54,15.54,0,0,0-6.24,1.1,17.61,17.61,0,0,0-2.58,1.26,17.3,17.3,0,0,1-.41,3.58c-.32,1.46-.77,2.78-.77,2.78-.09.25-.22.62-.4,1.05l-.22.49c-.34.74-.48.88-.64,1.33a3.87,3.87,0,0,0-.18.68,7.67,7.67,0,0,0,.1,2.93c0,.15.12.71.32,1.55A21.26,21.26,0,0,0,1.36,32,33.3,33.3,0,0,0,2.83,35.1a23,23,0,0,1,1.59,4.29A14.44,14.44,0,0,1,5,45c-.14,1.19-.28.84-.89,3.71a18.82,18.82,0,0,0-.62,4.45,8.52,8.52,0,0,0,.49,3.14,8.58,8.58,0,0,0,2.29,3.06,46.73,46.73,0,0,0,4.85,4,42.84,42.84,0,0,1,3.59,2.89c1.67,1.59,2.51,2.38,2.86,3.31.52,1.38.12,2.44-1.71,7.91-.93,2.77-1.39,4.16-1.72,5.21a74.74,74.74,0,0,0-2,7.61,59.65,59.65,0,0,0-1,9.39c-.25,4.81-.37,7.21,0,10a33.58,33.58,0,0,0,3,10h2a77.21,77.21,0,0,1,2-9,59.62,59.62,0,0,1,2.57-7.5c1.62-3.8,3.89-7,8.43-13.5a19,19,0,0,1,6-6,8.65,8.65,0,0,1,2-1c3.61-1.17,5.79,1.57,11,3,1.63.44.7,0,12,1,3.71.33,4.67.46,6,1,2.64,1.07,4.13,2.73,7,6,7.43,8.46,7.59,8.8,9,10,4,3.4,9,6,10,5,.29-.31-.14-1.54-1-4a33.63,33.63,0,0,0-2-5c-1.34-2.48-2.34-3.13-2-4,.4-1,2-.55,3-2,.56-.8.31-1.27,1-3a13,13,0,0,1,1-2c.65,0,1.32,0,2,0a40.16,40.16,0,0,1,8,1v-2a47.79,47.79,0,0,0,7-1,41.92,41.92,0,0,1,8-1,6.26,6.26,0,0,1,1.57.19,8.43,8.43,0,0,1,3.06,1.73,11.2,11.2,0,0,0,4.1,1.8l1.27-4.72a19.08,19.08,0,0,1,9,0A17,17,0,0,1,139.83,86c.48-1,.95-2.09,1.41-3.23C141.53,82.08,142,80.79,141.42,80.05Z"/><ellipse class="cls-3" cx="27.7" cy="16.87" rx="1.86" ry="2.41"/><path class="cls-4" d="M.74,29.42A6.32,6.32,0,0,1,.61,24a6.09,6.09,0,0,1,3.5-2.88c3.6-1.31,7.17.79,7.79,1.15,2.51,1.48,4.25,4.74,7.63,11.21,1.29,2.47,2.32,4.62,3.28,6.66,1.42,3,2.54,5.48,3.31,7.24A19.43,19.43,0,0,1,16.18,52c-3.59.5-4.1-.56-8-.08-2.52.3-3.74,1.17-4.46.48-.44-.42-.25-1.54.18-3.78.37-2,.55-2,.74-3.35a15,15,0,0,0,0-4.46,15.89,15.89,0,0,0-.74-2.88C3.35,36.21,2.1,33.38,2,33.08s-.17-.43-.17-.43h0C1.32,31.32,1,30.21.74,29.42Z"/><path class="cls-5" d="M13,26.12a1.07,1.07,0,0,1,.84-.22.8.8,0,0,1,.53.79l-2.24.95Z"/><path class="cls-6" d="M2.79,31.89a12.58,12.58,0,0,1-.73-3.21c-.11-1.38-.22-2.74.55-3.86,1.3-1.88,4.16-1.76,4.68-1.74a8.11,8.11,0,0,1,4.83,2.05c1.1.9,1.23,1.37,4.81,7.29a27.24,27.24,0,0,0,3.34,4.77,22.91,22.91,0,0,0,2.36,2.27C21,36.2,19.7,33.7,19,32.31c-2.81-5.57-3.85-7.73-6.38-9.57a10.44,10.44,0,0,0-3.94-1.81,8.12,8.12,0,0,0-5,.31A5.89,5.89,0,0,0,.87,23.43a6.27,6.27,0,0,0-.82,3.76,11.14,11.14,0,0,0,1,4.13A29.8,29.8,0,0,0,2.37,34a35.23,35.23,0,0,1,1.87,4.57A30.67,30.67,0,0,0,2.79,31.89Z"/><path class="cls-7" d="M2.79,31.89a12.58,12.58,0,0,1-.73-3.21c-.11-1.38-.22-2.74.55-3.86,1.3-1.88,4.16-1.76,4.68-1.74a8.11,8.11,0,0,1,4.83,2.05c1.1.9,1.23,1.37,4.81,7.29a27.24,27.24,0,0,0,3.34,4.77,22.91,22.91,0,0,0,2.36,2.27C21,36.2,19.7,33.7,19,32.31c-2.81-5.57-3.85-7.73-6.38-9.57a10.44,10.44,0,0,0-3.94-1.81,8.12,8.12,0,0,0-5,.31A5.89,5.89,0,0,0,.87,23.43a6.27,6.27,0,0,0-.82,3.76,11.14,11.14,0,0,0,1,4.13A29.8,29.8,0,0,0,2.37,34a35.23,35.23,0,0,1,1.87,4.57A30.67,30.67,0,0,0,2.79,31.89Z"/><path class="cls-8" d="M3,23a2,2,0,0,1,1.3-1,1.91,1.91,0,0,1,1.86.65L3.1,25.83Z"/><path class="cls-9" d="M7.52,22.38a2,2,0,0,1,1.65-.2,2,2,0,0,1,1.25,1.52L6.11,24.89Z"/><path class="cls-10" d="M11.14,23.77a1,1,0,0,1,.83-.22.78.78,0,0,1,.53.78l-2.24,1Z"/><path class="cls-11" d="M.57,24.85A1.3,1.3,0,0,1,1.31,24a1.11,1.11,0,0,1,1.19.38L.81,26.93Z"/><path class="cls-12" d="M14.4,27.4a1.66,1.66,0,0,1,1.36-.19,1.18,1.18,0,0,1,.59,1.34l-3.76,1.09Z"/><path class="cls-13" d="M.21,28a1.07,1.07,0,0,1,.58-.64.8.8,0,0,1,.87.37l-1.35,2Z"/><path class="cls-14" d="M15.41,29.92a1.58,1.58,0,0,1,1.3,0,1.51,1.51,0,0,1,.79,1.34l-3.51.4Z"/><path class="cls-15" d="M17.08,32.48a1.49,1.49,0,0,1,2.1,1.39,5.4,5.4,0,0,1-3.51.39Z"/><path class="cls-16" d="M19.12,35.09c.79-.22,1.13-.09,1.3.07a1.7,1.7,0,0,1,.33.61,7.49,7.49,0,0,0,.54,1l-2.44.49a1.76,1.76,0,0,0-.57-.34,1.66,1.66,0,0,0-.62-.12Z"/><path class="cls-17" d="M12.29,25A1.6,1.6,0,0,1,13.6,25a1.53,1.53,0,0,1,.79,1.34l-3.51.4Z"/><path class="cls-18" d="M1.09,30.89a1,1,0,0,1,.28-.72c.21-.14.49-.06.73.22l-.53,2.19Z"/><path class="cls-19" d="M3.89,49a2.11,2.11,0,0,0,.56,1.77l0,0c.16.11.57.26,2,.14a17.2,17.2,0,0,0,2.55-.37c2.27-.49,2.65.41,6.1.33A28.35,28.35,0,0,0,19,50.44c1-.16,2.31-.4,3.86-.77a15.76,15.76,0,0,1-2.72,1.4,15.72,15.72,0,0,1-4.05,1,21,21,0,0,1-2.76.12c-3.08,0-2.91-.47-4.33-.28-1.79.24-3.28,1.12-4.63.79a1.3,1.3,0,0,1-.72-.42c-.15-.19-.26-.5-.11-1.53A10.78,10.78,0,0,1,3.89,49Z"/><path class="cls-20" d="M4.86,50.91a1.53,1.53,0,0,0,.84,1,1.51,1.51,0,0,0,1.54-.21l-1.85-3Z"/><path class="cls-21" d="M4.32,50.61a1,1,0,0,1,0,.86.79.79,0,0,1-.87.36L3,49.45Z"/><path class="cls-22" d="M11.41,50.55a1.06,1.06,0,0,0,.32.8.79.79,0,0,0,.95-.05l-.59-2.36Z"/><path class="cls-23" d="M7.89,51a1.52,1.52,0,0,0,.52.45,1.56,1.56,0,0,0,1,.12,5.67,5.67,0,0,0,.34-2.17A5.25,5.25,0,0,0,9.53,48Z"/><path class="cls-24" d="M15.07,50.9l.36.06a2.44,2.44,0,0,0,1,0A2,2,0,0,0,17,50.7l-.25-1.36a4.06,4.06,0,0,1-.82,1A4.26,4.26,0,0,1,15.07,50.9Z"/><path class="cls-25" d="M81.83,51.62c-2.44-1.57-3-2.34-3.31-2.85-.93-1.49-1.13-3.41-1.52-7.27s-.62-5.9,0-8a25.89,25.89,0,0,1,3-6c.77-1.27,1.48-2.29,2-3a14.89,14.89,0,0,0-4-1,15.06,15.06,0,0,0-7,1,17.4,17.4,0,0,0-5,3,26.53,26.53,0,0,0-3,3c-1.72,1.91-2.37,3-4,4a9.59,9.59,0,0,1-1.63.85c1,1.66,3,2.25,9.12,6C76.24,47.25,79.54,50.77,81.83,51.62Z"/><path class="cls-26" d="M160.59,160.06c.47-1.38,3.4-1.65,5.21-1.48,2,.18,3.47,1,5.95,2.42,2.05,1.16,2.25,1.53,3.8,2.41a25,25,0,0,0,6.62,2.42c3.79,1.06,3.63,1.67,11.16,5.21,2.69,1.27,5.39,2.33,10.79,4.47,2.53,1,7.81,3.08,11.35,4.28,8.23,2.77,12.17,2.48,21.4,4.09a131.14,131.14,0,0,1,24.93,6.88c8.42,3.29,16.42,7.56,20.65,15.26.27.49,1.54,3,.93,3.53s-3.62-2.48-7.44-5c-3.16-2.1-6.12-3.1-11.91-5a140.74,140.74,0,0,0-26.79-6c-5.93-.75-8.9-1.13-10.61-.74-11.91,2.72-16.12,17.67-19.72,16.37-2.72-1-1.92-10.12-1.86-10.79a24.79,24.79,0,0,1,1.86-7.44,44.8,44.8,0,0,1-5.58-1.12c-4-1.07-5.06-2-11.53-4.83-2.83-1.26-5.79-2.7-11.72-5.59-1.93-.93-4.38-2.15-4.28-3.53.07-.93,1.08-1.36,3-3.35a23.82,23.82,0,0,0,2.42-3,31.35,31.35,0,0,0-4.28-.93c-1-.14-2-.22-3.9-.37-3.62-.28-3.58-.18-4.1-.37-1.38-.51-2.28-1.65-4.09-3.91C161.15,161.89,160.33,160.83,160.59,160.06Z"/><path class="cls-3" d="M181,160.75a1.59,1.59,0,0,1-1.18-.55,1.5,1.5,0,0,1-.37-1.18,1.54,1.54,0,0,1,1.52-1.28h0a1.56,1.56,0,0,1,1.58,1.28,1.51,1.51,0,0,1-.38,1.18A1.55,1.55,0,0,1,181,160.75Z"/><path d="M181,157.64v.19a1.46,1.46,0,0,1,1.45,1.21,1.36,1.36,0,0,1-.35,1.09,1.48,1.48,0,0,1-1.1.52,1.44,1.44,0,0,1-1.1-.52,1.37,1.37,0,0,1-.36-1.09,1.47,1.47,0,0,1,1.43-1.21l0-.19m0,0h0a1.6,1.6,0,1,0,1.67,1.37,1.65,1.65,0,0,0-1.67-1.37Z"/></g></g></svg>