<svg xmlns="http://www.w3.org/2000/svg" viewBox="0 0 270.21 99.43"><defs><style>.cls-1{fill:#fff;}.cls-1,.cls-2{stroke:#fff;}.cls-1,.cls-2,.cls-7,.cls-8{stroke-miterlimit:10;}.cls-1,.cls-7{stroke-width:0.09px;}.cls-2{fill:none;}.cls-2,.cls-8{stroke-width:4.25px;}.cls-3{fill:#f5de00;}.cls-4{fill:#ccab00;}.cls-5{font-size:46px;font-family:ArialMT, Arial;letter-spacing:0.01em;}.cls-5,.cls-7,.cls-8{fill:#4a1268;}.cls-6{font-size:36px;letter-spacing:0.01em;}.cls-7,.cls-8{stroke:#4a1268;}</style></defs><g id="Layer_2" data-name="Layer 2"><g id="Layer_1-2" data-name="Layer 1"><g id="Layer_2-2" data-name="Layer 2"><polygon class="cls-1" points="41.7 49.55 20.15 65.98 20.15 33.12 41.7 49.55"/><polygon class="cls-1" points="59.57 49.55 38.03 65.98 38.03 33.12 59.57 49.55"/><line class="cls-2" x1="59.57" y1="65.93" x2="59.57" y2="33.12"/><path class="cls-3" d="M270.21,49.69c0,27.23-22.68,49.5-50.4,49.5H50.61C22.89,99.19.21,76.92.21,49.69S22.89.19,50.61.19h169.2C247.53.19,270.21,22.47,270.21,49.69Z"/><path class="cls-4" d="M72.21,99.19c-3,.16-7.34.31-12.55.2-7.28-.16-16-.35-23.2-2.24-5.08-1.32-15.47-5-26-17.36C8,76.68-1.52,63.55.21,45.19a49,49,0,0,1,10.63-26A55.3,55.3,0,0,1,26.26,6.42,48.39,48.39,0,0,1,36.67,2.08,47.24,47.24,0,0,1,46.38.51,251.9,251.9,0,0,1,72.21.19Z"/><text class="cls-5" transform="translate(117 63.32)">Skip<tspan class="cls-6" x="90.59" y="0"> </tspan></text><polygon class="cls-7" points="41.7 50.15 20.15 66.58 20.15 33.72 41.7 50.15"/><polygon class="cls-7" points="59.57 50.15 38.03 66.58 38.03 33.72 59.57 50.15"/><line class="cls-8" x1="59.57" y1="66.53" x2="59.57" y2="33.72"/></g></g></g></svg>