<svg xmlns="http://www.w3.org/2000/svg" xmlns:xlink="http://www.w3.org/1999/xlink" viewBox="0 0 365.29 394.43"><defs><style>.cls-1{fill:url(#radial-gradient);}.cls-2{fill:#f4eddf;}.cls-3{fill:#543d17;}.cls-4{fill:#ed8e2f;}</style><radialGradient id="radial-gradient" cx="182.65" cy="197.22" r="190.07" gradientUnits="userSpaceOnUse"><stop offset="0" stop-color="#ef9f70"/><stop offset="0.7" stop-color="#c4542e"/><stop offset="1" stop-color="#c4542e"/></radialGradient></defs><g id="Layer_2" data-name="Layer 2"><g id="Layer_1-2" data-name="Layer 1"><path class="cls-1" d="M.13,128.45c1.15,10.76,14.56,23.23,14.56,23.23,7.07,6.58,32.77,30.56,42.85,44.08a99.4,99.4,0,0,1,8,13,66.83,66.83,0,0,1,4.36,10.4c3.07,10.59-.48,20.71-2.26,26.05-7.3,21.85-10.92,46.71-11,64.91A186.12,186.12,0,0,0,58.85,337c2.12,15.43,4.8,23.76,6.45,28.31a67.72,67.72,0,0,0,6.81,14c2.39,3.72,4.67,7.2,9,10.39,2.41,1.8,7.35,5.48,13.25,4.66a8.33,8.33,0,0,0,5-2.15c2.6-2.59,2.24-6.77,2.15-8.24-.67-11.24,4.53-25.66,7.17-33a55.69,55.69,0,0,1,12.9-20.07,121.42,121.42,0,0,1,30.1-25.44,17,17,0,0,1,6.45-2.51c4.69-.68,8.66,1.05,10.8,2a28.55,28.55,0,0,1,6.76,4.43,50.07,50.07,0,0,1,8.71,9.95c1.39,1.87,4.86,5.58,11.82,13a219.21,219.21,0,0,0,40,33.66,173.46,173.46,0,0,0,29.17,14.19c1.52.6,2.28.89,3.1,1.19a79.59,79.59,0,0,0,18,4.05,72,72,0,0,0,17.81,0c6.29-.86,8.91-2.17,10.72-4.25a11.53,11.53,0,0,0,2.68-6.31c.55-5.78-3.83-10.54-5.83-12.76-9.62-10.66-19.84-23.66-25.44-32.3a110.35,110.35,0,0,1-10-19.71,114.61,114.61,0,0,1-6.45-24.37c-1.16-7.56-2.61-17.1-.72-29.38a70.51,70.51,0,0,1,8.6-25.8c7.05-12.14,16.35-19,24.73-25.09s9.09-5,20.78-13.26c8.25-5.8,13.58-9.54,19.71-15.76,4.78-4.86,11.92-12.26,17.06-24.07,3.92-9,4.51-15.56,5.16-22.88,0,0,.7-7.89-2.87-14.33a4.24,4.24,0,0,0-2-2c-4.27-2.18-9.75,3.88-20.79,10.74a119.37,119.37,0,0,1-18.16,9.18,110.08,110.08,0,0,1-17.33,5.67,73.31,73.31,0,0,1-16.47,2.3A56.53,56.53,0,0,1,266.93,138a55.74,55.74,0,0,1-18.46-11,66.2,66.2,0,0,1-13.65-16.72C226.87,97.15,224,83.8,222.7,78.06c-.45-2.07-.79-4-1.69-7.44a167.76,167.76,0,0,0-5.93-18,176.19,176.19,0,0,0-7.92-18.2A142.6,142.6,0,0,0,196.83,17c-1.2-1.7-3.36-4.27-7.67-9.4a31.74,31.74,0,0,0-6.5-5.83c-1.92-1.3-3.5-2-5.36-1.74s-3.35,2-6.55,5.68c-3.43,3.89-3.94,5.34-4.14,6.49a15.52,15.52,0,0,0-.2,3.48c0,1.58-.08,3.17-.06,4.75.07,4.51-.43,16.22-1.32,27.66-.41,5.18-.62,7.76-1,10.94A146.21,146.21,0,0,1,161,75a98.93,98.93,0,0,1-10.59,26.59c-3.48,5.89-10.61,17.92-24.9,26.69-16.36,10-32.75,10.06-42.13,10.07-9.73,0-16.73-1.34-24.9-3-16.3-3.25-46-12-50.46-13.91a8.71,8.71,0,0,0-2.51-.66,7.26,7.26,0,0,0-3.78.51C-.49,122.63,0,127.28.13,128.45Z"/><circle class="cls-2" cx="229.22" cy="181.78" r="42.71"/><circle class="cls-2" cx="119.92" cy="180.95" r="34.38"/><circle class="cls-3" cx="218.91" cy="187.83" r="27.74"/><circle class="cls-3" cx="115.06" cy="187.07" r="24.6"/><path class="cls-3" d="M151.63,227c.94-.92,3.34,1.87,9.22,2.67a19.41,19.41,0,0,0,10.44-1.7c4.39-2.17,5.45-4.63,6.55-4.13,2.2,1,2.21,13.2-5.1,17.23-4.42,2.44-9.28.67-10.43.25C154.05,238.35,150.12,228.5,151.63,227Z"/><circle class="cls-4" cx="221.36" cy="293.54" r="9.27"/><circle class="cls-4" cx="238.27" cy="319.93" r="7.62"/><circle class="cls-4" cx="257.2" cy="341.1" r="4.37"/><circle class="cls-4" cx="279.04" cy="357.64" r="4.37"/><circle class="cls-4" cx="98.12" cy="282.22" r="9.27"/><circle class="cls-4" cx="88.64" cy="312.1" r="7.62"/><circle class="cls-4" cx="84.48" cy="340.18" r="4.37"/><circle class="cls-4" cx="85.73" cy="367.56" r="4.37"/><circle class="cls-4" cx="204.44" cy="102.41" r="9.27"/><circle class="cls-4" cx="201.47" cy="71.2" r="7.62"/><circle class="cls-4" cx="194.32" cy="43.73" r="4.37"/><circle class="cls-4" cx="182.46" cy="19.03" r="4.37"/><circle class="cls-4" cx="294.12" cy="177.68" r="9.27"/><circle class="cls-4" cx="318.97" cy="164.29" r="7.62"/><circle class="cls-4" cx="337.8" cy="149.41" r="4.37"/><circle class="cls-4" cx="353.39" cy="131.48" r="4.37"/><circle class="cls-4" cx="61.5" cy="167.99" r="6.9"/><circle class="cls-4" cx="42.19" cy="157.63" r="4.65"/><circle class="cls-4" cx="26.54" cy="146.02" r="3.18"/></g></g></svg>