<svg xmlns="http://www.w3.org/2000/svg" xmlns:xlink="http://www.w3.org/1999/xlink" viewBox="0 0 210.73 259.55"><defs><style>.cls-1{fill:none;}.cls-2{fill:url(#linear-gradient);}.cls-3{fill:url(#linear-gradient-2);}.cls-4{fill:url(#linear-gradient-3);}.cls-5{fill:url(#linear-gradient-4);}.cls-6{fill:url(#linear-gradient-5);}.cls-7{fill:url(#linear-gradient-6);}.cls-8{fill:url(#linear-gradient-7);}.cls-9{fill:url(#linear-gradient-8);}.cls-10{fill:url(#linear-gradient-9);}.cls-11{fill:url(#linear-gradient-10);}.cls-12{fill:url(#linear-gradient-11);}.cls-13{fill:url(#linear-gradient-12);}.cls-14{fill:url(#linear-gradient-13);}.cls-15{fill:url(#linear-gradient-14);}.cls-16{fill:url(#linear-gradient-15);}.cls-17{fill:url(#linear-gradient-16);}.cls-18{fill:url(#linear-gradient-17);}.cls-19{fill:url(#linear-gradient-18);}.cls-20{fill:url(#linear-gradient-19);}.cls-21{fill:url(#linear-gradient-20);}.cls-22{fill:url(#linear-gradient-21);}.cls-23{fill:url(#linear-gradient-22);}.cls-24{fill:url(#linear-gradient-23);}.cls-25{fill:url(#linear-gradient-24);}.cls-26{fill:url(#linear-gradient-25);}.cls-27{fill:url(#linear-gradient-26);}.cls-28{fill:url(#linear-gradient-27);}.cls-29{fill:url(#linear-gradient-28);}.cls-30{fill:#341e17;}.cls-31{fill:url(#linear-gradient-29);}.cls-32{fill:#a46c35;}.cls-33{fill:url(#linear-gradient-30);}.cls-34{fill:url(#eyes_);}.cls-35{fill:url(#eyes_2);}.cls-36{fill:url(#linear-gradient-31);}.cls-37{fill:url(#linear-gradient-32);}.cls-38{fill:#543d17;}.cls-39{fill:url(#linear-gradient-33);}.cls-40{fill:url(#linear-gradient-34);}.cls-41{fill:url(#linear-gradient-35);}.cls-42{fill:url(#linear-gradient-36);}.cls-43{fill:url(#linear-gradient-37);}.cls-44{fill:url(#linear-gradient-38);}.cls-45{fill:url(#linear-gradient-39);}.cls-46{fill:url(#linear-gradient-40);}.cls-47{fill:url(#linear-gradient-41);}.cls-48{fill:url(#linear-gradient-42);}.cls-49{fill:url(#linear-gradient-43);}.cls-50{fill:url(#linear-gradient-44);}.cls-51{fill:#f7f8db;}.cls-52{fill:url(#linear-gradient-45);}.cls-53{fill:url(#linear-gradient-46);}.cls-54{fill:#fff;}.cls-55{fill:url(#linear-gradient-47);}.cls-56{fill:url(#linear-gradient-48);}.cls-57{fill:#7b562a;}.cls-58{fill:#6c3b21;}.cls-59{stroke:#6e2405;stroke-miterlimit:10;stroke-width:0.5px;fill:url(#linear-gradient-49);}.cls-60{fill:url(#linear-gradient-50);}.cls-61{fill:#6e2405;}.cls-62{fill:url(#linear-gradient-51);}.cls-63{fill:url(#linear-gradient-52);}.cls-64{fill:#0a3542;}</style><linearGradient id="linear-gradient" x1="327.58" y1="119.13" x2="525.91" y2="119.13" gradientTransform="translate(-332.46 374.74) rotate(-43.09)" gradientUnits="userSpaceOnUse"><stop offset="0.14" stop-color="#8e572a"/><stop offset="0.58" stop-color="#a46c35"/><stop offset="0.99" stop-color="#ac8457"/></linearGradient><linearGradient id="linear-gradient-2" x1="365.33" y1="106.68" x2="542.28" y2="106.68" gradientTransform="translate(-332.46 374.74) rotate(-43.09)" gradientUnits="userSpaceOnUse"><stop offset="0.25" stop-color="#ac8457"/><stop offset="0.47" stop-color="#a46c35"/><stop offset="0.65" stop-color="#8e572a"/></linearGradient><linearGradient id="linear-gradient-3" x1="327.57" y1="34.45" x2="525.9" y2="34.45" xlink:href="#linear-gradient"/><linearGradient id="linear-gradient-4" x1="327.58" y1="118.26" x2="525.91" y2="118.26" xlink:href="#linear-gradient"/><linearGradient id="linear-gradient-5" x1="327.58" y1="52.49" x2="525.91" y2="52.49" xlink:href="#linear-gradient"/><linearGradient id="linear-gradient-6" x1="72.81" y1="-112.22" x2="218.25" y2="-112.22" gradientTransform="translate(-164.36 162.73) rotate(46.91)" gradientUnits="userSpaceOnUse"><stop offset="0" stop-color="#fff7a9"/><stop offset="0.5" stop-color="#fff1bd"/><stop offset="1" stop-color="#ffffe9"/></linearGradient><linearGradient id="linear-gradient-7" x1="327.58" y1="138.23" x2="525.91" y2="138.23" xlink:href="#linear-gradient"/><linearGradient id="linear-gradient-8" x1="41.81" y1="-133.46" x2="237.5" y2="-133.46" gradientTransform="translate(-164.36 162.73) rotate(46.91)" gradientUnits="userSpaceOnUse"><stop offset="0.43" stop-color="#fff7a9"/><stop offset="0.5" stop-color="#fff1bd"/></linearGradient><linearGradient id="linear-gradient-9" x1="14.77" y1="211.53" x2="108.52" y2="211.53" gradientUnits="userSpaceOnUse"><stop offset="0.03" stop-color="#231f20"/><stop offset="1" stop-color="#575757"/></linearGradient><linearGradient id="linear-gradient-10" x1="327.58" y1="129.89" x2="525.91" y2="129.89" xlink:href="#linear-gradient"/><linearGradient id="linear-gradient-11" x1="72.81" y1="-191.62" x2="218.25" y2="-191.62" xlink:href="#linear-gradient-6"/><linearGradient id="linear-gradient-12" x1="327.58" y1="141.9" x2="525.91" y2="141.9" xlink:href="#linear-gradient"/><linearGradient id="linear-gradient-13" x1="72.81" y1="-172.84" x2="218.25" y2="-172.84" xlink:href="#linear-gradient-6"/><linearGradient id="linear-gradient-14" x1="327.58" y1="131.67" x2="525.91" y2="131.67" xlink:href="#linear-gradient"/><linearGradient id="linear-gradient-15" x1="72.81" y1="-167.52" x2="218.25" y2="-167.52" xlink:href="#linear-gradient-6"/><linearGradient id="linear-gradient-16" x1="162.5" y1="-167.52" x2="201.3" y2="-167.52" gradientTransform="translate(-164.36 162.73) rotate(46.91)" xlink:href="#linear-gradient-9"/><linearGradient id="linear-gradient-17" x1="54.01" y1="169.48" x2="173.12" y2="169.48" gradientUnits="userSpaceOnUse"><stop offset="0.03" stop-color="#231f20"/><stop offset="1" stop-color="#b3b3b3"/></linearGradient><linearGradient id="linear-gradient-18" x1="72.81" y1="-134.56" x2="218.25" y2="-134.56" xlink:href="#linear-gradient-6"/><linearGradient id="linear-gradient-19" x1="327.58" y1="79.4" x2="525.91" y2="79.4" xlink:href="#linear-gradient"/><linearGradient id="linear-gradient-20" x1="72.81" y1="-139.52" x2="218.25" y2="-139.52" xlink:href="#linear-gradient-6"/><linearGradient id="linear-gradient-21" x1="65.01" y1="137.87" x2="8.67" y2="159.63" xlink:href="#linear-gradient-9"/><linearGradient id="linear-gradient-22" x1="327.58" y1="83.44" x2="525.91" y2="83.44" xlink:href="#linear-gradient"/><linearGradient id="linear-gradient-23" x1="72.81" y1="-193.74" x2="218.25" y2="-193.74" xlink:href="#linear-gradient-6"/><linearGradient id="linear-gradient-24" x1="327.58" y1="73.23" x2="525.91" y2="73.23" xlink:href="#linear-gradient"/><linearGradient id="linear-gradient-25" x1="-35.59" y1="181.65" x2="250.85" y2="181.65" gradientUnits="userSpaceOnUse"><stop offset="0.22" stop-color="#fff1bd"/><stop offset="1" stop-color="#ffffe9"/></linearGradient><linearGradient id="linear-gradient-26" x1="327.58" y1="81.85" x2="525.91" y2="81.85" xlink:href="#linear-gradient"/><linearGradient id="linear-gradient-27" x1="72.81" y1="-166.27" x2="218.25" y2="-166.27" xlink:href="#linear-gradient-6"/><linearGradient id="linear-gradient-28" x1="90.43" y1="-166.27" x2="134.87" y2="-166.27" gradientTransform="translate(-164.36 162.73) rotate(46.91)" xlink:href="#linear-gradient-9"/><linearGradient id="linear-gradient-29" x1="69.87" y1="89.57" x2="190.31" y2="89.57" gradientUnits="userSpaceOnUse"><stop offset="0" stop-color="#a46c35"/><stop offset="0.81" stop-color="#8e572a"/><stop offset="1" stop-color="#7d4921"/></linearGradient><linearGradient id="linear-gradient-30" x1="140.75" y1="-235.01" x2="163.39" y2="-235.01" gradientTransform="translate(-164.36 162.73) rotate(46.91)" gradientUnits="userSpaceOnUse"><stop offset="0" stop-color="#ee975a"/><stop offset="0.7" stop-color="#c4542e"/><stop offset="1" stop-color="#c4542e"/></linearGradient><linearGradient id="eyes_" x1="104.23" y1="65.55" x2="135.06" y2="65.55" gradientUnits="userSpaceOnUse"><stop offset="0.15" stop-color="#f7f8ef"/><stop offset="0.39" stop-color="#f7f8f1"/><stop offset="0.62" stop-color="#f7f8ef"/><stop offset="1" stop-color="#ebebd7"/><stop offset="1" stop-color="#f1f1e4"/><stop offset="1" stop-color="#f7f8f1"/></linearGradient><linearGradient id="eyes_2" x1="142.87" y1="104.84" x2="173.28" y2="104.84" xlink:href="#eyes_"/><linearGradient id="linear-gradient-31" x1="63.02" y1="-265.48" x2="162.91" y2="-319.32" gradientTransform="translate(-164.36 162.73) rotate(46.91)" gradientUnits="userSpaceOnUse"><stop offset="0" stop-color="#ee975a"/><stop offset="0.13" stop-color="#c4542e"/><stop offset="1" stop-color="#c4542e"/></linearGradient><linearGradient id="linear-gradient-32" x1="72.43" y1="-248.01" x2="172.33" y2="-301.84" xlink:href="#linear-gradient-31"/><linearGradient id="linear-gradient-33" x1="74.3" y1="-253.36" x2="89.71" y2="-261.67" xlink:href="#linear-gradient-31"/><linearGradient id="linear-gradient-34" x1="67.83" y1="-256.55" x2="167.72" y2="-310.39" xlink:href="#linear-gradient-31"/><linearGradient id="linear-gradient-35" x1="71.52" y1="-258.54" x2="86.92" y2="-266.84" xlink:href="#linear-gradient-31"/><linearGradient id="linear-gradient-36" x1="68.3" y1="-255.68" x2="168.19" y2="-309.52" xlink:href="#linear-gradient-31"/><linearGradient id="linear-gradient-37" x1="68.4" y1="-255.49" x2="168.3" y2="-309.32" xlink:href="#linear-gradient-31"/><linearGradient id="linear-gradient-38" x1="76.09" y1="-250.04" x2="91.5" y2="-258.34" xlink:href="#linear-gradient-31"/><linearGradient id="linear-gradient-39" x1="47.99" y1="-234.89" x2="77.61" y2="-250.86" xlink:href="#linear-gradient-31"/><linearGradient id="linear-gradient-40" x1="73.42" y1="-255.01" x2="88.82" y2="-263.31" xlink:href="#linear-gradient-31"/><linearGradient id="linear-gradient-41" x1="48.79" y1="-233.4" x2="78.42" y2="-249.37" xlink:href="#linear-gradient-31"/><linearGradient id="linear-gradient-42" x1="75.16" y1="-251.78" x2="90.56" y2="-260.08" xlink:href="#linear-gradient-31"/><linearGradient id="linear-gradient-43" x1="47.05" y1="-236.63" x2="76.67" y2="-252.6" xlink:href="#linear-gradient-31"/><linearGradient id="linear-gradient-44" x1="41.35" y1="-233.56" x2="76.39" y2="-252.45" xlink:href="#linear-gradient-31"/><linearGradient id="linear-gradient-45" x1="108.89" y1="-271.67" x2="134.29" y2="-271.67" gradientTransform="translate(-164.36 162.73) rotate(46.91)" gradientUnits="userSpaceOnUse"><stop offset="0.03" stop-color="#71535c"/><stop offset="1" stop-color="#341e17"/></linearGradient><linearGradient id="linear-gradient-46" x1="165.19" y1="-272.05" x2="186.81" y2="-272.05" xlink:href="#linear-gradient-45"/><linearGradient id="linear-gradient-47" x1="111.68" y1="118.66" x2="112.18" y2="118.66" gradientUnits="userSpaceOnUse"><stop offset="0.14" stop-color="#8e572a"/><stop offset="0.58" stop-color="#a46c35"/></linearGradient><linearGradient id="linear-gradient-48" x1="70.06" y1="42.25" x2="91.24" y2="42.25" gradientTransform="matrix(0.98, 0.21, -0.21, 0.98, 11.07, -15.27)" xlink:href="#linear-gradient-29"/><linearGradient id="linear-gradient-49" x1="-291.3" y1="276.82" x2="122.43" y2="53.83" gradientUnits="userSpaceOnUse"><stop offset="0.14" stop-color="#6e2405"/><stop offset="0.58" stop-color="#6c3b21"/><stop offset="0.99" stop-color="#b94140"/></linearGradient><linearGradient id="linear-gradient-50" x1="39.37" y1="69.99" x2="84.94" y2="45.43" xlink:href="#linear-gradient-49"/><linearGradient id="linear-gradient-51" x1="-1.91" y1="120.41" x2="182.67" y2="120.41" gradientUnits="userSpaceOnUse"><stop offset="0" stop-color="#fff7a9"/><stop offset="0.1" stop-color="#fff1bd"/><stop offset="1" stop-color="#ffffe9"/></linearGradient><linearGradient id="linear-gradient-52" x1="3.25" y1="131.78" x2="66.56" y2="131.78" xlink:href="#linear-gradient-17"/></defs><g id="Layer_2" data-name="Layer 2"><g id="Layer_18" data-name="Layer 18"><path class="cls-1" d="M.05,119.11v5.42c.83-1,1.71-2.15,2.61-3.42C1.79,120.38.92,119.71.05,119.11Z"/><path class="cls-1" d="M6.13,142.84l.25-.39A32,32,0,0,0,10,134a13.25,13.25,0,0,0-3.35-5.22,13.55,13.55,0,0,0-6.57-3.45v20.27c1.15-.74,2.26-1.48,3.31-2.2C4.25,143.21,5.18,143,6.13,142.84Z"/><path class="cls-2" d="M1.17,219.11l-1.12.08v15.24Q.61,226.77,1.17,219.11Z"/><path class="cls-3" d="M74.74,148.28a34.77,34.77,0,0,0,13.19,6.1c2.37-1.17,4.65-2.19,6.82-3.08a16.82,16.82,0,0,1-2.4-8.8,22.92,22.92,0,0,1,1.28-7.59,48.5,48.5,0,0,1-7.62-6,49.29,49.29,0,0,1-9.31-12.64,14.94,14.94,0,0,1-7,2.79,11.92,11.92,0,0,1-4.46-.37,79.33,79.33,0,0,1-3.51,9.42C63.66,133.85,66.72,142.21,74.74,148.28Z"/><path class="cls-4" d="M2.66,121.11a59.24,59.24,0,0,0,5-8.43,60,60,0,0,0,4.63-13.41c-4.53-.43-8.58-.82-12.21-1.1v20.94C.92,119.71,1.79,120.38,2.66,121.11Z"/><path class="cls-5" d="M14.88,234.5A217.66,217.66,0,0,1,51.2,184q2.4-2.49,4.8-4.81l-.25.17A103.39,103.39,0,0,1,79.68,159c2.83-1.75,5.59-3.26,8.25-4.57a34.77,34.77,0,0,1-13.19-6.1c-8-6.07-11.08-14.43-13-20.17-.15.34-.29.69-.45,1a84.88,84.88,0,0,1-25.93,31.71c.17-.26.37-.59.59-1A173.91,173.91,0,0,1,22.58,172,174.6,174.6,0,0,1,.05,187.64v31.55l1.12-.08Q.62,226.76.05,234.43v1.19l12.5-.87Q11.29,241.89,10,249c4.41-1.65,9.14-3.66,14.09-6.1A36.12,36.12,0,0,1,14.88,234.5Z"/><path class="cls-6" d="M2.66,121.11a49.73,49.73,0,0,1,11.79,15.51c-1.32,1.66-2.81,3.44-4.47,5.29a58.61,58.61,0,0,0,7.14-2.48,61.69,61.69,0,0,0,22.39-16.38,44.11,44.11,0,0,0-10.82-16.43,32.1,32.1,0,0,1,13.19-2.87c-6.07-2.22-14.74-3-29.48-4.47h-.14a60,60,0,0,1-4.63,13.41A59.24,59.24,0,0,1,2.66,121.11Z"/><path class="cls-7" d="M37.47,235.51c-4.56,2.85-9,5.3-13.34,7.43.91.57,1.85,1.14,2.88,1.66a35.1,35.1,0,0,0,4.77,2c1.75-1.92,3.39-3.68,4.86-5.24,17.28-18.26,16.08-13.68,27.6-26.54,2.68-3,4.84-5.58,6.75-7.45a2.64,2.64,0,0,0,0-.29A153.36,153.36,0,0,1,37.47,235.51Z"/><path class="cls-8" d="M77.85,169.89c-4.71.68-12.7,2.65-21.85,9.28q-2.4,2.33-4.8,4.81A217.66,217.66,0,0,0,14.88,234.5a36.12,36.12,0,0,0,9.25,8.44c4.31-2.13,8.78-4.58,13.34-7.43A153.36,153.36,0,0,0,71,207.08a35.79,35.79,0,0,1,1.25-7.15c1.58-5.58,4.13-9.37,7.84-14.46,2.91-4,6.41-8.6,10.48-13.65a17.55,17.55,0,0,0-6.88-2.24A22.66,22.66,0,0,0,77.85,169.89Z"/><path class="cls-9" d="M77.85,169.89c-4.71.68-12.7,2.65-21.85,9.28q-2.4,2.33-4.8,4.81A217.66,217.66,0,0,0,14.88,234.5a36.12,36.12,0,0,0,9.25,8.44c4.31-2.13,8.78-4.58,13.34-7.43A153.36,153.36,0,0,0,71,207.08a69.19,69.19,0,0,0,13.4-2.79,36.78,36.78,0,0,0,9.31-3.88c3.47-2.15,8.36-5.18,10.08-11.07.32-1.08,2.47-8.84-2.74-14-4.09-4-9.62-3.61-10.48-3.53a17.55,17.55,0,0,0-6.88-2.24A22.66,22.66,0,0,0,77.85,169.89Z"/><path class="cls-10" d="M83.7,169.58a22.66,22.66,0,0,0-5.85.31c-4.71.68-12.7,2.65-21.85,9.28q-2.4,2.33-4.8,4.81A217.66,217.66,0,0,0,14.88,234.5a36.12,36.12,0,0,0,9.25,8.44c.91.57,1.85,1.14,2.88,1.66a33,33,0,0,0,4.77,2c2,.69,5,2.4,9.37,7a113,113,0,0,1,28.48-40.9A33,33,0,0,1,70.57,199a31.26,31.26,0,0,1,2.1-5.3,41.62,41.62,0,0,1,5.91-8.83,172.62,172.62,0,0,1,12-13.05A17.55,17.55,0,0,0,83.7,169.58Z"/><path class="cls-11" d="M97.5,155.34a39.56,39.56,0,0,1-2.75-4c-2.17.89-4.45,1.91-6.82,3.08A38.52,38.52,0,0,0,97.5,155.34Z"/><path class="cls-12" d="M108.44,171.5c-.68-4-2.73-9.81-9.32-16.24-.42,0-1,.06-1.62.08,2.63,3.5,5.74,7.38,8,13.8A40.9,40.9,0,0,1,107.89,182c.27-.58.54-1.2.79-1.85A42,42,0,0,0,108.44,171.5Z"/><path class="cls-13" d="M97.5,155.34a38.52,38.52,0,0,1-9.57-1c-2.66,1.31-5.42,2.82-8.25,4.57a103.39,103.39,0,0,0-23.93,20.39l.25-.17c5.16-5,10.27-9.49,15.21-13.46L94,167.62q-1.79,2.15-3.43,4.2c7.5,4.18,12.24,12.86,13.8,15.92a32.56,32.56,0,0,0,3.51-5.79,40.9,40.9,0,0,0-2.35-12.81C103.24,162.72,100.13,158.84,97.5,155.34Z"/><path class="cls-14" d="M97.5,155.34a38.52,38.52,0,0,1-9.57-1c-2.66,1.31-5.42,2.82-8.25,4.57a103.39,103.39,0,0,0-23.93,20.39l.25-.17c5.16-5,10.27-9.49,15.21-13.46L94,167.62q-1.79,2.15-3.43,4.2c7.5,4.18,12.24,12.86,13.8,15.92a32.56,32.56,0,0,0,3.51-5.79,40.9,40.9,0,0,0-2.35-12.81C103.24,162.72,100.13,158.84,97.5,155.34Z"/><path class="cls-15" d="M71.21,165.71c-4.94,4-10,8.44-15.21,13.46,9.15-6.63,17.14-8.6,21.85-9.28a22.66,22.66,0,0,1,5.85-.31,17.55,17.55,0,0,1,6.88,2.24q1.65-2.06,3.43-4.2Z"/><path class="cls-16" d="M71.21,165.71c-4.94,4-10,8.44-15.21,13.46,9.15-6.63,17.14-8.6,21.85-9.28a22.66,22.66,0,0,1,5.85-.31,17.55,17.55,0,0,1,6.88,2.24q1.65-2.06,3.43-4.2Z"/><path class="cls-17" d="M71.21,165.71c-4.94,4-10,8.44-15.21,13.46,9.15-6.63,17.14-8.6,21.85-9.28a22.66,22.66,0,0,1,5.85-.31,17.55,17.55,0,0,1,6.88,2.24q1.65-2.06,3.43-4.2Z"/><path class="cls-18" d="M109.54,166.76a24.56,24.56,0,0,0-5-8.28A29.57,29.57,0,0,0,95,151.22l-.21.08c-2.17.89-4.45,1.91-6.82,3.08-2.66,1.31-5.42,2.82-8.25,4.57a103.39,103.39,0,0,0-23.93,20.39l.25-.17c9.15-6.63,17.14-8.6,21.85-9.28a22.66,22.66,0,0,1,5.85-.31,17.55,17.55,0,0,1,6.88,2.24c7.5,4.18,12.24,12.86,13.8,15.92a32.56,32.56,0,0,0,3.51-5.79c.27-.58.54-1.2.79-1.85A20,20,0,0,0,109.54,166.76Z"/><path class="cls-19" d="M10,141.91c-1.33.37-2.61.68-3.85.93a28.8,28.8,0,0,1-6.08,6.83v2.06A114.35,114.35,0,0,0,10,141.91Z"/><path class="cls-20" d="M41.94,133.69a41.88,41.88,0,0,0-2.43-10.64,61.69,61.69,0,0,1-22.39,16.38A58.61,58.61,0,0,1,10,141.91a114.35,114.35,0,0,1-9.93,9.82v35.91A174.6,174.6,0,0,0,22.58,172,173.91,173.91,0,0,0,35.9,159.91,43.23,43.23,0,0,0,41.94,133.69Z"/><path class="cls-21" d="M41.94,133.69a41.88,41.88,0,0,0-2.43-10.64,61.69,61.69,0,0,1-22.39,16.38A58.61,58.61,0,0,1,10,141.91a114.35,114.35,0,0,1-9.93,9.82v35.91A174.6,174.6,0,0,0,22.58,172,173.91,173.91,0,0,0,35.9,159.91,43.23,43.23,0,0,0,41.94,133.69Z"/><path class="cls-22" d="M41.94,133.69a41.88,41.88,0,0,0-2.43-10.64,61.69,61.69,0,0,1-22.39,16.38A58.61,58.61,0,0,1,10,141.91c-1.33.37-2.61.68-3.85.93-1,.2-1.88.37-2.77.52-1,.72-2.16,1.46-3.31,2.2v42.08A174.6,174.6,0,0,0,22.58,172,173.91,173.91,0,0,0,35.9,159.91,43.23,43.23,0,0,0,41.94,133.69Z"/><path class="cls-23" d="M61.41,127.29c.09.26.19.54.28.82a79.33,79.33,0,0,0,3.51-9.42,19.73,19.73,0,0,1-6.44-3.5A55.74,55.74,0,0,0,61.41,127.29Z"/><path class="cls-24" d="M41.88,103.75a23,23,0,0,1,3.57,1.62c5.59,3.16,9.55,7,13.31,9.82-.07-.66-.13-1.3-.17-1.87a44,44,0,0,0-12.5-9.24A26.87,26.87,0,0,0,41.88,103.75Z"/><path class="cls-25" d="M58.76,115.19c-3.76-2.82-7.72-6.66-13.31-9.82a23,23,0,0,0-3.57-1.62,32.1,32.1,0,0,0-13.19,2.87,44.11,44.11,0,0,1,10.82,16.43,69.35,69.35,0,0,0,5.17-6.72q-1.27,18.46-2.54,36.94-2.89,3.25-6.24,6.64c-.22.36-.42.69-.59,1a84.88,84.88,0,0,0,25.93-31.71c.16-.35.3-.7.45-1-.09-.28-.19-.56-.28-.82A55.74,55.74,0,0,1,58.76,115.19Z"/><path class="cls-26" d="M74.74,148.28c-8-6.07-11.08-14.43-13-20.17-.09-.28-.19-.56-.28-.82a55.74,55.74,0,0,1-2.65-12.1c-3.76-2.82-7.72-6.66-13.31-9.82a23,23,0,0,0-3.57-1.62,32.1,32.1,0,0,0-13.19,2.87,44.11,44.11,0,0,1,10.82,16.43,69.35,69.35,0,0,0,5.17-6.72q-1.27,18.46-2.54,36.94-2.89,3.25-6.24,6.64A173.91,173.91,0,0,1,22.58,172,174.6,174.6,0,0,1,.05,187.64v31.55l1.12-.08Q.62,226.76.05,234.43v1.19l12.5-.87Q11.29,241.89,10,249l-.38,2.15,12-4.64-1.17,13c4.12-4.94,7.92-9.27,11.28-13a35.1,35.1,0,0,1-4.77-2c-1-.52-2-1.09-2.88-1.66a36.12,36.12,0,0,1-9.25-8.44A217.66,217.66,0,0,1,51.2,184q2.4-2.49,4.8-4.81l-.25.17A103.39,103.39,0,0,1,79.68,159c2.83-1.75,5.59-3.26,8.25-4.57A34.77,34.77,0,0,1,74.74,148.28Z"/><path class="cls-27" d="M44.68,116.33a69.35,69.35,0,0,1-5.17,6.72,41.88,41.88,0,0,1,2.43,10.64,43.23,43.23,0,0,1-6,26.22q3.35-3.37,6.24-6.64Q43.42,134.81,44.68,116.33Z"/><path class="cls-28" d="M44.68,116.33a69.35,69.35,0,0,1-5.17,6.72,41.88,41.88,0,0,1,2.43,10.64,43.23,43.23,0,0,1-6,26.22q3.35-3.37,6.24-6.64Q43.42,134.81,44.68,116.33Z"/><path class="cls-29" d="M44.68,116.33a69.35,69.35,0,0,1-5.17,6.72,41.88,41.88,0,0,1,2.43,10.64,43.23,43.23,0,0,1-6,26.22q3.35-3.37,6.24-6.64Q43.42,134.81,44.68,116.33Z"/><path class="cls-30" d="M108.23,18.73a83.29,83.29,0,0,1,44,6.34,81.12,81.12,0,0,1,10.24,5.47A55.12,55.12,0,0,1,181,46.6l0,0a89.5,89.5,0,0,1,14.67,23.73A31.44,31.44,0,0,1,196,82.62a15.8,15.8,0,0,0,9.55-3.37c10.89-9.19,1.57-33.42.14-37.14C196.39,18,175.08,7.55,172.51,6.33c-5.79-2.73-23.11-9.84-43.72-4.24a64,64,0,0,0-28.3,16.77,74.74,74.74,0,0,0-7.65,8.66l.41-.4A37.52,37.52,0,0,1,108.23,18.73Z"/><path class="cls-31" d="M93.63,134.91c20.24,13,49.81,12.24,63.32,1,1.37-1.13,3.34-3.16,7.27-7.21,7.75-8,18.62-19.16,23.05-26.93a34.2,34.2,0,0,0,3-7.18,48.49,48.49,0,0,0-8.68-23.87,50.16,50.16,0,0,0-20-16.2A58.5,58.5,0,0,0,143.24,49a14.27,14.27,0,0,1,2.89,6c1,5.09-1.31,10.57-2.78,10.54-1.11,0-1.27-3.11-3.65-9.72A77.72,77.72,0,0,0,135.37,46a47.52,47.52,0,0,0-5.92-4.34c-5.13-3.19-13.27-8.26-22.61-6.78-8,1.27-13.34,6.82-15.61,9.58-1.69,1.67-3.2,3-4.36,4-5.82,4.92-7.36,4.74-8,4.38a.62.62,0,0,1-.19-.12c-11,19.59-11.64,44.9-1.94,63.53A49.29,49.29,0,0,0,86,128.91,48.5,48.5,0,0,0,93.63,134.91Zm30.88-18.68c-9.64,6.13-19.63,3.52-21.93-1.23-1.55-3.18-.09-8.24,3.74-12.6v0a22.78,22.78,0,0,1,2.77-2.68,28.8,28.8,0,0,0,15.43,16.5l0,0Zm2.8-12.63c-.28-.32,2.72-2.2,2.67-5.14,0-2.21-1.79-3.59-1.54-3.81s3.94,1.57,3.93,4.42C132.35,102.3,127.63,104,127.31,103.6Zm37.37,13.6a11.59,11.59,0,0,1-9.27.43c-.23.07-.45.16-.67.21a21.06,21.06,0,0,1-6.82-4.71c-.83-.84-5.13-5.17-5.2-10.23,0-.1.1-.19.15-.29a8.64,8.64,0,0,1,.77-3.83c2.72-6,11.48-7.93,16.94-7.43,1.81.17,10.43,1.26,12.34,8.76C174.47,106.22,170.94,114.14,164.68,117.2ZM178.5,89.87c-.75.76-3-1.61-10.45-4.28-5.71-2-8.52-2.11-8.38-3.12.19-1.35,5.53-3.59,10-2.78C176.49,80.91,179.65,88.71,178.5,89.87ZM105.57,55.79c3.43-6.63,12.41-9.4,19.37-6.67,8.54,3.34,9.83,13.31,10,15.4.6,6.29-1.56,15.93-8.36,18.09-4.12,1.31-8.22-.69-11.24-2.94l-.72,0a31.92,31.92,0,0,1-4.05-3.85c-1.15-1.3-6.13-6.93-6.49-13.36,0-.11.1-.22.15-.33A11.8,11.8,0,0,1,105.57,55.79Z"/><path class="cls-32" d="M181.05,46.65l0,0A55.12,55.12,0,0,0,162.5,30.54,82.94,82.94,0,0,1,181.05,46.65Z"/><path class="cls-32" d="M110.3,111a19.71,19.71,0,0,1-4-8.59c-3.83,4.36-5.29,9.42-3.74,12.6,2.3,4.75,12.29,7.36,21.93,1.23l0,0a25,25,0,0,1-3.56,1.88A22.46,22.46,0,0,1,110.3,111Z"/><path class="cls-33" d="M110.3,111a19.71,19.71,0,0,1-4-8.59c-3.83,4.36-5.29,9.42-3.74,12.6,2.3,4.75,12.29,7.36,21.93,1.23l0,0a25,25,0,0,1-3.56,1.88A22.46,22.46,0,0,1,110.3,111Z"/><path class="cls-34" d="M104.26,62.1a12.53,12.53,0,0,1,11.13-7.76,3.24,3.24,0,0,1,.71-1,3.41,3.41,0,0,1,5.75,2.43,12.56,12.56,0,0,1,3.36,2.55,12.67,12.67,0,0,1-9.84,21.33c3,2.25,7.12,4.25,11.24,2.94,6.8-2.16,9-11.8,8.36-18.09-.2-2.09-1.49-12.06-10-15.4-7-2.73-15.94,0-19.37,6.67A11.8,11.8,0,0,0,104.26,62.1Z"/><path class="cls-35" d="M160.58,91.35c-5.46-.5-14.22,1.44-16.94,7.43a8.64,8.64,0,0,0-.77,3.83A12.8,12.8,0,0,1,145.58,99,12.36,12.36,0,0,1,155,95.59a3.29,3.29,0,0,1,.45-.55,3,3,0,0,1,4.18.14,2.91,2.91,0,0,1,.75,2.47,9.21,9.21,0,0,1,1.24,1.1c4.08,4.36,3.5,11.54-1.3,16a12.83,12.83,0,0,1-4.94,2.85,11.59,11.59,0,0,0,9.27-.43c6.26-3.06,9.79-11,8.24-17.09C171,92.61,162.39,91.52,160.58,91.35Z"/><path class="cls-30" d="M169.71,79.69c-4.51-.81-9.85,1.43-10,2.78-.14,1,2.67,1.09,8.38,3.12,7.49,2.67,9.7,5,10.45,4.28C179.65,88.71,176.49,80.91,169.71,79.69Z"/><path class="cls-30" d="M139.7,55.87c2.38,6.61,2.54,9.7,3.65,9.72,1.47,0,3.79-5.45,2.78-10.54a14.27,14.27,0,0,0-2.89-6,83.24,83.24,0,0,0-7.87-3A77.72,77.72,0,0,1,139.7,55.87Z"/><path class="cls-36" d="M92.84,27.52A37.07,37.07,0,0,0,85,38.25q.38.11.75.24A88.27,88.27,0,0,1,92.84,27.52Z"/><path class="cls-37" d="M192.11,82.53a45.56,45.56,0,0,1-1.8,12l.33.66a31.25,31.25,0,0,0,4.76-10.06c.24-.87.42-1.73.57-2.56A27.18,27.18,0,0,1,192.11,82.53Z"/><path class="cls-30" d="M195.72,70.38a89.5,89.5,0,0,0-14.67-23.73,61.37,61.37,0,0,1,11.06,35.88,27.18,27.18,0,0,0,3.86.09A31.44,31.44,0,0,0,195.72,70.38Z"/><path class="cls-30" d="M87,39a8.56,8.56,0,0,1,1.31.92A55.72,55.72,0,0,1,97,32.69c19.35-12.92,45.67-12.91,65.5-2.15a81.12,81.12,0,0,0-10.24-5.47,83.29,83.29,0,0,0-44-6.34,37.52,37.52,0,0,0-15,8.39l-.41.4a88.27,88.27,0,0,0-7.07,11A8.24,8.24,0,0,1,87,39Z"/><path class="cls-32" d="M181.05,46.65A82.94,82.94,0,0,0,162.5,30.54C142.67,19.78,116.35,19.77,97,32.69a55.72,55.72,0,0,0-8.74,7.23,9.74,9.74,0,0,1,3,4.58,81.58,81.58,0,0,1,31.85-1.4A80.25,80.25,0,0,1,135.37,46c-.69-1.39-1-2.08-.64-2.38.87-.75,5.37,1.4,8.51,5.38a93,93,0,0,1,16.24,9.38,97.35,97.35,0,0,1,16.87,15.36,99.87,99.87,0,0,1,14,20.8,45.56,45.56,0,0,0,1.8-12A61.37,61.37,0,0,0,181.05,46.65Z"/><path class="cls-38" d="M134.73,43.66c-.35.3,0,1,.64,2.38a83.24,83.24,0,0,1,7.87,3C140.1,45.06,135.6,42.91,134.73,43.66Z"/><path class="cls-30" d="M82.36,45.43c-.58,1.32-1.11,2.58-1.57,3.78.42-.64.84-1.29,1.29-1.92l-.17.06C82,46.83,82.16,46.17,82.36,45.43Z"/><path class="cls-39" d="M82.36,45.43c-.58,1.32-1.11,2.58-1.57,3.78.42-.64.84-1.29,1.29-1.92l-.17.06C82,46.83,82.16,46.17,82.36,45.43Z"/><path class="cls-32" d="M90.09,52.22c1.71-2,2-5,1.14-7.72a82.76,82.76,0,0,0-9.15,2.79c-.45.63-.87,1.28-1.29,1.92-.76,1.16-1.48,2.33-2.15,3.53a1.22,1.22,0,0,0,.19.12C82.14,54.79,87.42,55.26,90.09,52.22Z"/><path class="cls-40" d="M85.77,38.49q-.37-.14-.75-.24a38.71,38.71,0,0,0-2.66,7.18C83.33,43.23,84.46,40.9,85.77,38.49Z"/><path class="cls-41" d="M85.77,38.49q-.37-.14-.75-.24a38.71,38.71,0,0,0-2.66,7.18C83.33,43.23,84.46,40.9,85.77,38.49Z"/><path class="cls-30" d="M87,39a8.24,8.24,0,0,0-1.18-.51c-1.31,2.41-2.44,4.74-3.41,6.94-.2.74-.35,1.4-.45,1.92l.17-.06a58.56,58.56,0,0,1,6.18-7.37A8.56,8.56,0,0,0,87,39Z"/><path class="cls-42" d="M87,39a8.24,8.24,0,0,0-1.18-.51c-1.31,2.41-2.44,4.74-3.41,6.94-.2.74-.35,1.4-.45,1.92l.17-.06a58.56,58.56,0,0,1,6.18-7.37A8.56,8.56,0,0,0,87,39Z"/><path class="cls-32" d="M88.26,39.92a58.56,58.56,0,0,0-6.18,7.37,82.76,82.76,0,0,1,9.15-2.79A9.74,9.74,0,0,0,88.26,39.92Z"/><path class="cls-43" d="M88.26,39.92a58.56,58.56,0,0,0-6.18,7.37,82.76,82.76,0,0,1,9.15-2.79A9.74,9.74,0,0,0,88.26,39.92Z"/><path class="cls-44" d="M75.88,50.37a12.34,12.34,0,0,0,1.4,1.4,18,18,0,0,0,1-3.49A16.13,16.13,0,0,1,75.88,50.37Z"/><path class="cls-45" d="M75.88,50.37a12.34,12.34,0,0,0,1.4,1.4,18,18,0,0,0,1-3.49A16.13,16.13,0,0,1,75.88,50.37Z"/><path class="cls-46" d="M73.85,44a4.82,4.82,0,0,0-.13,1.07c1.75-.64,3.22-.83,4-.09.63.59.78,1.75.54,3.28,1.93-2.07,3-4.4,2.45-6.08-.44-1.36-1.82-2-3.82-2.34A7.17,7.17,0,0,0,73.85,44Z"/><path class="cls-47" d="M70.31,52.92a14.71,14.71,0,0,0,5.57-2.55,8,8,0,0,1-2.16-5.28,50,50,0,0,0-6.66,3.3,50.79,50.79,0,0,0-5.21,3.29A13.05,13.05,0,0,0,70.31,52.92Z"/><path class="cls-48" d="M77.73,45c-.79-.74-2.26-.55-4,.09a8,8,0,0,0,2.16,5.28,16.13,16.13,0,0,0,2.39-2.09C78.51,46.75,78.36,45.59,77.73,45Z"/><path class="cls-49" d="M77.73,45c-.79-.74-2.26-.55-4,.09a8,8,0,0,0,2.16,5.28,16.13,16.13,0,0,0,2.39-2.09C78.51,46.75,78.36,45.59,77.73,45Z"/><path class="cls-50" d="M77.73,45c-.79-.74-2.26-.55-4,.09a8,8,0,0,0,2.16,5.28,16.13,16.13,0,0,0,2.39-2.09C78.51,46.75,78.36,45.59,77.73,45Z"/><path class="cls-51" d="M114.64,109a29,29,0,0,1-5.55-9.3,22.78,22.78,0,0,0-2.77,2.68v0a19.71,19.71,0,0,0,4,8.59,22.46,22.46,0,0,0,10.61,7.1,25,25,0,0,0,3.56-1.88l0,0A29.13,29.13,0,0,1,114.64,109Z"/><path class="cls-38" d="M128.44,94.65c-.25.22,1.51,1.6,1.54,3.81.05,2.94-2.95,4.82-2.67,5.14s5-1.3,5.06-4.53C132.38,96.22,128.77,94.37,128.44,94.65Z"/><path class="cls-32" d="M110.75,75.38c-1.15-1.29-6.1-6.88-6.49-13.28-.05.11-.11.22-.15.33.36,6.43,5.34,12.06,6.49,13.36a31.92,31.92,0,0,0,4.05,3.85l.72,0A30.41,30.41,0,0,1,110.75,75.38Z"/><path class="cls-51" d="M124.61,76.29a12.7,12.7,0,0,0,.6-18,12.56,12.56,0,0,0-3.36-2.55,3.38,3.38,0,0,1-1.07,2.56,3.41,3.41,0,0,1-5.39-4,12.53,12.53,0,0,0-11.13,7.76c.39,6.4,5.34,12,6.49,13.28a30.41,30.41,0,0,0,4.62,4.29A12.63,12.63,0,0,0,124.61,76.29Z"/><path class="cls-52" d="M124.61,76.29a12.7,12.7,0,0,0,.6-18,12.56,12.56,0,0,0-3.36-2.55,3.38,3.38,0,0,1-1.07,2.56,3.41,3.41,0,0,1-5.39-4,12.53,12.53,0,0,0-11.13,7.76c.39,6.4,5.34,12,6.49,13.28a30.41,30.41,0,0,0,4.62,4.29A12.63,12.63,0,0,0,124.61,76.29Z"/><path class="cls-32" d="M148.07,112.72c-.83-.83-5.06-5.1-5.2-10.11-.05.1-.11.19-.15.29.07,5.06,4.37,9.39,5.2,10.23a21.06,21.06,0,0,0,6.82,4.71c.22,0,.44-.14.67-.21A20.61,20.61,0,0,1,148.07,112.72Z"/><path class="cls-51" d="M161.65,98.75a9.21,9.21,0,0,0-1.24-1.1,2.86,2.86,0,0,1-.89,1.71A3,3,0,0,1,155,95.59,12.36,12.36,0,0,0,145.58,99a12.8,12.8,0,0,0-2.71,3.63c.14,5,4.37,9.28,5.2,10.11a20.61,20.61,0,0,0,7.34,4.91,12.83,12.83,0,0,0,4.94-2.85C165.15,110.29,165.73,103.11,161.65,98.75Z"/><path class="cls-53" d="M161.65,98.75a9.21,9.21,0,0,0-1.24-1.1,2.86,2.86,0,0,1-.89,1.71A3,3,0,0,1,155,95.59,12.36,12.36,0,0,0,145.58,99a12.8,12.8,0,0,0-2.71,3.63c.14,5,4.37,9.28,5.2,10.11a20.61,20.61,0,0,0,7.34,4.91,12.83,12.83,0,0,0,4.94-2.85C165.15,110.29,165.73,103.11,161.65,98.75Z"/><path class="cls-54" d="M115.94,58.19a3.43,3.43,0,0,0,4.84.16,3.45,3.45,0,0,0,.16-4.83,3.42,3.42,0,0,0-4.84-.16,3.24,3.24,0,0,0-.71,1A3.4,3.4,0,0,0,115.94,58.19Z"/><path class="cls-54" d="M155.34,99.22a3,3,0,0,0,4.18.14,2.86,2.86,0,0,0,.89-1.71,2.91,2.91,0,0,0-.75-2.47,3,3,0,0,0-4.18-.14,3.29,3.29,0,0,0-.45.55A2.94,2.94,0,0,0,155.34,99.22Z"/><path class="cls-30" d="M146.94,94.78c0,.07.85-.45,2.33-1a24.85,24.85,0,0,1,5-1.45,16.89,16.89,0,0,1,8.48,1,14.32,14.32,0,0,1,7.46,7.3,13.87,13.87,0,0,1,1,5.39,15.65,15.65,0,0,1-3.48,9.44,14.73,14.73,0,0,0,6.7-9.05,14,14,0,0,0-.2-6.51,12.91,12.91,0,0,0-3.79-6.21c-4.17-3.88-9.54-3.76-11-3.73C152.21,90.1,146.85,94.61,146.94,94.78Z"/><path class="cls-30" d="M134.35,72.64c-.08,0,.08-1.1,0-3a29.33,29.33,0,0,0-.77-5.94,20.26,20.26,0,0,0-4.89-8.59c-1.09-1-5.16-4.71-10.9-4.72a15.22,15.22,0,0,0-6,1.3,17.17,17.17,0,0,0-8.15,7.83c.16-1.27,1.08-7.34,6.28-11.09a15.27,15.27,0,0,1,6.8-2.64,14.49,14.49,0,0,1,8.12,1.31c5.88,2.73,8.19,8.49,8.8,10C136.79,65,134.56,72.65,134.35,72.64Z"/><path class="cls-55" d="M98.87,116.08c-.51.3-.22,2.49,1.1,3.81s3.83,1.63,4.11,1.1c.17-.33-.62-1.09-2.21-2.6C100.12,116.71,99.24,115.87,98.87,116.08Z"/><path class="cls-56" d="M80.76,60.12A6.92,6.92,0,0,1,77,62.93c-2.74.7-5.84-.62-6.88-2.24-3.31-5.16-.22-15.16.72-18.19s5.14-16.59,14-19.34c4.3-1.33,9.92-.15,10.45,3.39.19,1.2-.06,2.28-1.68,5.1-5.43,9.4-7.94,10-9.52,15.15a54.51,54.51,0,0,0-1.81,7.91C81.94,56.9,81.91,58.45,80.76,60.12Z"/><path class="cls-57" d="M80.84,60.17a7.4,7.4,0,0,1-2.39,2.3,6.41,6.41,0,0,1-3.23.9,7.84,7.84,0,0,1-3.36-.65,6.67,6.67,0,0,1-1.52-.93,3.88,3.88,0,0,1-.66-.68,8.78,8.78,0,0,1-.48-.76,10.2,10.2,0,0,1-.76-1.6A12.31,12.31,0,0,1,68,57.06a15.27,15.27,0,0,1-.27-3.43,29.2,29.2,0,0,1,1-6.67,67.74,67.74,0,0,1,4.81-12.37,41,41,0,0,1,3.39-5.7,20,20,0,0,1,4.68-4.81,11.94,11.94,0,0,1,6.49-2.24,12.32,12.32,0,0,1,3.51.32,7.07,7.07,0,0,1,3.29,1.76A4.56,4.56,0,0,1,96,25.64a5.07,5.07,0,0,1,.25,2A10.12,10.12,0,0,1,95,31.13a64.85,64.85,0,0,1-3.46,5.72c-1.27,1.83-2.66,3.61-4,5.28a21.78,21.78,0,0,0-1.8,2.58,18.24,18.24,0,0,0-1.28,2.87,52.38,52.38,0,0,0-1.84,6.27c-.27,1.06-.36,2.15-.58,3.24A7.31,7.31,0,0,1,80.84,60.17Zm-.16-.11a6.92,6.92,0,0,0,1.09-3c.13-1.07.19-2.18.32-3.28a61,61,0,0,1,1.13-6.55,15.69,15.69,0,0,1,1-3.27A17.08,17.08,0,0,1,86,41c1.3-1.82,2.61-3.5,3.79-5.32s2.33-3.67,3.39-5.51a8.27,8.27,0,0,0,1.09-2.68,2.67,2.67,0,0,0-.74-2.24,5.49,5.49,0,0,0-2.41-1.37,10.38,10.38,0,0,0-3-.43,12.19,12.19,0,0,0-3.06.36c-.49.16-1,.34-1.47.51s-.93.47-1.4.7c-3.65,2.19-6.25,6-8.08,9.87A42,42,0,0,0,71.88,41c-.59,2.1-1.13,4.22-1.53,6.34a44.61,44.61,0,0,0-.86,6.35,14.11,14.11,0,0,0,.83,6.09,6.9,6.9,0,0,0,.32.67,3.1,3.1,0,0,0,.43.56,5.24,5.24,0,0,0,1.19.92,7.12,7.12,0,0,0,3,.92,5.46,5.46,0,0,0,3.09-.62A7.1,7.1,0,0,0,80.68,60.06Z"/><path class="cls-58" d="M88.92,28.06c-2.33-1.13-5.56,1.42-6.59,2.23a16.45,16.45,0,0,0-4.84,7c-.86,2-6.36,14.65-4.88,15.37,1,.48,2.7-5.6,9.6-10.26,4.24-2.87,6.9-2.81,8.29-5.79S91.24,29.18,88.92,28.06Z"/><path class="cls-57" d="M88.88,28.15a4.14,4.14,0,0,0-3.81.62,15.31,15.31,0,0,0-3,2.62,26.46,26.46,0,0,0-4,6.8c-1.22,2.47-2.54,4.9-3.56,7.45a30.27,30.27,0,0,0-1.28,3.91,9.8,9.8,0,0,0-.34,2,1.78,1.78,0,0,0,.07.7s0,0-.11-.08-.07,0-.1,0h0a1.85,1.85,0,0,0,.22-.26c.69-1.06,1.32-2.38,2.1-3.54A24.85,24.85,0,0,1,77.6,45a24.22,24.22,0,0,1,6.81-5.17C85.68,39.19,87,38.66,88,38a5.3,5.3,0,0,0,1.32-1.12,6.13,6.13,0,0,0,.92-1.58,8,8,0,0,0,.54-3.86A4.16,4.16,0,0,0,88.88,28.15ZM89,28a3.63,3.63,0,0,1,1.53,1.45,6.65,6.65,0,0,1,.83,2,9.56,9.56,0,0,1,.19,4.33,6.42,6.42,0,0,1-.79,2.16,5.81,5.81,0,0,1-1.62,1.76,33.79,33.79,0,0,1-3.7,2.08A27.66,27.66,0,0,0,79,46.31a33.23,33.23,0,0,0-2.68,3c-.86,1.05-1.59,2.14-2.56,3.29a2.56,2.56,0,0,1-.53.45,1.45,1.45,0,0,1-.25.1.73.73,0,0,1-.36,0,.8.8,0,0,1-.51-.38A2.17,2.17,0,0,1,72,51.43a20.85,20.85,0,0,1,.54-2.07c.42-1.33.88-2.63,1.33-3.94.89-2.62,1.67-5.29,2.64-7.89a21.17,21.17,0,0,1,1.8-3.84,11.65,11.65,0,0,1,2.91-3.23,18.08,18.08,0,0,1,3.67-2.15,8.6,8.6,0,0,1,2-.6A3.49,3.49,0,0,1,89,28Z"/><path class="cls-59" d="M195.72,70.38a77.18,77.18,0,0,0-14.49-25,80.84,80.84,0,0,0-28.73-20.7,84.08,84.08,0,0,0-44.27-5.9,37.52,37.52,0,0,0-15,8.39l-.41.4a88.27,88.27,0,0,0-7.07,11c-1.31,2.41-2.44,4.74-3.41,6.94-.2.74-.35,1.4-.45,1.92l.17-.06c-.45.63-.87,1.28-1.29,1.92.46-1.2,1-2.46,1.57-3.78A38.71,38.71,0,0,1,85,38.25a10.3,10.3,0,0,0-8.12,1.61c-4.13-.8-10.94-.69-17.75-4.51C51.33,31,47.25,23.47,45.08,18.2c-.23.8-3.46,12.65,4.55,21.77,6.23,7.1,16.61,9.55,25.93,6a36.61,36.61,0,0,0-14.5,4.75c-8.28,4.93-10.4,11-20.49,21.1a107.39,107.39,0,0,1-10.7,9.35c8.19,0,24.3-1.27,36.18-12.76A50,50,0,0,0,77.28,51.77a12.34,12.34,0,0,1-1.4-1.4,8,8,0,0,1-2.16-5.28c1.75-.64,3.22-.83,4-.09.63.59.78,1.75.54,3.28a18,18,0,0,1-1,3.49,11,11,0,0,0,1.36,1,1.22,1.22,0,0,0,.19.12c3.31,1.93,8.59,2.4,11.26-.64,1.71-2,2-5,1.14-7.72a81.58,81.58,0,0,1,31.85-1.4A80.25,80.25,0,0,1,135.37,46a83.24,83.24,0,0,1,7.87,3,93,93,0,0,1,16.24,9.38,97.35,97.35,0,0,1,16.87,15.36,99.87,99.87,0,0,1,14,20.8,21.27,21.27,0,0,0,3-4A20.85,20.85,0,0,0,196,82.62,31.44,31.44,0,0,0,195.72,70.38Z"/><path class="cls-60" d="M74,43.27c-1.4,4.54,3.45,8.64,3.67,8.81,2.21,1.82,6.88,4.07,10.65,1.55,3.55-2.38,4.16-7.56,2.28-11a8.91,8.91,0,0,0-5.81-4.18C80.81,37.51,75.29,39.16,74,43.27Z"/><path class="cls-61" d="M74.08,43.29a5.91,5.91,0,0,0,0,3.31,9.5,9.5,0,0,0,1.52,3A12.88,12.88,0,0,0,77.87,52a12.39,12.39,0,0,0,2.87,1.64,8,8,0,0,0,6.34.3A7,7,0,0,0,91,49.11a8.83,8.83,0,0,0-.79-6.23,8.38,8.38,0,0,0-4.9-3.81,9.72,9.72,0,0,0-3.18-.46,11.49,11.49,0,0,0-3.24.47A8.39,8.39,0,0,0,76,40.59,5.92,5.92,0,0,0,74.08,43.29Zm-.1,0a7.7,7.7,0,0,1,4.72-4.69,11,11,0,0,1,6.89-.46,10.13,10.13,0,0,1,3.17,1.58,8.23,8.23,0,0,1,2.32,2.72,9.72,9.72,0,0,1,.68,6.9,7.67,7.67,0,0,1-4.43,5.22,7.31,7.31,0,0,1-3.46.48,10.64,10.64,0,0,1-3.33-.92,12.9,12.9,0,0,1-2.9-1.83,13.69,13.69,0,0,1-2.24-2.57A9.8,9.8,0,0,1,74,46.62,5.91,5.91,0,0,1,74,43.26Z"/><path class="cls-61" d="M79.88,38.51a26.64,26.64,0,0,0,.17,4.2,28.16,28.16,0,0,0,.85,4.06,13.7,13.7,0,0,0,1.62,3.85,12.82,12.82,0,0,0,2.83,3.09l1,.81-1.31-.26a14.49,14.49,0,0,1-3.75-1.34A13.75,13.75,0,0,1,78,50.63a14.65,14.65,0,0,1-2.5-3.11A13.48,13.48,0,0,1,74,43.88l.09,0a23.47,23.47,0,0,0,2,3.25,19.16,19.16,0,0,0,2.57,2.75,18.35,18.35,0,0,0,6.49,3.78l-.31.55a26,26,0,0,1-2.65-3.39A22.36,22.36,0,0,1,80.15,47a12.61,12.61,0,0,1-.89-4.25,12.84,12.84,0,0,1,.52-4.28Z"/><path class="cls-62" d="M46.09,104.08c-1.18-.57-2.27-1-3.25-1.39-.28-.11-.57-.21-.88-.31a87.21,87.21,0,0,0-13.4-2.9c-5.93-.76-11.37-1.22-16-1.51-.38,1.78-1,4.17-1.86,7a50.28,50.28,0,0,1-3,7.76,50.52,50.52,0,0,1-4.12,6.71c-1.23,1.77-2.26,3.25-3.51,4.73v12.23l.42.31c.89.52,6.58,3.9,6,5.79a1,1,0,0,1-.25.39c1.24-.25,2.52-.56,3.85-.93a58.61,58.61,0,0,0,7.14-2.48,61.69,61.69,0,0,0,22.39-16.38,44.11,44.11,0,0,0-10.82-16.43,32.1,32.1,0,0,1,13.19-2.87A26.87,26.87,0,0,1,46.09,104.08Z"/><path class="cls-63" d="M54.12,106.18a25,25,0,0,0-7.91-2.62,28.18,28.18,0,0,0-4.21-.34,32.27,32.27,0,0,0-13.19,2.87c.84,1.26,2.1,3.18,3.61,5.53,4.89,7.64,5.68,9.5,6.06,10.46a61,61,0,0,1,2.25,7.14c.42,1.63.69,3,.78,3.42,1.21,6.23.34,17-5.49,26.74-.26.43-.48.77-.59,1a84.88,84.88,0,0,0,25.93-31.71c.16-.35.3-.69.45-1a78.69,78.69,0,0,0,3.51-9.42c0-.13.09-.26.12-.38A27.24,27.24,0,0,0,54.12,106.18Z"/></g><g id="Layer_17" data-name="Layer 17"><ellipse class="cls-64" cx="29.5" cy="158.26" rx="2.82" ry="1.95" transform="translate(-102.36 65.9) rotate(-44.43)"/><ellipse class="cls-64" cx="6.41" cy="175.57" rx="3.16" ry="1.98" transform="translate(-86.42 26.41) rotate(-29.81)"/></g></g></svg>