<svg xmlns="http://www.w3.org/2000/svg" xmlns:xlink="http://www.w3.org/1999/xlink" viewBox="0 0 176.09 171.85"><defs><style>.cls-1{fill:url(#linear-gradient);}.cls-2{fill:#b2b6ba;}.cls-3{fill:#8c959d;}.cls-4{fill:url(#gold);}.cls-5{fill:url(#gold-2);}.cls-6{fill:#979148;}.cls-7{fill:url(#linear-gradient-2);}.cls-8{fill:url(#linear-gradient-3);}.cls-9{fill:url(#linear-gradient-4);}</style><linearGradient id="linear-gradient" x1="315.59" y1="297.72" x2="507.1" y2="297.72" gradientTransform="translate(-465.77 220.62) rotate(-43.09)" gradientUnits="userSpaceOnUse"><stop offset="0.56" stop-color="#8e572a"/><stop offset="0.73" stop-color="#a46c35"/><stop offset="0.99" stop-color="#ac8457"/></linearGradient><linearGradient id="gold" x1="78.77" y1="129.26" x2="113.15" y2="129.26" gradientUnits="userSpaceOnUse"><stop offset="0" stop-color="#e7c533"/><stop offset="0.5" stop-color="#f2c929"/><stop offset="0.99" stop-color="#ef9d00"/></linearGradient><linearGradient id="gold-2" x1="100.69" y1="112.16" x2="129.22" y2="112.16" xlink:href="#gold"/><linearGradient id="linear-gradient-2" x1="61.6" y1="156.63" x2="94.15" y2="126.18" gradientUnits="userSpaceOnUse"><stop offset="0.14" stop-color="#8e572a"/><stop offset="0.58" stop-color="#a46c35"/><stop offset="0.99" stop-color="#ac8457"/></linearGradient><linearGradient id="linear-gradient-3" x1="70.72" y1="162.54" x2="107.3" y2="128.32" xlink:href="#linear-gradient-2"/><linearGradient id="linear-gradient-4" x1="-150.36" y1="145" x2="52.13" y2="145" gradientUnits="userSpaceOnUse"><stop offset="0" stop-color="#fff7a9"/><stop offset="0.86" stop-color="#fff1bd"/><stop offset="1" stop-color="#ffffe9"/></linearGradient></defs><g id="Layer_2" data-name="Layer 2"><g id="Layer_18" data-name="Layer 18"><path class="cls-1" d="M80.81,143.54a8.14,8.14,0,0,1-2-5.11l10.75-11c-1.44-.07-3.15.52-6,3.12-3.94,3.65-3.19,4.86-6.52,8.36-1.29,1.35-6,6.15-13.11,7.06l-.4,0C59.7,146.48,52.87,146,41,140c-8.83-4.47-21.11-2-22.53,1.67-1.71,4.4,11,13.12,13.93,15.06a40,40,0,0,0,13.21,4.48c13.37,2,23.92-3.5,27.73-5.57a48.57,48.57,0,0,0,11.5-8.66l.31-.2c.2-.14.49-.34.84-.61A8.17,8.17,0,0,1,80.81,143.54Z"/><path class="cls-2" d="M137,92.79c8.75-11.07,26.67-34.34,28.58-66.93a96.6,96.6,0,0,0-.18-13.81A41.88,41.88,0,0,0,175.87.68V0a41.88,41.88,0,0,1-14,13.89,41.57,41.57,0,0,1-13.42,5.16,156.06,156.06,0,0,1-5.82,30.07,159.38,159.38,0,0,1-32,58l6.12,6.49A150,150,0,0,0,137,92.79Z"/><path class="cls-3" d="M176.08.34c-.06.11-.14.23-.21.34a41.88,41.88,0,0,1-10.51,11.37,96.6,96.6,0,0,1,.18,13.81C163.63,58.45,145.71,81.72,137,92.79a150,150,0,0,1-20.14,20.86l3.06,3.24a143.4,143.4,0,0,0,34-37.15C174.4,47.22,176.2,14.93,176.08.34Z"/><path class="cls-4" d="M104.35,112.35,89.52,127.47l-10.75,11a7.93,7.93,0,0,0,7.25,7.7c.25,0,.43,0,.53,0l14.17-13,12.43-11.37-1-.83A46,46,0,0,1,104.35,112.35Z"/><path class="cls-5" d="M116.82,113.65l-6.12-6.49-4.27-4.53a3.22,3.22,0,0,0,1.34-3.57,3.35,3.35,0,0,0-3.48-2.1A3.68,3.68,0,0,0,102,98.1c-1.9,2-1.3,5.29-1,6.84a16.15,16.15,0,0,0,2.2,5.61q.47.8,1.14,1.8a46,46,0,0,0,7.84,8.65l1,.83c5.47,4.61,8.26,5.22,9.4,5.4,3,.49,4.38-.37,4.87-.77,1.22-1,2.31-2.95,1.55-4.53s-3.23-2.42-5.56-1.3l-3.53-3.74Zm9.72,11.06a1.77,1.77,0,0,0,.64-1.64,1,1,0,0,0-.84-.72c-.44,0-.91.28-.92.56s.92.64.88.75a1.2,1.2,0,0,1-1.31-.47c-.3-.57.25-1.23.29-1.28a1.53,1.53,0,0,1,1.36-.5,2,2,0,0,1,1.43,1.8,2.86,2.86,0,0,1-1.3,2.25c-1.86,1.34-4.66.39-5.92-.06-2.71-1-5-2.61-10.67-9-5.13-5.83-6.9-8.67-7.65-12s.13-4.68.53-5.12c.13-.14,1.17-1.26,2.26-.91a1.83,1.83,0,0,1,1.21,2c-.12.56-.63,1.2-1.19,1.14a1,1,0,0,1-.77-.71c-.06-.27,0-.56.1-.57s.12.57.45.7a.81.81,0,0,0,.85-.42,1.06,1.06,0,0,0-.12-1.13,1.29,1.29,0,0,0-1-.5,1.66,1.66,0,0,0-1.18.41,2.13,2.13,0,0,0-.64,1.13,3.22,3.22,0,0,0,0,1.51,13.12,13.12,0,0,0,1.34,4,67.28,67.28,0,0,0,5.77,7.94c3.62,4.2,5.23,5.82,6.09,6.67,2.21,2.17,4,3.72,6.62,4.43C123.7,125.17,125.51,125.64,126.54,124.71Z"/><path class="cls-6" d="M110.13,113.84a67.28,67.28,0,0,1-5.77-7.94,13.12,13.12,0,0,1-1.34-4,3.22,3.22,0,0,1,0-1.51,2.13,2.13,0,0,1,.64-1.13,1.66,1.66,0,0,1,1.18-.41,1.29,1.29,0,0,1,1,.5,1.06,1.06,0,0,1,.12,1.13.81.81,0,0,1-.85.42c-.33-.13-.33-.71-.45-.7s-.16.3-.1.57a1,1,0,0,0,.77.71c.56.06,1.07-.58,1.19-1.14a1.83,1.83,0,0,0-1.21-2c-1.09-.35-2.13.77-2.26.91-.4.44-1.31,1.72-.53,5.12s2.52,6.12,7.65,12c5.63,6.42,8,8.07,10.67,9,1.26.45,4.06,1.4,5.92.06a2.86,2.86,0,0,0,1.3-2.25,2,2,0,0,0-1.43-1.8,1.53,1.53,0,0,0-1.36.5s-.59.71-.29,1.28a1.2,1.2,0,0,0,1.31.47c0-.11-.88-.34-.88-.75s.48-.6.92-.56a1,1,0,0,1,.84.72,1.77,1.77,0,0,1-.64,1.64c-1,.93-2.84.46-3.7.23-2.6-.71-4.41-2.26-6.62-4.43C115.36,119.66,113.75,118,110.13,113.84Z"/><path class="cls-7" d="M77.27,142.7c3,2.55,7.92.54,10.31-1.84,2-2,3.25-5.36,2.26-6.36-.75-.75-2.13.45-5.23.71-4.78.4-6.78-2-8.33-.85C74.53,135.67,74.67,140.48,77.27,142.7Z"/><path class="cls-8" d="M86,143.93c-.23-1.89,2.92-2.49,6.45-7,2.48-3.15,2.61-5,3.83-5,1.84,0,4.2,4.23,3.56,8s-4.26,7.17-8.18,7.12C89.29,147.06,86.25,145.71,86,143.93Z"/><path class="cls-9" d="M40.69,134.06c-1.88-2.73-2.39-4.5-4.67-7.53a34.74,34.74,0,0,0-9.12-8.39c-3.15,7.66-7.27,11.53-10.48,13.66-5.14,3.41-8.88,2.95-11.52,7.3-1,1.67-1.88,4.47-3.61,10.06-.57,1.83-1,3.36-1.29,4.38,3.22,2.36,5.89,4.59,8,6.45.66.58,3.13,2.79,6.19,5.93,2.16,2.21,4,4.23,5.42,5.93a32.47,32.47,0,0,1,8-6.87c1.55-.95,2.3-1.18,4.18-2.29a68,68,0,0,0,8.89-6.28,69.64,69.64,0,0,0,11-11.66l.47-.63A32.62,32.62,0,0,1,40.69,134.06Z"/></g></g></svg>