<svg xmlns="http://www.w3.org/2000/svg" viewBox="0 0 273.21 102.43"><defs><style>.cls-1{fill:#54067f;}.cls-2{fill:none;}.cls-2,.cls-3{stroke:#fff;stroke-miterlimit:10;stroke-width:3px;}.cls-3{fill:#360452;}.cls-4{font-size:42px;font-family:MyriadPro-Regular, Myriad Pro;}.cls-4,.cls-8{fill:#fff;}.cls-5{letter-spacing:-0.04em;}.cls-6{letter-spacing:-0.01em;}.cls-7{letter-spacing:0em;}</style></defs><g id="Layer_2" data-name="Layer 2"><g id="Layer_1-2" data-name="Layer 1"><g id="Layer_3" data-name="Layer 3"><path class="cls-1" d="M271.71,51.19c0,27.23-22.68,49.5-50.4,49.5H52.11c-27.72,0-50.4-22.27-50.4-49.5s22.68-49.5,50.4-49.5h169.2C249,1.69,271.71,24,271.71,51.19Z"/><path class="cls-2" d="M271.71,51.19c0,27.23-22.68,49.5-50.4,49.5H52.11c-27.72,0-50.4-22.27-50.4-49.5s22.68-49.5,50.4-49.5h169.2C249,1.69,271.71,24,271.71,51.19Z"/><path class="cls-3" d="M73.71,100.69c-3,.16-7.34.31-12.55.2-7.28-.16-16-.35-23.2-2.24-5.08-1.32-15.47-5-26-17.36C9.52,78.18,0,65.05,1.71,46.69a49,49,0,0,1,10.63-26A55.3,55.3,0,0,1,27.76,7.92,48.39,48.39,0,0,1,38.17,3.58,47.24,47.24,0,0,1,47.88,2a251.9,251.9,0,0,1,25.83-.32Z"/><text class="cls-4" transform="translate(96.06 63.32)"><tspan class="cls-5">T</tspan><tspan x="18.98" y="0">u</tspan><tspan class="cls-6" x="42.13" y="0">t</tspan><tspan x="55.78" y="0">o</tspan><tspan class="cls-7" x="78.83" y="0">r</tspan><tspan x="92.73" y="0">ial</tspan></text></g><circle class="cls-8" cx="28.59" cy="41.48" r="5.92"/><path class="cls-8" d="M17.56,67.17c0-2.51-.11-6.63-.13-11.6a6,6,0,0,1,.39-2.23A4.65,4.65,0,0,1,20,50.79a5.49,5.49,0,0,1,1.91-.64,7.34,7.34,0,0,1,2.81.07l3.7,5.54,4-5.54a7.52,7.52,0,0,1,2.1-.07A4.77,4.77,0,0,1,38,51.94a8.57,8.57,0,0,1,1.33,2.29c.38.78.94,1.88,1.73,3.19l6.5.13a4.07,4.07,0,0,1,1.21,1.14,2.37,2.37,0,0,1,.57,1.47,2.26,2.26,0,0,1-.57,1.27,3.64,3.64,0,0,1-1.09,1L39,62.33A1.68,1.68,0,0,1,38,61.94a1.66,1.66,0,0,1-.58-1.08l-2.61-4.27-.13,10.64Z"/><path class="cls-8" d="M48.41,57.25l9.93-7.09.5.07.29.43h0L48.73,60l-1.91-1.62Z"/><rect class="cls-8" x="39.62" y="35.53" width="26.77" height="2.29"/><rect class="cls-8" x="47.07" y="40.47" width="19.34" height="2.29"/><rect class="cls-8" x="47.08" y="45.28" width="19.34" height="2.29"/></g></g></svg>