<?xml version="1.0" encoding="utf-8"?>
<!-- Generator: Adobe Illustrator 22.0.1, SVG Export Plug-In . SVG Version: 6.00 Build 0)  -->
<svg version="1.1" id="ARTWORK" xmlns="http://www.w3.org/2000/svg" xmlns:xlink="http://www.w3.org/1999/xlink" x="0px" y="0px"
	 viewBox="0 0 200 170" style="enable-background:new 0 0 200 170;" xml:space="preserve">
<style type="text/css">
	.st0{fill:#FF8400;}
	.st1{fill:#0C315E;}
	.st2{fill:#FFFFFF;}
	.st3{fill:#084673;}
	.st4{fill:#1A6399;}
	.st5{fill:#5DACD4;}
	.st6{fill:#0C315E;fill-opacity:0.3;}
	.st7{fill:#07416B;}
</style>
<title>pegPeople-earnStars</title>
<polygon class="st0" points="128.1,159 129.2,154.9 125.2,155.9 121.7,153.7 121.4,157.8 118.1,160.4 121.3,161.7 129.8,161.7 "/>
<polygon class="st0" points="142.8,84.2 149,77.2 152.2,86 160.8,89.6 153.5,95.4 152.7,104.7 144.9,99.5 135.8,101.6 138.3,92.6 
	133.5,84.6 "/>
<polygon class="st0" points="169.2,104.4 173.1,98.4 176.5,104.7 183.3,106.5 178.5,111.7 178.8,118.8 172.4,115.7 165.8,118.3 
	166.7,111.2 162.3,105.7 "/>
<polygon class="st0" points="84.5,101.3 87.9,98.5 88.8,102.8 92.5,105.2 88.6,107.3 87.5,111.6 84.3,108.6 79.9,108.9 81.8,104.9 
	80.1,100.8 "/>
<polygon class="st0" points="173.1,80.9 175.3,80.6 174.4,82.7 175.3,84.8 173.1,84.6 171.4,86.1 170.9,83.9 169,82.7 170.9,81.6 
	171.4,79.4 "/>
<polygon class="st0" points="188.9,139.2 190.5,140.9 188.3,141.4 187.2,143.4 186,141.5 183.8,141 185.2,139.3 184.9,137.1 
	187,137.9 189.1,137 "/>
<polygon class="st0" points="80.3,150.4 81.8,152.1 79.6,152.6 78.5,154.6 77.3,152.7 75.1,152.2 76.6,150.5 76.3,148.2 78.4,149.1 
	80.4,148.2 "/>
<polygon class="st1" points="124.9,101.8 137.4,136.3 125.6,100.7 125.1,102 "/>
<polygon class="st1" points="127.5,124.2 118.8,96.5 117.7,96.5 "/>
<polygon class="st0" points="94.1,156.2 91.3,155 93.7,153.1 93.9,150 96.5,151.7 99.5,151 98.7,154 100.3,156.6 97.2,156.8 
	95.2,159.1 "/>
<polygon class="st1" points="137.1,122.7 97.2,149.9 100.4,149.1 "/>
<polygon class="st1" points="128.4,134.9 100.6,154 101.3,155.1 "/>
<polygon class="st0" points="168.7,156.2 162.8,161.2 161.2,153.7 154.6,149.6 161.4,145.8 163.2,138.3 168.9,143.5 176.6,142.9 
	173.4,149.9 176.3,157.1 "/>
<path class="st2" d="M164.8,151.3c1.3-0.3,2.1-1.5,2-2.8l0.5-49.3c0.1-1.3-0.7-2.5-2-2.9L102.2,91c-1.6-0.2-3.2,0.9-3.4,2.6
	c0,0.1,0,0.3,0,0.4l-0.5,61c0,1.7,1.3,3,2.9,3.1c0.1,0,0.3,0,0.4,0L164.8,151.3z"/>
<path class="st3" d="M164.5,150.3c1.2-0.3,2.1-1.5,2-2.8l0.5-47.8c0.1-1.3-0.7-2.4-1.9-2.8l-61.3-5.1c-1.6-0.2-3,0.9-3.3,2.4
	c0,0.2,0,0.3,0,0.5l-0.5,59.2c-0.1,1.6,1.2,2.9,2.8,3c0.2,0,0.3,0,0.5,0L164.5,150.3z"/>
<path class="st4" d="M179.4,129.9c-4,6.8-12.7,9-19.4,5.1c-6.8-4-9-12.7-5.1-19.4c4-6.8,12.7-9,19.4-5.1
	C181.1,114.4,183.4,123.1,179.4,129.9C179.4,129.9,179.4,129.9,179.4,129.9z"/>
<path class="st4" d="M111.7,135.5c-5,8.5-15.9,11.4-24.4,6.4s-11.4-15.9-6.4-24.4c5-8.5,15.9-11.4,24.4-6.4
	C113.9,116,116.7,127,111.7,135.5C111.7,135.5,111.7,135.5,111.7,135.5z"/>
<path class="st4" d="M111.7,135.5c-5,8.5-15.9,11.4-24.4,6.4s-11.4-15.9-6.4-24.4c5-8.5,15.9-11.4,24.4-6.4
	C113.9,116,116.7,127,111.7,135.5C111.7,135.5,111.7,135.5,111.7,135.5z"/>
<path class="st5" d="M82.4,119.6c5-8.5,15.9-11.4,24.4-6.4c1.9,1.1,3.6,2.6,4.9,4.3c-1.5-2.7-3.7-4.9-6.4-6.4
	c-8.5-5-19.4-2.2-24.5,6.3c-3.8,6.4-3.2,14.5,1.5,20.3C79.1,132.1,79.2,125.2,82.4,119.6z"/>
<polygon class="st6" points="68.8,86.7 71.4,84.5 72.1,87.8 75,89.6 72,91.3 71.2,94.6 68.7,92.3 65.3,92.5 66.7,89.4 65.4,86.2 "/>
<path class="st4" d="M12.8,129.9c5.1-27.7,25.8-32,39.8-27c29.6,10.7,15.5,41.9,13.1,48.3c-1.1,3.4-1.8,6.9-2,10.5H11
	C10.2,151.1,10.8,140.4,12.8,129.9z"/>
<path class="st5" d="M15.3,132.8c5.1-27.7,25.8-32,39.8-27c4.2,1.4,8,3.7,11.3,6.7c-2.9-3.9-7.3-7.2-13.8-9.5
	c-14-5-34.7-0.8-39.8,27c-2,10.5-2.6,21.2-1.8,31.8h2.3C12.9,152,13.5,142.3,15.3,132.8z"/>
<path class="st4" d="M112.6,35.8c9.5,22.9-1.4,49.2-24.3,58.6S39.2,93,29.7,70.1S31.1,21,54,11.5c0,0,0,0,0,0
	C76.9,2,103.1,12.8,112.6,35.8C112.6,35.7,112.6,35.7,112.6,35.8z"/>
<path class="st5" d="M58.4,13.1c9.6-4,20.4-4.6,30.3-1.5c-22.8-9.7-49.2,0.8-58.9,23.6s0.8,49.2,23.6,58.9c1.5,0.6,3,1.2,4.6,1.7
	C35.2,86.1,24.6,59.8,34.3,37C38.9,26.1,47.5,17.6,58.4,13.1L58.4,13.1z"/>
<path class="st2" d="M53.9,69.8C53.4,79.8,61.1,88.4,71.2,89c7.7,0.4,14.8-4.1,17.8-11.2L53.9,69.8z"/>
<path class="st7" d="M133.8,121.4c0.2,1.1,0.8,2.1,1.7,2.8c0.9,0.6,2,0.8,3.1,0.6c0.4,0,0.7,0,1.1,0c0.1,0.1,0.1,0.2,0.2,0.3
	c0,0-0.4,2.4-4.1,1.8c-4.2-0.8-3.9-4.5-3.6-5s0.9-0.8,1.2-1.4s0.2-0.9,0.2-0.9l0.2-0.1c0-0.1,0-0.2,0.1-0.3l0.4,0.1l0.3,0.5
	l-0.2,0.2c0,0.1,0,0.2,0,0.3C134,120.5,133.8,120.9,133.8,121.4z"/>
<polygon class="st0" points="118.4,76.1 123,72.8 123.7,78.5 128.3,81.9 123.1,84.3 121.3,89.7 117.4,85.5 111.8,85.5 114.5,80.5 
	112.8,75.1 "/>
</svg>
