<?xml version="1.0" encoding="utf-8"?>
<!-- Generator: Adobe Illustrator 22.0.1, SVG Export Plug-In . SVG Version: 6.00 Build 0)  -->
<svg version="1.1" id="ARTWORK" xmlns="http://www.w3.org/2000/svg" xmlns:xlink="http://www.w3.org/1999/xlink" x="0px" y="0px"
	 viewBox="0 0 202 170" style="enable-background:new 0 0 202 170;" xml:space="preserve">
<style type="text/css">
	.st0{fill:#1A6399;}
	.st1{fill:#8EC3DE;}
	.st2{fill:#FFFFFF;}
	.st3{fill:#5DACD4;}
</style>
<title>pegPeople-monitor</title>
<rect x="19.6" y="88.2" class="st0" width="5.1" height="35.1"/>
<rect x="45.1" y="101.4" class="st0" width="5.1" height="22.3"/>
<rect x="53.6" y="91.5" class="st0" width="5.1" height="32.2"/>
<rect x="62.1" y="97.7" class="st0" width="5.1" height="26"/>
<polygon class="st1" points="108.4,117 138.4,95.1 144.7,102.9 151.1,83.7 156.3,96.4 173.7,83.8 176.7,88 154.1,104.4 151.6,98.5 
	146.6,113.5 137.5,102.1 111.4,121.1 "/>
<path class="st0" d="M13.1,13.7v54.9H98V13.7H13.1z M96,66.6H15.2V15.8H96V66.6z"/>
<path class="st0" d="M13.1,73.9v54.9H98V73.9H13.1z M96,126.9H15.2V76H96V126.9z"/>
<path class="st0" d="M104,13.7v54.9h84.9V13.7H104z M186.8,66.6H106V15.8h80.8L186.8,66.6z"/>
<path class="st0" d="M104,73.9v54.9h84.9V73.9H104z M186.8,126.9H106V76h80.8L186.8,126.9z"/>
<path class="st0" d="M166.9,42.3c0,11.7-9.5,21.2-21.1,21.2c-11.7,0-21.2-9.5-21.2-21.1c0-11.7,9.5-21.2,21.1-21.2c0,0,0,0,0,0
	C157.4,21.1,166.9,30.6,166.9,42.3z"/>
<path class="st2" d="M167.8,39.4c-1.4-8.7-7.6-15.8-15.9-18.5l-6.1,21.4L167.8,39.4z"/>
<path class="st0" d="M170.7,36.5c-1.1-8.3-7-15.2-15.1-17.5l-5.9,20.3L170.7,36.5z"/>
<rect x="18.8" y="20" class="st0" width="69.9" height="10.1"/>
<rect x="18.8" y="30.2" class="st3" width="39.1" height="10.1"/>
<rect x="18.8" y="42.9" class="st0" width="28.8" height="10.1"/>
<rect x="28.1" y="109.3" class="st0" width="5.1" height="14.1"/>
<rect x="36.6" y="104.2" class="st0" width="5.1" height="19.5"/>
<rect x="18.8" y="53.1" class="st3" width="52.1" height="10.2"/>
<polygon class="st1" points="170.4,79.5 182.5,80.5 179.6,92.3 "/>
<path class="st2" d="M58.3,161.1l-1.8-13.8c-0.7-5.1,0.6-10.1,3.4-13.2c1.3-1.5,2.9-2.5,4.7-3.1C56.9,111,66.9,88.4,87,80.7
	c20.1-7.7,42.6,2.3,50.4,22.3c1.7,4.4,2.6,9.2,2.6,13.9c0,0.2,0,0.4,0,0.6v0.4c0,0.2,0,0.4,0,0.6c0,4.1-0.7,8.2-2,12.1
	c2.4,0.2,4.7,1.4,6.3,3.2c2.7,2.9,4.1,7.3,3.8,12.1c0.1,1.2,0,2.4-0.1,3.6l-1.5,11.6L58.3,161.1z"/>
<path class="st3" d="M137.6,116.9c0,20.2-16.4,36.6-36.6,36.6s-36.6-16.4-36.6-36.6c0-20.2,16.4-36.6,36.6-36.6
	C121.2,80.3,137.6,96.7,137.6,116.9C137.6,116.9,137.6,116.9,137.6,116.9z"/>
<circle class="st0" cx="102.7" cy="118.6" r="34.9"/>
<path class="st3" d="M145.6,147c1-7.5-2.8-14.1-8.5-14.1H67.4c-5.7,0-9.5,6.5-8.5,14.1l1.5,11.8h83.8L145.6,147z"/>
<path class="st0" d="M145.6,149.3c0.9-7.2-2.7-13.5-8.2-13.5H69.1c-5.5,0-9.1,6.3-8.2,13.5l1.2,9.5h82.3L145.6,149.3z"/>
</svg>
