<?xml version="1.0" encoding="utf-8"?>
<!-- Generator: Adobe Illustrator 22.0.1, SVG Export Plug-In . SVG Version: 6.00 Build 0)  -->
<svg version="1.1" id="ARTWORK" xmlns="http://www.w3.org/2000/svg" xmlns:xlink="http://www.w3.org/1999/xlink" x="0px" y="0px"
	 viewBox="0 0 200 170" style="enable-background:new 0 0 200 170;" xml:space="preserve">
<style type="text/css">
	.st0{fill:#5DACD4;}
	.st1{fill:#1A6399;}
	.st2{fill:#F0A835;}
	.st3{fill:#FA6502;}
</style>
<title>pegPeople-addStudents</title>
<path class="st0" d="M155.3,56.5c0,18-13.1,32.5-29.3,32.5S96.7,74.5,96.7,56.5S109.8,24,125.9,24S155.3,38.5,155.3,56.5z"/>
<path class="st1" d="M155.3,58c0,17.1-12.5,31-27.9,31s-28-13.9-28-31s12.5-31,28-31S155.3,40.9,155.3,58z"/>
<path class="st1" d="M126.2,90.8c0,0-18.6-0.8-18,22.8s6.8,35.7,18,35.7s17.4-12.2,18-35.7S126.2,90.8,126.2,90.8z"/>
<path class="st0" d="M110.2,114.3c-0.6-23.5,18-22.8,18-22.8c1.8,0,3.5,0.3,5.2,0.8c-2.3-1-4.7-1.5-7.2-1.5c0,0-18.6-0.8-18,22.8
	c0.6,20.9,5.5,32.8,14.4,35.2C114.9,145.3,110.8,133.6,110.2,114.3z"/>
<path class="st1" d="M40.8,73.1c0,0-18.6-0.8-18,22.8s6.8,35.7,18,35.7s17.4-12.2,18-35.7S40.8,73.1,40.8,73.1z"/>
<path class="st0" d="M72.3,40.5C72.3,57.8,58.2,72,40.8,72S9.3,57.9,9.3,40.5S23.4,9,40.8,9l0,0C58.2,9,72.3,23.1,72.3,40.5z"/>
<path class="st1" d="M72.3,42c0,16.6-13.4,30-30,30s-30-13.4-30-30s13.4-30,30-30S72.3,25.4,72.3,42z"/>
<path class="st0" d="M24.8,96.7c-0.6-23.5,18-22.8,18-22.8c1.7,0,3.5,0.3,5.2,0.8c-2.3-1-4.7-1.5-7.2-1.5c0,0-18.6-0.8-18,22.8
	c0.5,20.9,5.5,32.8,14.4,35.2C29.5,127.5,25.3,115.8,24.8,96.7z"/>
<path class="st0" d="M117.8,69.1c0,17.4-14.1,31.5-31.5,31.5s-31.5-14-31.5-31.4s14.1-31.5,31.5-31.5l0,0
	C103.7,37.6,117.8,51.7,117.8,69.1L117.8,69.1z"/>
<path class="st1" d="M117.8,70.6c0,16.6-13.4,30-30,30s-30-13.4-30-30s13.4-30,30-30S117.8,54,117.8,70.6z"/>
<path class="st1" d="M87.6,102.8c0,0-18.6-0.8-18,22.8s6.8,35.7,18,35.7s17.4-12.2,18-35.7S87.6,102.8,87.6,102.8z"/>
<path class="st0" d="M71.7,126.5c-0.6-23.5,18-22.8,18-22.8c1.8,0,3.5,0.3,5.2,0.8c-2.3-1-4.7-1.5-7.2-1.5c0,0-18.6-0.8-18,22.8
	c0.6,20.9,5.5,32.8,14.4,35.2C76.4,157.3,72.2,145.6,71.7,126.5z"/>
<polygon class="st2" points="150.4,140.1 150.4,119.5 129.6,119.5 129.6,101 150.4,101 150.4,80.2 168.9,80.2 168.9,101 189.8,101 
	189.8,119.5 168.9,119.5 168.9,140.1 "/>
<polygon class="st3" points="151.4,139.3 151.4,118.6 130.6,118.6 130.6,101.8 151.4,101.8 151.4,81.1 167.9,81.1 167.9,101.8 
	188.9,101.8 188.9,118.6 167.9,118.6 167.9,139.3 "/>
</svg>
