<?xml version="1.0" encoding="utf-8"?>
<!-- Generator: Adobe Illustrator 22.0.1, SVG Export Plug-In . SVG Version: 6.00 Build 0)  -->
<svg version="1.1" id="Layer_1" xmlns="http://www.w3.org/2000/svg" xmlns:xlink="http://www.w3.org/1999/xlink" x="0px" y="0px"
	 viewBox="0 0 500 300" style="enable-background:new 0 0 500 300;" xml:space="preserve">
<style type="text/css">
	.st0{fill:#C83192;}
	.st1{fill:#FFFFFF;}
	.st2{fill:none;stroke:#000000;stroke-width:6;stroke-linecap:round;stroke-linejoin:round;stroke-miterlimit:10;}
</style>
<g>
	<rect x="8" y="33.2" class="st0" width="361" height="166.4"/>
	<g>
		<path class="st1" d="M138.3,109.7c-1.9,0-3.6,1.8-3.8,4.4c-1.8-3.3-4.6-4.8-7.5-4.8c-7.3,0-13.1,8.9-13.1,20.4
			c0,11.9,5.7,20.3,13.1,20.3c3,0,5.5-1.7,7.5-4.9c0.5,2.8,1.5,4.5,3.8,4.5c3.8,0,3.8-4.2,3.8-6.9v-26.1
			C142.1,113.9,142.1,109.7,138.3,109.7z M128.1,140.4c-4.3,0-6.3-5.6-6.3-10.6c0-5.1,1.9-10.8,6.3-10.8c4.2,0,6.1,5.7,6.1,10.8
			C134.2,134.8,132.2,140.4,128.1,140.4z"/>
		<path class="st1" d="M99.9,127.4c5.6-1.2,10.2-5.8,10.2-13.9c0-11.5-5.2-16.6-13.7-16.6h-9.7c-2.7,0-4.2,2.2-4.2,5.7v41.2
			c0,3.7,1.8,5.7,4.1,5.7c2.4,0,4.1-2.1,4.1-5.7V128h0.1l12.2,19.7c0.9,1.4,2.2,1.9,3.2,1.9c2.4,0,4.1-2.8,4.1-5.6
			c0-1-0.3-2.1-1.1-3.2L99.9,127.4z M96.4,120.1h-5.7v-13h5.7c3,0,5.1,2.3,5.1,6.4C101.5,117.7,99.4,120.1,96.4,120.1z"/>
		<path class="st1" d="M145.7,100.3c-1.7-0.7-3.5-0.4-4.4,0.3c-1,0.8-0.3,2,0.3,2.4c0.6,0.4,1.3,0,2.1-0.1c1.2,0,1.9,0.5,2.6-0.1
			C147.1,102.1,146.7,100.7,145.7,100.3z"/>
		<path class="st1" d="M168.8,139.9h-10.4l12.5-23.3c0.6-1.1,0.8-1.8,0.8-3.2c0-2.9-1.9-3.3-2.6-3.3h-18c-2,0-3.6,1.7-3.6,4.6
			c0,2.9,1.6,4.6,3.6,4.6h9.2l-12.4,23.3c-0.3,0.6-0.7,1.7-0.7,2.9c0,2.4,1.5,3.6,3.2,3.6h18.4c2,0,3.6-1.7,3.6-4.6
			C172.4,141.6,170.8,139.9,168.8,139.9z"/>
		<path class="st1" d="M133.7,84.6c0.4,0.5,0.3,1,0.8,1.4c1.1,0.9,3.8,0.4,3.9-1c0-0.7-0.8-1-1.2-1.7l-3.4-6.2
			c-0.3-0.5-0.4-1-0.9-1.3c-1.3-0.9-3.9,0.4-3.8,1.8l1.3,1.1L133.7,84.6z"/>
		<path class="st1" d="M150.4,79.9c0.1,1-0.5,2.3-0.3,2.6c1,1.1,2.7,0.7,3.6-0.4c0.8-0.9,0.1-1.6,0-2.7l-0.2-5.3
			c0-0.9,0.9-1.5,0.4-2.3c-0.6-0.9-2.7-0.9-3.6,0c-0.6,0.6-0.4,1.6-0.3,2.6L150.4,79.9z"/>
		<path class="st1" d="M117.9,97l2,0.9l3.2,1.4c1.1,0.5,1.6,1.3,2.9,1c1.5-0.3,2.6-2.6,1.8-3.8c-0.2-0.3-1.8-0.4-2.8-0.8l-5.3-2.4
			c-1-0.4-1.9-1-2.8-0.8c-1.3,0.4-2.1,3.2-1.4,4C116,97.1,117,96.6,117.9,97z"/>
		<path class="st1" d="M158.7,102.8c1.2,0,1.9,0.5,2.6-0.1c0.7-0.6,0.3-2-0.7-2.4c-1.7-0.7-3.5-0.4-4.4,0.3c-1,0.8-0.3,2,0.3,2.4
			C157.2,103.2,157.9,102.8,158.7,102.8z"/>
		<path class="st1" d="M172.2,76.3c-0.6,0.3-0.6,0.8-1,1.3l-4.6,7c-0.4,0.6-1.2,0.9-1.2,1.7c0,1.3,2.8,1.9,3.9,1
			c0.5-0.4,0.4-0.9,0.8-1.4l4.5-6.5l1.4-1.1C176.1,76.8,173.6,75.5,172.2,76.3z"/>
		<path class="st1" d="M151.2,86.4c-11.7,0-21.2,6.9-21.2,15.4c0,1.4,1.3,2.5,2.8,2.5c1.6,0,2.8-1.1,2.8-2.5c0-5.8,7-10.5,15.6-10.5
			c8.6,0,15.6,4.6,15.6,10.4c0,1.4,1.3,2.5,2.8,2.5c1.6,0,2.8-1.1,2.8-2.5C172.4,93.3,162.9,86.4,151.2,86.4z"/>
		<path class="st1" d="M177.1,100.7c1.2,0.2,1.7-0.6,2.8-1.1l5.5-2.6l1.9-0.9c0.9-0.4,2,0.1,2.5-0.7c0.6-0.8-0.4-3.6-1.7-3.9
			c-0.9-0.2-1.8,0.4-2.8,0.8l-7.6,3.6c-1,0.5-2.6,0.6-2.8,0.9C174.3,98.2,175.6,100.4,177.1,100.7z"/>
		<path class="st1" d="M189.6,123.6h-15.7c-2,0.2-3.1,2.1-3.1,4.7c0,2.5,1.1,4.3,3.1,4.5h15.7c2-0.2,3.1-2.1,3.1-4.5
			C192.7,125.7,191.6,123.8,189.6,123.6z"/>
		<g>
			<path class="st1" d="M206.4,143c0,3.9-1.8,6.6-4.3,6.6c-2.6,0-4.4-2.7-4.4-6.6v-38.9c0-4.6,1.9-7.2,5.3-7.2h9
				c8.5,0,13.7,6.7,13.7,17.5c0,10.5-5,17.3-12.6,17.3h-6.6V143z M210.8,121.4c3.5,0,5.8-2.8,5.8-7c0-4.3-2.1-7.2-5.4-7.2h-4.9v14.2
				H210.8z"/>
			<path class="st1" d="M237.9,143.4c0,3.5-1.8,5.9-4.3,5.9c-2.6,0-4.4-2.4-4.4-5.9v-41.8c0-3.5,1.8-5.9,4.3-5.9
				c2.6,0,4.4,2.4,4.4,5.9v1.2V143.4z"/>
			<path class="st1" d="M269,133.4c0,9.7-5.2,16.2-13,16.2c-7.8,0-13-6.5-13-16.2v-18.2c0-3.8,1.7-6.4,4.2-6.4
				c2.5,0,4.2,2.6,4.2,6.4V132c0,4,1.8,6.7,4.6,6.7c2.8,0,4.6-2.6,4.6-6.7v-16.8c0-3.8,1.7-6.4,4.2-6.4c2.5,0,4.2,2.6,4.2,6.4v1.2
				V133.4z"/>
			<path class="st1" d="M280.8,132.3c-5.1-2.6-7.3-5.8-7.3-11c0-7.5,4.5-12.8,10.8-12.8c5.1,0,9.5,3.7,9.5,7.9c0,2.6-1.5,5-3.2,5
				c-1,0-1,0-3.6-1.6c-1.3-0.8-2.3-1.2-3.2-1.2c-1.4,0-2.2,0.8-2.2,2c0,1.5,0.5,1.9,4.4,4c6.3,3.4,8.5,6.5,8.5,12.1
				c0,7.5-4.5,12.8-11.1,12.8c-5.7,0-10.7-3.9-10.7-8.2c0-2.6,1.7-5.1,3.4-5.1c0.7,0,1.3,0.2,1.8,0.5l2.6,1.6
				c1.4,0.9,2.5,1.2,3.4,1.2c1.4,0,2.5-1.2,2.5-2.6c0-1.4-0.6-2-3.3-3.4L280.8,132.3z"/>
		</g>
	</g>
	<g>
		<path class="st1" d="M491.3,221.2c-1.1-4.7-7.3-39.6-43.9-60.9c-9-5.2-14.7,5.4-16.9,8.2l0,0c-0.4-0.3-0.7-0.6-1-0.8
			c-2.8-2.3-6-4.4-9.5-4.3c-4.2,0.2-7.6,3.5-10.5,6.6c-0.4,0.4-1.4,1.5-2.2,2.4c-1.3-0.6-2.7-1-3.9-0.9c-7.1,0.1-13.9,7.3-16.2,11.2
			c-12.7-12.8-26.6-26.9-28.2-28.6c-12.1-12.6-26.5,2.6-17.9,13.2c6.7,8.3,45.9,48.8,56.8,64.2c2.2,3.1,4.5,7.2,2.6,10.5
			c-2,3.5-6.9,3.4-10.8,4.1c-7.2,1.1-30.1,8.9-26,22.7c1.1,3.6,4.8,6,8.6,6.4s7.5-0.9,11.2-1.6c26-5.2,43.2,5.2,58.4,3.5
			C457.3,275.5,502.1,266.2,491.3,221.2z"/>
		<line class="st2" x1="364.1" y1="145" x2="374" y2="131"/>
		<line class="st2" x1="349" y1="137.9" x2="350.6" y2="114.2"/>
		<line class="st2" x1="335.2" y1="142.9" x2="316.1" y2="122.5"/>
		<line class="st2" x1="328" y1="153.8" x2="306.2" y2="149"/>
		<line class="st2" x1="326.7" y1="166.8" x2="309.5" y2="172.2"/>
		<line class="st2" x1="334" y1="177.9" x2="326.3" y2="185.3"/>
		<g>
			<path class="st2" d="M430.5,168.5c2.3-2.8,7.6-12.7,16.9-8.2c10.8,5.2,21.5,15.8,30.8,29.9c7.3,11,11.7,23.8,13.2,31
				c8.8,43.9-35.2,62.5-71.8,52.5c-7.5-2.1-18.7-4-36-0.1c-3.7,0.8-7.4,2-11.2,1.6c-3.8-0.4-7.5-2.7-8.6-6.4
				c-4.2-13.9,18.8-21.6,26-22.7c4-0.6,8.8-0.6,10.8-4.1c1.9-3.3-0.4-7.4-2.6-10.5c-10.9-15.4-50.1-55.9-56.8-64.2
				c-8.6-10.6,5.8-25.9,17.9-13.2c3,3.1,49.6,50.3,49.6,50.3"/>
			<path class="st2" d="M407.7,172.1c0.6-0.7,1.2-1.4,1.8-2c2.9-3.1,6.2-6.5,10.5-6.6c3.6-0.2,6.8,2,9.5,4.3
				c2.5,2.1,9.3,9.1,11.5,11.5"/>
			<path class="st2" d="M388.8,180.6c1.5-3.4,6.8-8.9,14.6-9c8.1-0.1,18.3,14.8,22.5,18.7"/>
		</g>
	</g>
</g>
</svg>
