<?xml version="1.0" encoding="utf-8"?>
<!-- Generator: Adobe Illustrator 22.0.1, SVG Export Plug-In . SVG Version: 6.00 Build 0)  -->
<svg version="1.1" id="Layer_1" xmlns="http://www.w3.org/2000/svg" xmlns:xlink="http://www.w3.org/1999/xlink" x="0px" y="0px"
	 viewBox="0 0 500 300" style="enable-background:new 0 0 500 300;" xml:space="preserve">
<style type="text/css">
	.st0{fill:#FFFFFF;}
	.st1{fill:none;stroke:#FFFFFF;stroke-width:7.1759;stroke-linecap:round;stroke-linejoin:round;}
	.st2{fill:url(#SVGID_1_);}
	.st3{fill:#C83192;}
	.st4{fill:url(#SVGID_2_);}
	.st5{fill:url(#SVGID_3_);}
	.st6{fill:#29ABE2;}
	.st7{fill:none;stroke:#000000;stroke-width:6;stroke-linecap:round;stroke-linejoin:round;stroke-miterlimit:10;}
</style>
<g>
	<g>
		<path class="st0" d="M356,111.8l32,0.1c1.4,0,2.6-1.1,2.6-2.5l0.1-32c0-1.4-1.1-2.6-2.5-2.6l-32-0.1c-1.4,0-2.6,1.1-2.6,2.5
			l-0.1,32C353.5,110.7,354.6,111.8,356,111.8z"/>
		<path d="M381.5,116.5l-19-0.1c-3.6,0-7.1-1.4-9.6-4c-2.6-2.6-4-6-3.9-9.6l0.1-19c0-7.5,6.2-13.6,13.7-13.6l19,0.1
			c3.6,0,7.1,1.4,9.6,4c2.6,2.6,4,6,3.9,9.6l-0.1,19c0,3.6-1.4,7.1-4,9.6c-1.3,1.3-2.8,2.3-4.5,3
			C385.1,116.2,383.3,116.5,381.5,116.5z M355.2,83.7l-0.1,19c0,2,0.8,3.8,2.1,5.2c1.4,1.4,3.2,2.2,5.2,2.2l0,0l19,0.1
			c2,0,3.8-0.8,5.2-2.1c1.4-1.4,2.2-3.2,2.2-5.2l0.1-19c0-2-0.8-3.8-2.1-5.2c-1.4-1.4-3.2-2.2-5.2-2.2l-19-0.1c-1,0-1.9,0.2-2.8,0.5
			C357.2,78,355.3,80.7,355.2,83.7z"/>
	</g>
	<g>
		<g>
			<path class="st0" d="M157.7,111.8l32,0.1c1.4,0,2.6-1.1,2.6-2.5l0.1-32c0-1.4-1.1-2.6-2.5-2.6l-32-0.1c-1.4,0-2.6,1.1-2.6,2.5
				l-0.1,32C155.1,110.6,156.3,111.8,157.7,111.8z"/>
			<path d="M183.2,116.5l-19-0.1c-3.6,0-7.1-1.4-9.6-4c-2.6-2.6-4-6-3.9-9.6l0.1-19c0-7.5,6.2-13.6,13.7-13.6l19,0.1
				c3.6,0,7.1,1.4,9.6,4s4,6,3.9,9.6l-0.1,19c0,3.6-1.4,7.1-4,9.6c-1.3,1.3-2.8,2.3-4.5,3C186.7,116.1,185,116.5,183.2,116.5z
				 M156.9,83.7l-0.1,19c0,2,0.8,3.8,2.1,5.2c1.4,1.4,3.2,2.2,5.2,2.2l0,0l19,0.1c2,0,3.8-0.8,5.2-2.1c1.4-1.4,2.2-3.2,2.2-5.2
				l0.1-19c0-2-0.8-3.8-2.1-5.2c-1.4-1.4-3.2-2.2-5.2-2.2l-19-0.1c-1,0-1.9,0.2-2.8,0.5C158.8,78,156.9,80.6,156.9,83.7z"/>
		</g>
		<g>
			<g>
				<path class="st1" d="M203.3,62.7c-12.3,10-16.7,15.6-25.7,38.7c-0.7,1.9-3,2.6-4.7,1.6c-8-4.6-19.1-8.5-26.9-9.7
					c-2-0.3-3.3-2.4-2.6-4.4l5.6-15.3c0.7-1.9,2.9-2.7,4.6-1.8c4.2,2.3,9.5,6.2,15.5,11.5c3.8-19.9,7.8-33,16.1-45.2
					c1.3-1.9,4.2-1.9,5.5,0l13.3,20C204.9,59.7,204.6,61.6,203.3,62.7z"/>
			</g>
			<g>
				
					<linearGradient id="SVGID_1_" gradientUnits="userSpaceOnUse" x1="529.0074" y1="-274.2674" x2="532.198" y2="-234.7051" gradientTransform="matrix(0.864 -0.5035 0.5035 0.864 -155.3466 563.1677)">
					<stop  offset="0" style="stop-color:#D8DF25"/>
					<stop  offset="1" style="stop-color:#36B24A"/>
				</linearGradient>
				<path class="st2" d="M203.3,62.7c-12.3,10-16.7,15.6-25.7,38.7c-0.7,1.9-3,2.6-4.7,1.6c-8-4.6-19.1-8.5-26.9-9.7
					c-2-0.3-3.3-2.4-2.6-4.4l5.6-15.3c0.7-1.9,2.9-2.7,4.6-1.8c4.2,2.3,9.5,6.2,15.5,11.5c3.8-19.9,7.8-33,16.1-45.2
					c1.3-1.9,4.2-1.9,5.5,0l13.3,20C204.9,59.7,204.6,61.6,203.3,62.7z"/>
			</g>
			<g>
				<path class="st3" d="M203.3,62.7c-12.3,10-16.7,15.6-25.7,38.7c-0.7,1.9-3,2.6-4.7,1.6c-8-4.6-19.1-8.5-26.9-9.7
					c-2-0.3-3.3-2.4-2.6-4.4l5.6-15.3c0.7-1.9,2.9-2.7,4.6-1.8c4.2,2.3,9.5,6.2,15.5,11.5c3.8-19.9,7.8-33,16.1-45.2
					c1.3-1.9,4.2-1.9,5.5,0l13.3,20C204.9,59.7,204.6,61.6,203.3,62.7z"/>
			</g>
		</g>
	</g>
	<g>
		<g>
			<path class="st0" d="M157.7,186.2l32,0.1c1.4,0,2.6-1.1,2.6-2.5l0.1-32c0-1.4-1.1-2.6-2.5-2.6l-32-0.1c-1.4,0-2.6,1.1-2.6,2.5
				l-0.1,32C155.1,185,156.3,186.1,157.7,186.2z"/>
			<path d="M183.2,190.8l-19-0.1c-3.6,0-7.1-1.4-9.6-4c-2.6-2.6-4-6-3.9-9.6l0.1-19c0-7.5,6.2-13.6,13.7-13.6l19,0.1
				c3.6,0,7.1,1.4,9.6,4c2.6,2.6,4,6,3.9,9.6l-0.1,19c0,3.6-1.4,7.1-4,9.6c-1.3,1.3-2.8,2.3-4.5,3
				C186.7,190.5,185,190.8,183.2,190.8z M156.9,158.1l-0.1,19c0,2,0.8,3.8,2.1,5.2c1.4,1.4,3.2,2.2,5.2,2.2l0,0l19,0.1
				c2,0,3.8-0.8,5.2-2.1c1.4-1.4,2.2-3.2,2.2-5.2l0.1-19c0-2-0.8-3.8-2.1-5.2c-1.4-1.4-3.2-2.2-5.2-2.2l-19-0.1
				c-1,0-1.9,0.2-2.8,0.5C158.8,152.3,156.9,155,156.9,158.1z"/>
		</g>
		<g>
			<g>
				<path class="st1" d="M203.3,137c-12.3,10-16.7,15.6-25.7,38.7c-0.7,1.9-3,2.6-4.7,1.6c-8-4.6-19.1-8.5-26.9-9.7
					c-2-0.3-3.3-2.4-2.6-4.4l5.6-15.3c0.7-1.9,2.9-2.7,4.6-1.8c4.2,2.3,9.5,6.2,15.5,11.5c3.8-19.9,7.8-33,16.1-45.2
					c1.3-1.9,4.2-1.9,5.5,0l13.3,20C204.9,134.1,204.6,136,203.3,137z"/>
			</g>
			<g>
				
					<linearGradient id="SVGID_2_" gradientUnits="userSpaceOnUse" x1="491.5635" y1="-210.0208" x2="494.754" y2="-170.4585" gradientTransform="matrix(0.864 -0.5035 0.5035 0.864 -155.3466 563.1677)">
					<stop  offset="0" style="stop-color:#D8DF25"/>
					<stop  offset="1" style="stop-color:#36B24A"/>
				</linearGradient>
				<path class="st4" d="M203.3,137c-12.3,10-16.7,15.6-25.7,38.7c-0.7,1.9-3,2.6-4.7,1.6c-8-4.6-19.1-8.5-26.9-9.7
					c-2-0.3-3.3-2.4-2.6-4.4l5.6-15.3c0.7-1.9,2.9-2.7,4.6-1.8c4.2,2.3,9.5,6.2,15.5,11.5c3.8-19.9,7.8-33,16.1-45.2
					c1.3-1.9,4.2-1.9,5.5,0l13.3,20C204.9,134.1,204.6,136,203.3,137z"/>
			</g>
			<g>
				<path class="st3" d="M203.3,137c-12.3,10-16.7,15.6-25.7,38.7c-0.7,1.9-3,2.6-4.7,1.6c-8-4.6-19.1-8.5-26.9-9.7
					c-2-0.3-3.3-2.4-2.6-4.4l5.6-15.3c0.7-1.9,2.9-2.7,4.6-1.8c4.2,2.3,9.5,6.2,15.5,11.5c3.8-19.9,7.8-33,16.1-45.2
					c1.3-1.9,4.2-1.9,5.5,0l13.3,20C204.9,134.1,204.6,136,203.3,137z"/>
			</g>
		</g>
	</g>
	<g>
		<path class="st0" d="M157.7,252.8l32,0.1c1.4,0,2.6-1.1,2.6-2.5l0.1-32c0-1.4-1.1-2.6-2.5-2.6l-32-0.1c-1.4,0-2.6,1.1-2.6,2.5
			l-0.1,32C155.1,251.6,156.3,252.8,157.7,252.8z"/>
		<path d="M183.2,257.5l-19-0.1c-3.6,0-7.1-1.4-9.6-4c-2.6-2.6-4-6-3.9-9.6l0.1-19c0-7.5,6.2-13.6,13.7-13.6l19,0.1
			c3.6,0,7.1,1.4,9.6,4s4,6,3.9,9.6l-0.1,19c0,3.6-1.4,7.1-4,9.6c-1.3,1.3-2.8,2.3-4.5,3C186.7,257.1,185,257.5,183.2,257.5z
			 M156.9,224.7l-0.1,19c0,2,0.8,3.8,2.1,5.2c1.4,1.4,3.2,2.2,5.2,2.2l0,0l19,0.1c2,0,3.8-0.8,5.2-2.1c1.4-1.4,2.2-3.2,2.2-5.2
			l0.1-19c0-2-0.8-3.8-2.1-5.2c-1.4-1.4-3.2-2.2-5.2-2.2l-19-0.1c-1,0-1.9,0.2-2.8,0.5C158.8,219,156.9,221.6,156.9,224.7z"/>
	</g>
	<g>
		<g>
			<path class="st0" d="M356,186.2l32,0.1c1.4,0,2.6-1.1,2.6-2.5l0.1-32c0-1.4-1.1-2.6-2.5-2.6l-32-0.1c-1.4,0-2.6,1.1-2.6,2.5
				l-0.1,32C353.5,185,354.6,186.1,356,186.2z"/>
			<path d="M381.5,190.8l-19-0.1c-3.6,0-7.1-1.4-9.6-4c-2.6-2.6-4-6-3.9-9.6l0.1-19c0-7.5,6.2-13.6,13.7-13.6l19,0.1
				c3.6,0,7.1,1.4,9.6,4c2.6,2.6,4,6,3.9,9.6l-0.1,19c0,3.6-1.4,7.1-4,9.6c-1.3,1.3-2.8,2.3-4.5,3
				C385.1,190.5,383.3,190.8,381.5,190.8z M355.2,158.1l-0.1,19c0,2,0.8,3.8,2.1,5.2c1.4,1.4,3.2,2.2,5.2,2.2l0,0l19,0.1
				c2,0,3.8-0.8,5.2-2.1c1.4-1.4,2.2-3.2,2.2-5.2l0.1-19c0-2-0.8-3.8-2.1-5.2c-1.4-1.4-3.2-2.2-5.2-2.2l-19-0.1
				c-1,0-1.9,0.2-2.8,0.5C357.2,152.3,355.3,155,355.2,158.1z"/>
		</g>
		<g>
			<g>
				<path class="st1" d="M401.7,137c-12.3,10-16.7,15.6-25.7,38.7c-0.7,1.9-3,2.6-4.7,1.6c-8-4.6-19.1-8.5-26.9-9.7
					c-2-0.3-3.3-2.4-2.6-4.4l5.6-15.3c0.7-1.9,2.9-2.7,4.6-1.8c4.2,2.3,9.5,6.2,15.5,11.5c3.8-19.9,7.8-33,16.1-45.2
					c1.3-1.9,4.2-1.9,5.5,0l13.3,20C403.3,134.1,403,136,401.7,137z"/>
			</g>
			<g>
				
					<linearGradient id="SVGID_3_" gradientUnits="userSpaceOnUse" x1="662.9116" y1="-110.1562" x2="666.1021" y2="-70.5939" gradientTransform="matrix(0.864 -0.5035 0.5035 0.864 -155.3466 563.1677)">
					<stop  offset="0" style="stop-color:#D8DF25"/>
					<stop  offset="1" style="stop-color:#36B24A"/>
				</linearGradient>
				<path class="st5" d="M401.7,137c-12.3,10-16.7,15.6-25.7,38.7c-0.7,1.9-3,2.6-4.7,1.6c-8-4.6-19.1-8.5-26.9-9.7
					c-2-0.3-3.3-2.4-2.6-4.4l5.6-15.3c0.7-1.9,2.9-2.7,4.6-1.8c4.2,2.3,9.5,6.2,15.5,11.5c3.8-19.9,7.8-33,16.1-45.2
					c1.3-1.9,4.2-1.9,5.5,0l13.3,20C403.3,134.1,403,136,401.7,137z"/>
			</g>
			<g>
				<path class="st3" d="M401.7,137c-12.3,10-16.7,15.6-25.7,38.7c-0.7,1.9-3,2.6-4.7,1.6c-8-4.6-19.1-8.5-26.9-9.7
					c-2-0.3-3.3-2.4-2.6-4.4l5.6-15.3c0.7-1.9,2.9-2.7,4.6-1.8c4.2,2.3,9.5,6.2,15.5,11.5c3.8-19.9,7.8-33,16.1-45.2
					c1.3-1.9,4.2-1.9,5.5,0l13.3,20C403.3,134.1,403,136,401.7,137z"/>
			</g>
		</g>
	</g>
	<g>
		<path class="st0" d="M356,252.8l32,0.1c1.4,0,2.6-1.1,2.6-2.5l0.1-32c0-1.4-1.1-2.6-2.5-2.6l-32-0.1c-1.4,0-2.6,1.1-2.6,2.5
			l-0.1,32C353.5,251.6,354.6,252.8,356,252.8z"/>
		<path d="M381.5,257.5l-19-0.1c-3.6,0-7.1-1.4-9.6-4c-2.6-2.6-4-6-3.9-9.6l0.1-19c0-7.5,6.2-13.6,13.7-13.6l19,0.1
			c3.6,0,7.1,1.4,9.6,4c2.6,2.6,4,6,3.9,9.6l-0.1,19c0,3.6-1.4,7.1-4,9.6c-1.3,1.3-2.8,2.3-4.5,3
			C385.1,257.1,383.3,257.5,381.5,257.5z M355.2,224.7l-0.1,19c0,2,0.8,3.8,2.1,5.2c1.4,1.4,3.2,2.2,5.2,2.2l0,0l19,0.1
			c2,0,3.8-0.8,5.2-2.1c1.4-1.4,2.2-3.2,2.2-5.2l0.1-19c0-2-0.8-3.8-2.1-5.2c-1.4-1.4-3.2-2.2-5.2-2.2l-19-0.1c-1,0-1.9,0.2-2.8,0.5
			C357.2,219,355.3,221.6,355.2,224.7z"/>
	</g>
	<circle class="st6" cx="238.9" cy="66.1" r="13.5"/>
	<path class="st6" d="M244,114.4h-10c-1.4,0-2.6-1-2.8-2.4l-3.9-23.7c-0.5-3.1,1.9-5.8,5-5.8h13.5c3.1,0,5.5,2.8,5,5.8l-3.9,23.7
		C246.5,113.4,245.3,114.4,244,114.4z"/>
	<circle class="st6" cx="238.9" cy="142.5" r="13.5"/>
	<path class="st6" d="M244,190.8h-10c-1.4,0-2.6-1-2.8-2.4l-3.9-23.7c-0.5-3.1,1.9-5.8,5-5.8h13.5c3.1,0,5.5,2.8,5,5.8l-3.9,23.7
		C246.5,189.8,245.3,190.8,244,190.8z"/>
	<circle class="st6" cx="238.9" cy="217.1" r="13.5"/>
	<path class="st6" d="M244,265.4h-10c-1.4,0-2.6-1-2.8-2.4l-3.9-23.7c-0.5-3.1,1.9-5.8,5-5.8h13.5c3.1,0,5.5,2.8,5,5.8l-3.9,23.7
		C246.5,264.5,245.3,265.4,244,265.4z"/>
	<circle class="st6" cx="438.5" cy="66.1" r="13.5"/>
	<path class="st6" d="M443.5,114.4h-10c-1.4,0-2.6-1-2.8-2.4l-3.9-23.7c-0.5-3.1,1.9-5.8,5-5.8h13.5c3.1,0,5.5,2.8,5,5.8l-3.9,23.7
		C446.1,113.4,444.9,114.4,443.5,114.4z"/>
	<circle class="st6" cx="438.5" cy="142.5" r="13.5"/>
	<path class="st6" d="M443.5,190.8h-10c-1.4,0-2.6-1-2.8-2.4l-3.9-23.7c-0.5-3.1,1.9-5.8,5-5.8h13.5c3.1,0,5.5,2.8,5,5.8l-3.9,23.7
		C446.1,189.8,444.9,190.8,443.5,190.8z"/>
	<circle class="st6" cx="438.5" cy="217.1" r="13.5"/>
	<path class="st6" d="M443.5,265.4h-10c-1.4,0-2.6-1-2.8-2.4l-3.9-23.7c-0.5-3.1,1.9-5.8,5-5.8h13.5c3.1,0,5.5,2.8,5,5.8l-3.9,23.7
		C446.1,264.5,444.9,265.4,443.5,265.4z"/>
	<g>
		<path class="st0" d="M80.4,270c12.8,1.4,27.2-7.1,48.8-2.7c3.1,0.6,6.2,1.7,9.4,1.4s6.3-2.2,7.2-5.3c3.5-11.6-15.6-18.1-21.6-19.1
			c-3.3-0.5-7.4-0.5-9-3.4c-1.6-2.8,0.4-6.2,2.3-8.8c9.2-12.8,42.1-46.5,47.7-53.4c7.2-8.8-4.7-21.6-14.9-11.1
			c-1.3,1.4-13,13.1-23.7,23.7c-1.9-3.3-7.5-9.3-13.5-9.4c-1.1,0-2.2,0.3-3.3,0.8c-0.7-0.8-1.5-1.7-1.8-2c-2.4-2.6-5.2-5.4-8.7-5.6
			c-3-0.1-5.7,1.6-8,3.5c-0.2,0.2-0.5,0.4-0.8,0.7l0,0c-1.9-2.3-6.6-11.2-14.1-6.9c-30.7,17.6-36,46.8-37,50.7
			C30.2,260.5,67.6,268.5,80.4,270z"/>
		<g>
			<path class="st7" d="M90.5,179.3c-1.9-2.3-6.3-10.6-14.1-6.9c-9.1,4.3-18,13.1-25.8,24.8c-6.1,9.2-9.9,19.8-11.1,25.9
				c-7.6,36.6,29.1,52.4,59.8,44.2c6.3-1.7,15.7-3.3,30,0.1c3.1,0.7,6.2,1.7,9.4,1.4c3.2-0.3,6.3-2.2,7.2-5.3
				c3.5-11.6-15.6-18.1-21.6-19.1c-3.3-0.5-7.4-0.5-9-3.4c-1.6-2.8,0.4-6.2,2.3-8.8c9.2-12.8,42.1-46.5,47.7-53.4
				c7.2-8.8-4.7-21.6-14.9-11.1c-2.5,2.6-41.7,41.7-41.7,41.7"/>
			<path class="st7" d="M109.5,182.4c-0.5-0.6-1-1.2-1.5-1.7c-2.4-2.6-5.2-5.4-8.7-5.6c-3-0.1-5.7,1.6-8,3.5
				c-2.1,1.7-7.8,7.6-9.6,9.5"/>
			<path class="st7" d="M125.3,189.6c-1.3-2.9-5.6-7.5-12.1-7.6c-6.8-0.2-15.4,12.2-18.9,15.5"/>
		</g>
	</g>
</g>
</svg>
