<?xml version="1.0" encoding="utf-8"?>
<!-- Generator: Adobe Illustrator 22.0.1, SVG Export Plug-In . SVG Version: 6.00 Build 0)  -->
<svg version="1.1" id="Layer_1" xmlns="http://www.w3.org/2000/svg" xmlns:xlink="http://www.w3.org/1999/xlink" x="0px" y="0px"
	 viewBox="0 0 500 300" style="enable-background:new 0 0 500 300;" xml:space="preserve">
<style type="text/css">
	.st0{fill:#C83192;stroke:#000000;stroke-width:3.7782;stroke-linecap:round;stroke-linejoin:round;stroke-miterlimit:10;}
	.st1{fill:none;stroke:#000000;stroke-width:3.7782;stroke-linecap:round;stroke-linejoin:round;stroke-miterlimit:10;}
	.st2{fill:#FFFFFF;stroke:#000000;stroke-width:3.7782;stroke-linecap:round;stroke-miterlimit:10;}
	.st3{fill:#FFFFFF;}
	.st4{opacity:0.5;fill:none;stroke:#FFFFFF;stroke-width:4.7227;stroke-linecap:round;stroke-miterlimit:10;}
	.st5{opacity:0.5;}
	.st6{fill:none;stroke:#FFFFFF;stroke-width:4.7227;stroke-linecap:round;stroke-miterlimit:10;}
	.st7{opacity:0.25;}
	.st8{fill:none;stroke:#000000;stroke-width:6;stroke-linecap:round;stroke-linejoin:round;stroke-miterlimit:10;}
</style>
<g>
	<g>
		<g>
			<polygon class="st0" points="439.1,105.2 434.4,109.5 434.4,232.9 438.8,229.8 			"/>
			<path class="st1" d="M438.8,106.5l-92.4,0l0,0c-10.6,0.5-17.7,7.3-21,16.8l92.6,0l4.4-3.1"/>
			<polygon class="st0" points="434.4,232.9 434.4,109.5 341.8,109.7 328.7,118.9 341.8,232.9 			"/>
			<path class="st2" d="M430.3,229.8l1.3-117.1l-81.7,0.4c-10.9,0.8-12.8,11.2-15,13.1c27.9-2.2,51.9,2.1,80.8,0.3
				c1.7,39.8-0.1,75.6,0.5,114.5L430.3,229.8z"/>
			<path class="st0" d="M333.1,118.7c0.9-3.7,8.9-8.6,12.8-8.5c3.9,0.1,88.4-0.6,88.4-0.6l4.7-4.3c0,0-89.1-0.2-93.3,0.3
				c-3.9,0.5-16.6,4.3-20.4,17.8l92.6,0l5.6-4.4L333.1,118.7z"/>
			<polygon class="st0" points="423.6,118.8 418,123.2 418,246.5 422.5,243.5 			"/>
			<path class="st0" d="M418,246.5L418,123.2l-92.6,0l0.1,119.1c0,2.3,1.9,4.2,4.2,4.2L418,246.5z"/>
		</g>
		<polygon class="st3" points="391.5,206.1 371.4,195.4 351.2,205.9 355.2,183.5 339,167.6 361.5,164.4 371.7,144 381.6,164.5 
			404.1,167.9 387.8,183.7 		"/>
		<g>
			<line class="st4" x1="354.7" y1="156.5" x2="342.8" y2="141.8"/>
			<line class="st4" x1="360" y1="151.9" x2="358.3" y2="141.8"/>
			<line class="st4" x1="349.2" y1="159.5" x2="340" y2="157.5"/>
		</g>
		<g class="st5">
			<line class="st6" x1="387.9" y1="156.6" x2="399.3" y2="141.8"/>
			<line class="st6" x1="393.7" y1="160.6" x2="403" y2="156.4"/>
			<line class="st6" x1="383.3" y1="151.4" x2="382.8" y2="142.6"/>
		</g>
		<g>
			<line class="st4" x1="398.2" y1="187.5" x2="413.4" y2="192.2"/>
			<line class="st4" x1="396.6" y1="194.3" x2="403.8" y2="201.6"/>
			<line class="st4" x1="401.4" y1="181.4" x2="409.5" y2="177.8"/>
		</g>
		<g>
			<line class="st4" x1="372.8" y1="206.2" x2="372.2" y2="224.3"/>
			<line class="st4" x1="365.8" y1="206.3" x2="360.7" y2="215.1"/>
			<line class="st4" x1="379.6" y1="207.7" x2="385.1" y2="214.7"/>
		</g>
		<g>
			<line class="st4" x1="345.6" y1="189.1" x2="329.8" y2="194.3"/>
			<line class="st4" x1="343.2" y1="182.5" x2="333.2" y2="180.5"/>
			<line class="st4" x1="346.3" y1="196" x2="341.5" y2="203.4"/>
		</g>
	</g>
	<path class="st7" d="M319.1,261.7h-12.3l-2.3,1.9l-7.6,0.1l-3.4,2.3l-1,8.2l-4.4,3.1l-88.7,0c-3.8-0.1-4.6-3-4-7.1l-15.6,13h113.5
		L319.1,261.7z"/>
	<path class="st7" d="M190.9,261.7h-12.3l-2.3,1.9l-7.6,0.1l-3.4,2.3l-1,8.2l-4.4,3.1l-88.7,0c-3.8-0.1-4.6-3-4-7.1l-15.6,13H165
		L190.9,261.7z"/>
	<polygon class="st7" points="449.3,261.7 335.8,261.7 309.9,283.1 423.4,283.1 	"/>
	<g>
		<polygon class="st1" points="181.3,135.9 176.6,140.2 176.6,263.5 181.1,260.5 		"/>
		<path class="st1" d="M84.1,140.4"/>
		<line class="st1" x1="169" y1="263.6" x2="176.6" y2="263.5"/>
		<path class="st1" d="M165.6,266l6.9-5.5l1.3-117.1l-78.8,0.2c-5.1,0.4-11.1,3.1-13.2,5.8"/>
		<path class="st1" d="M75.4,149.3c0.9-3.7,10-8.9,13.9-8.8s87.3-0.3,87.3-0.3l4.7-4.3c0,0-89.1-0.2-93.3,0.3
			c-3.9,0.5-16.6,4.3-20.4,17.8l92.6,0l5.6-4.4L75.4,149.3z"/>
		<polygon class="st1" points="165.8,149.5 160.2,153.9 160.3,277.2 164.7,274.2 		"/>
		<path class="st1" d="M160.3,277.2l0-123.3l-92.6,0l0,119.1c0,2.3,1.9,4.2,4.2,4.2L160.3,277.2z"/>
	</g>
	<g>
		<polygon class="st1" points="309.1,135.9 304.4,140.2 304.4,263.5 308.9,260.5 		"/>
		<path class="st1" d="M211.9,140.4"/>
		<line class="st1" x1="296.8" y1="263.6" x2="304.4" y2="263.5"/>
		<path class="st1" d="M293.4,266l6.9-5.5l1.3-117.1l-78.8,0.2c-5.1,0.4-11.1,3.1-13.2,5.8"/>
		<path class="st1" d="M203.2,149.3c0.9-3.7,10-8.9,13.9-8.8s87.3-0.3,87.3-0.3l4.7-4.3c0,0-89.1-0.2-93.3,0.3
			c-3.9,0.5-16.6,4.3-20.4,17.8l92.6,0l5.6-4.4L203.2,149.3z"/>
		<polygon class="st1" points="293.6,149.5 288,153.9 288.1,277.2 292.5,274.2 		"/>
		<path class="st1" d="M288.1,277.2l0-123.3l-92.6,0l0,119.1c0,2.3,1.9,4.2,4.2,4.2L288.1,277.2z"/>
	</g>
	<g>
		<path class="st3" d="M346.1,28.9c-1.5,2.9-14.2,23.5-5.3,51c2.2,6.7,10,3.9,12.4,3.5l0,0c0,0.3,0.1,0.6,0.1,0.9
			c0.4,2.4,1,5,2.9,6.5c2.2,1.8,5.5,1.6,8.3,1.4c0.4,0,1.4-0.1,2.2-0.2c0.4,0.9,0.9,1.7,1.6,2.3c3.7,3.2,10.4,2.6,13.3,1.6
			c0.6,12.3,1.4,25.8,1.4,27.3c0.4,11.9,14.7,10.7,15.1,1.4c0.3-7.3-1.2-45.7,0.2-58.5c0.3-2.6,1-5.7,3.4-6.6c2.6-0.9,5,1.4,7.4,2.8
			c4.2,2.7,19.4,9.1,23.5,0.2c1.1-2.4,0.3-5.2-1.5-7.1c-1.8-1.9-4.2-3-6.5-4.3c-15.6-9.1-19.6-22.2-28.2-28.3
			C388.1,16.7,361,1.2,346.1,28.9z"/>
		<g>
			<path class="st8" d="M353.2,83.4c-2.4,0.4-9.6,3-12.4-3.5c-3.1-7.6-3.8-17.8-2.1-29.2c1.3-8.9,4.8-17.5,7.4-21.8
				c15.4-26.4,46.3-15.9,60.4,5.8c2.9,4.5,7.7,10.5,18.3,16.3c2.3,1.2,4.7,2.4,6.5,4.3c1.8,1.9,2.6,4.8,1.5,7.1
				c-4.2,9-19.4,2.5-23.5-0.2c-2.3-1.5-4.8-3.7-7.4-2.8c-2.5,0.8-3.1,4-3.4,6.6c-1.4,12.8,0.2,51.2-0.2,58.5
				c-0.4,9.3-14.7,10.5-15.1-1.4c-0.1-2.9-2.5-48.1-2.5-48.1"/>
			<path class="st8" d="M366.4,91.9c-0.6,0.1-1.2,0.2-1.8,0.2c-2.9,0.3-6.1,0.5-8.3-1.4c-1.9-1.5-2.5-4.1-2.9-6.5
				c-0.3-2.2-0.6-8.8-0.6-11.1"/>
			<path class="st8" d="M379.9,96.2c-2.3,1.1-7.5,1.5-11.5-2c-4.2-3.6-2.6-15.8-3-19.7"/>
		</g>
	</g>
</g>
</svg>
